<?xml version="1.0" encoding="UTF-8" standalone="no"?>
<!-- Created with Inkscape (http://www.inkscape.org/) -->

<svg
   xmlns:dc="http://purl.org/dc/elements/1.1/"
   xmlns:cc="http://creativecommons.org/ns#"
   xmlns:rdf="http://www.w3.org/1999/02/22-rdf-syntax-ns#"
   xmlns:svg="http://www.w3.org/2000/svg"
   xmlns="http://www.w3.org/2000/svg"
   xmlns:xlink="http://www.w3.org/1999/xlink"
   xmlns:sodipodi="http://sodipodi.sourceforge.net/DTD/sodipodi-0.dtd"
   xmlns:inkscape="http://www.inkscape.org/namespaces/inkscape"
   width="270"
   height="180"
   viewBox="0 0 71.437498 47.625001"
   version="1.1"
   id="svg4209"
   inkscape:version="0.91+devel r14248"
   sodipodi:docname="European-flag.svg">
  <defs
     id="defs4203" />
  <sodipodi:namedview
     id="base"
     pagecolor="#ffffff"
     bordercolor="#666666"
     borderopacity="1.0"
     inkscape:pageopacity="0.0"
     inkscape:pageshadow="2"
     inkscape:zoom="3.6148148"
     inkscape:cx="135"
     inkscape:cy="45.737705"
     inkscape:document-units="mm"
     inkscape:current-layer="layer1"
     showgrid="true"
     units="px"
     showguides="true"
     inkscape:guide-bbox="true"
     inkscape:window-width="1496"
     inkscape:window-height="832"
     inkscape:window-x="2248"
     inkscape:window-y="729"
     inkscape:window-maximized="0">
    <inkscape:grid
       type="xygrid"
       id="grid4213"
       spacingx="2.6458333"
       spacingy="2.6458333" />
    <sodipodi:guide
       position="34.395832,47.625"
       orientation="0,1"
       id="guide4215" />
    <sodipodi:guide
       position="35.71875,26.458333"
       orientation="1,0"
       id="guide4219"
       inkscape:label=""
       inkscape:color="rgb(0,0,255)" />
  </sodipodi:namedview>
  <metadata
     id="metadata4206">
    <rdf:RDF>
      <cc:Work
         rdf:about="">
        <dc:format>image/svg+xml</dc:format>
        <dc:type
           rdf:resource="http://purl.org/dc/dcmitype/StillImage" />
        <dc:title></dc:title>
      </cc:Work>
    </rdf:RDF>
  </metadata>
  <g
     inkscape:label="Layer 1"
     inkscape:groupmode="layer"
     id="layer1"
     transform="translate(0,-249.37498)">
    <rect
       style="fill:#003399;fill-opacity:1;stroke:none;stroke-width:0.26458332;stroke-opacity:1"
       id="rect4221"
       width="71.4375"
       height="47.625"
       x="0"
       y="249.37498" />
    <path
       inkscape:transform-center-y="-0.25265487"
       d="m 35.71875,147.89582 0.594079,1.82816 1.922258,7e-5 -1.555096,1.12993 0.593941,1.8282 -1.555182,-1.12982 -1.555182,1.12982 0.593941,-1.8282 -1.555096,-1.12993 1.922258,-7e-5 z"
       inkscape:randomized="0"
       inkscape:rounded="0"
       inkscape:flatsided="false"
       sodipodi:arg2="-0.9424778"
       sodipodi:arg1="-1.5707963"
       sodipodi:r2="1.0107083"
       sodipodi:r1="2.6458333"
       sodipodi:cy="150.54166"
       sodipodi:cx="35.71875"
       sodipodi:sides="5"
       id="use4785"
       style="fill:#e1cc00;fill-opacity:1;stroke:none;stroke-width:0.26458332;stroke-opacity:1"
       sodipodi:type="star" />
    <path
       inkscape:transform-center-y="-0.25265487"
       d="m 35.71875,252.02082 0.594079,1.82816 1.922258,7e-5 -1.555096,1.12993 0.593941,1.8282 -1.555182,-1.12982 -1.555182,1.12982 0.593941,-1.8282 -1.555096,-1.12993 1.922258,-7e-5 z"
       inkscape:randomized="0"
       inkscape:rounded="0"
       inkscape:flatsided="false"
       sodipodi:arg2="-0.9424778"
       sodipodi:arg1="-1.5707963"
       sodipodi:r2="1.0107083"
       sodipodi:r1="2.6458333"
       sodipodi:cy="254.66666"
       sodipodi:cx="35.71875"
       sodipodi:sides="5"
       id="use4787"
       style="fill:#e1cc00;fill-opacity:1;stroke:none;stroke-width:0.26458332;stroke-opacity:1"
       sodipodi:type="star" />
    <path
       inkscape:transform-center-y="-0.25265487"
       d="m 35.71875,283.77082 0.594079,1.82816 1.922258,7e-5 -1.555096,1.12993 0.593941,1.8282 -1.555182,-1.12982 -1.555182,1.12982 0.593941,-1.8282 -1.555096,-1.12993 1.922258,-7e-5 z"
       inkscape:randomized="0"
       inkscape:rounded="0"
       inkscape:flatsided="false"
       sodipodi:arg2="-0.9424778"
       sodipodi:arg1="-1.5707963"
       sodipodi:r2="1.0107083"
       sodipodi:r1="2.6458333"
       sodipodi:cy="286.41666"
       sodipodi:cx="35.71875"
       sodipodi:sides="5"
       id="use4789"
       style="fill:#e1cc00;fill-opacity:1;stroke:none;stroke-width:0.26458332;stroke-opacity:1"
       sodipodi:type="star" />
    <path
       inkscape:transform-center-y="-0.25265487"
       d="m 27.78125,281.65415 0.594079,1.82816 1.922258,7e-5 -1.555096,1.12993 0.593941,1.8282 -1.555182,-1.12981 -1.555182,1.12981 0.593941,-1.8282 -1.555096,-1.12993 1.922258,-7e-5 z"
       inkscape:randomized="0"
       inkscape:rounded="0"
       inkscape:flatsided="false"
       sodipodi:arg2="-0.9424778"
       sodipodi:arg1="-1.5707963"
       sodipodi:r2="1.0107083"
       sodipodi:r1="2.6458333"
       sodipodi:cy="284.29999"
       sodipodi:cx="27.78125"
       sodipodi:sides="5"
       id="use4791"
       style="fill:#e1cc00;fill-opacity:1;stroke:none;stroke-width:0.26458332;stroke-opacity:1"
       sodipodi:type="star" />
    <path
       inkscape:transform-center-y="-0.25265487"
       d="m 27.78125,254.13749 0.594079,1.82815 1.922258,8e-5 -1.555096,1.12993 0.593941,1.8282 -1.555182,-1.12982 -1.555182,1.12982 0.593941,-1.8282 -1.555096,-1.12993 1.922258,-8e-5 z"
       inkscape:randomized="0"
       inkscape:rounded="0"
       inkscape:flatsided="false"
       sodipodi:arg2="-0.9424778"
       sodipodi:arg1="-1.5707963"
       sodipodi:r2="1.0107083"
       sodipodi:r1="2.6458333"
       sodipodi:cy="256.78332"
       sodipodi:cx="27.78125"
       sodipodi:sides="5"
       id="use4793"
       style="fill:#e1cc00;fill-opacity:1;stroke:none;stroke-width:0.26458332;stroke-opacity:1"
       sodipodi:type="star" />
    <path
       inkscape:transform-center-y="-0.25265487"
       d="m 43.65625,254.13749 0.594079,1.82815 1.922258,8e-5 -1.555096,1.12993 0.593941,1.8282 -1.555182,-1.12982 -1.555182,1.12982 0.593941,-1.8282 -1.555096,-1.12993 1.922258,-8e-5 z"
       inkscape:randomized="0"
       inkscape:rounded="0"
       inkscape:flatsided="false"
       sodipodi:arg2="-0.9424778"
       sodipodi:arg1="-1.5707963"
       sodipodi:r2="1.0107083"
       sodipodi:r1="2.6458333"
       sodipodi:cy="256.78332"
       sodipodi:cx="43.65625"
       sodipodi:sides="5"
       id="use4795"
       style="fill:#e1cc00;fill-opacity:1;stroke:none;stroke-width:0.26458332;stroke-opacity:1"
       sodipodi:type="star" />
    <use
       x="0"
       y="0"
       xlink:href="#use4795"
       inkscape:transform-center-y="-0.25265487"
       id="use4797"
       width="100%"
       height="100%" />
    <path
       inkscape:transform-center-y="-0.25265487"
       d="m 43.65625,281.65415 0.594079,1.82816 1.922258,7e-5 -1.555096,1.12993 0.593941,1.8282 -1.555182,-1.12981 -1.555182,1.12981 0.593941,-1.8282 -1.555096,-1.12993 1.922258,-7e-5 z"
       inkscape:randomized="0"
       inkscape:rounded="0"
       inkscape:flatsided="false"
       sodipodi:arg2="-0.9424778"
       sodipodi:arg1="-1.5707963"
       sodipodi:r2="1.0107083"
       sodipodi:r1="2.6458333"
       sodipodi:cy="284.29999"
       sodipodi:cx="43.65625"
       sodipodi:sides="5"
       id="use4799"
       style="fill:#e1cc00;fill-opacity:1;stroke:none;stroke-width:0.26458332;stroke-opacity:1"
       sodipodi:type="star" />
    <path
       inkscape:transform-center-y="-0.25265487"
       d="m 21.960417,275.83332 0.594079,1.82816 1.922258,7e-5 -1.555096,1.12993 0.593941,1.8282 -1.555182,-1.12982 -1.555182,1.12982 0.593941,-1.8282 -1.555096,-1.12993 1.922257,-7e-5 z"
       inkscape:randomized="0"
       inkscape:rounded="0"
       inkscape:flatsided="false"
       sodipodi:arg2="-0.9424778"
       sodipodi:arg1="-1.5707963"
       sodipodi:r2="1.0107083"
       sodipodi:r1="2.6458333"
       sodipodi:cy="278.47916"
       sodipodi:cx="21.960417"
       sodipodi:sides="5"
       id="use4801"
       style="fill:#e1cc00;fill-opacity:1;stroke:none;stroke-width:0.26458332;stroke-opacity:1"
       sodipodi:type="star" />
    <path
       inkscape:transform-center-y="-0.25265487"
       d="m 21.960417,259.95832 0.594079,1.82816 1.922258,7e-5 -1.555096,1.12993 0.593941,1.8282 -1.555182,-1.12982 -1.555182,1.12982 0.593941,-1.8282 -1.555096,-1.12993 1.922257,-7e-5 z"
       inkscape:randomized="0"
       inkscape:rounded="0"
       inkscape:flatsided="false"
       sodipodi:arg2="-0.9424778"
       sodipodi:arg1="-1.5707963"
       sodipodi:r2="1.0107083"
       sodipodi:r1="2.6458333"
       sodipodi:cy="262.60416"
       sodipodi:cx="21.960417"
       sodipodi:sides="5"
       id="use4803"
       style="fill:#e1cc00;fill-opacity:1;stroke:none;stroke-width:0.26458332;stroke-opacity:1"
       sodipodi:type="star" />
    <path
       inkscape:transform-center-y="-0.25265487"
       d="m 49.477081,259.95832 0.59408,1.82816 1.922257,7e-5 -1.555096,1.12993 0.593941,1.8282 -1.555182,-1.12982 -1.555182,1.12982 0.593942,-1.8282 -1.555097,-1.12993 1.922258,-7e-5 z"
       inkscape:randomized="0"
       inkscape:rounded="0"
       inkscape:flatsided="false"
       sodipodi:arg2="-0.9424778"
       sodipodi:arg1="-1.5707963"
       sodipodi:r2="1.0107083"
       sodipodi:r1="2.6458333"
       sodipodi:cy="262.60416"
       sodipodi:cx="49.477083"
       sodipodi:sides="5"
       id="use4805"
       style="fill:#e1cc00;fill-opacity:1;stroke:none;stroke-width:0.26458332;stroke-opacity:1"
       sodipodi:type="star" />
    <path
       inkscape:transform-center-y="-0.25265487"
       d="m 49.477081,275.83332 0.59408,1.82816 1.922257,7e-5 -1.555096,1.12993 0.593941,1.8282 -1.555182,-1.12982 -1.555182,1.12982 0.593942,-1.8282 -1.555097,-1.12993 1.922258,-7e-5 z"
       inkscape:randomized="0"
       inkscape:rounded="0"
       inkscape:flatsided="false"
       sodipodi:arg2="-0.9424778"
       sodipodi:arg1="-1.5707963"
       sodipodi:r2="1.0107083"
       sodipodi:r1="2.6458333"
       sodipodi:cy="278.47916"
       sodipodi:cx="49.477083"
       sodipodi:sides="5"
       id="use4807"
       style="fill:#e1cc00;fill-opacity:1;stroke:none;stroke-width:0.26458332;stroke-opacity:1"
       sodipodi:type="star" />
    <path
       inkscape:transform-center-y="-0.25265487"
       d="m 51.59375,267.89582 0.594079,1.82816 1.922258,7e-5 -1.555096,1.12993 0.593941,1.8282 -1.555182,-1.12982 -1.555182,1.12982 0.593941,-1.8282 -1.555096,-1.12993 1.922258,-7e-5 z"
       inkscape:randomized="0"
       inkscape:rounded="0"
       inkscape:flatsided="false"
       sodipodi:arg2="-0.9424778"
       sodipodi:arg1="-1.5707963"
       sodipodi:r2="1.0107083"
       sodipodi:r1="2.6458333"
       sodipodi:cy="270.54166"
       sodipodi:cx="51.59375"
       sodipodi:sides="5"
       id="use4809"
       style="fill:#e1cc00;fill-opacity:1;stroke:none;stroke-width:0.26458332;stroke-opacity:1"
       sodipodi:type="star" />
    <path
       inkscape:transform-center-y="-0.25265487"
       d="m 19.84375,267.89582 0.594079,1.82816 1.922258,7e-5 -1.555096,1.12993 0.593941,1.8282 -1.555182,-1.12982 -1.555182,1.12982 0.593941,-1.8282 -1.555096,-1.12993 1.922258,-7e-5 z"
       inkscape:randomized="0"
       inkscape:rounded="0"
       inkscape:flatsided="false"
       sodipodi:arg2="-0.9424778"
       sodipodi:arg1="-1.5707963"
       sodipodi:r2="1.0107083"
       sodipodi:r1="2.6458333"
       sodipodi:cy="270.54166"
       sodipodi:cx="19.84375"
       sodipodi:sides="5"
       id="use4811"
       style="fill:#e1cc00;fill-opacity:1;stroke:none;stroke-width:0.26458332;stroke-opacity:1"
       sodipodi:type="star" />
  </g>
</svg>
