<?xml version="1.0" encoding="UTF-8"?>
<svg width="1024px" height="512px" viewBox="0 0 1024 512" version="1.1" xmlns="http://www.w3.org/2000/svg" xmlns:xlink="http://www.w3.org/1999/xlink">
    <!-- Generator: Sketch 52.6 (67491) - http://www.bohemiancoding.com/sketch -->
    <title>recipePlaceholderLight</title>
    <desc>Created with Sketch.</desc>
    <g id="recipePlaceholderLight" stroke="none" stroke-width="1" fill="none" fill-rule="evenodd">
        <rect fill="#E2E2E2" x="0" y="0" width="1024" height="512"></rect>
        <g id="frying.pan.fill" transform="translate(382.000000, 173.000000)">
            <rect id="Rectangle" fill="#000000" opacity="0" x="0" y="0" width="261" height="167"></rect>
            <path d="M0,93.2292622 C0,137.492214 41.9284004,167 105.322619,167 C168.799285,167 210.728199,137.492214 210.728199,93.2292622 C210.728199,74.6624863 167.379532,59.5768059 105.322619,59.5768059 C43.3483249,59.5768059 0,74.6624863 0,93.2292622 Z M13.447204,93.2292622 C13.447204,84.2776194 57.2130733,72.0929791 105.322619,72.0929791 C153.431736,72.0929791 197.280738,84.2776194 197.280738,93.2292622 C197.280738,101.850306 156.187427,114.117702 105.322619,114.117702 C54.4568699,114.117702 13.447204,101.850306 13.447204,93.2292622 Z M193.104439,84.1946937 L248.229363,50.7077492 C271.282397,36.7824339 249.900567,3.21261463 221.836487,23.1887363 L157.440402,69.191854 L193.104439,84.1946937 Z M56.7954434,115.277982 L146.749854,115.609855 C146.833304,98.3686163 132.550241,87.0959885 116.096495,87.0959885 C105.238802,87.0959885 95.7170453,91.9034701 90.1209927,99.3633847 C87.1976689,98.3686163 84.5250257,97.9544123 81.2676322,97.9544123 C69.0733179,97.9544123 58.9670676,105.496658 56.7954434,115.277982 Z" id="Shape" fill-opacity="0.85" fill="#7C7C7C" fill-rule="nonzero"></path>
        </g>
    </g>
</svg>