<?xml version="1.0" encoding="UTF-8"?>
<svg width="59px" height="44px" viewBox="0 0 59 44" version="1.1" xmlns="http://www.w3.org/2000/svg" xmlns:xlink="http://www.w3.org/1999/xlink">
    <title>book.logo</title>
    <g id="book.logo" stroke="none" stroke-width="1" fill="none" fill-rule="evenodd">
        <g id="logo" transform="translate(-2.666667, -11.244444)">
            <g id="background.shape" transform="translate(8.059111, 11.338556)">
                <circle id="Oval" stroke="#EE822C" stroke-width="1.18316891" fill="#275D63" cx="21.651991" cy="21.651991" r="21.0604065"></circle>
                <path d="M24.496988,4.37772495 C32.9176841,10.0118968 36.1803262,16.9528939 34.2849143,25.2007162 C36.759481,27.5919371 37.7791168,31.858425 36.759481,34.0752645 C36.314654,33.4482912 34.1004457,30.2502685 30.8976915,31.2042458 C27.6949374,32.1582231 16.1901459,40.3334907 3.43118983,23.32866 C9.76977888,27.3984205 18.4601163,28.5608083 22.4080344,25.5731614 C17.6789453,22.0808723 12.4950744,16.4359076 6.85642158,8.63826738 C14.2552,14.7384514 18.7482554,18.1162461 20.3355877,18.7716515 C17.3713594,15.8690831 14.1915064,11.9259579 10.7960287,6.94227584 C17.7649436,13.5191895 23.2117631,17.8325875 27.1364873,19.8824698 C28.96677,15.0028353 28.0869369,9.83458699 24.496988,4.37772495 Z" id="Path" fill="#297C78"></path>
            </g>
            <g id="Group" transform="translate(30.907403, 31.548460) rotate(17.000000) translate(-30.907403, -31.548460) translate(6.407403, 6.048460)">
                <g id="hand" transform="translate(8.515801, 7.576342)">
                    <path d="M26.6534132,9.49323728 C24.694694,10.2378874 22.3011607,10.9695336 21.8592431,10.8632462 C21.9220537,10.8778664 22.0506659,10.9743067 22.0772109,11.1409162 L21.0946733,11.3004975 C21.1253309,11.4907849 21.236745,11.6505541 21.4083526,11.7503394 C21.692122,11.9153704 22.1983457,12.026694 24.6311356,11.2546451 C25.4431872,10.9969698 26.2268244,10.716218 26.6597691,10.5575011 C26.8313767,10.8172059 27.0194347,11.2011257 26.9674663,11.5338937 C26.9278358,11.785067 26.748003,11.9976416 26.4167518,12.1837572 L26.3621664,12.2193867 C26.3371169,12.2382538 25.7419115,12.6888098 25.4009396,13.3034948 C25.3224263,13.4452238 25.1014675,13.68204 24.8674232,13.9326872 C24.3798931,14.4551788 23.7734715,15.105343 23.4310041,15.9074965 C23.3898781,16.0036738 23.3472566,16.1052255 23.3027657,16.2110994 C22.849632,17.2889686 22.1646971,18.917818 21.104394,19.7356064 C19.8638843,20.6925305 18.1818308,22.155259 17.4479186,22.8693534 C16.7866873,23.5127901 15.3817109,24.5707774 14.2207987,24.8488984 L13.5685403,24.9654085 L13.8776583,25.532174 C13.9006141,25.6141069 14.0365916,26.212067 13.5484634,27.4816518 C12.8707442,29.2447133 11.2951522,34.2180957 14.0180674,41.2331339 C14.2970211,41.4212905 14.7641315,41.3304935 15.2312419,41.2396964 C12.5804842,34.4106987 13.917214,29.2980825 14.4767894,27.8424574 C14.8668882,26.8280674 14.9316056,26.1263757 14.9044624,25.6881472 C16.2198215,25.2273684 17.5268058,24.1847905 18.1399571,23.5883338 C18.7706804,22.9745884 20.4344141,21.5137015 21.7104418,20.5293787 C22.978992,19.5507311 23.7256158,17.7753796 24.2195017,16.6006191 C24.2636187,16.4964741 24.3054924,16.396576 24.3458707,16.3019022 C24.6191717,15.6614722 25.1594178,15.082492 25.593484,14.6172406 C25.8944516,14.2946955 26.1318608,14.0399141 26.2701937,13.7906951 C26.4765714,13.4190278 26.8459577,13.1103511 26.9368088,13.0375134 C27.664739,12.6155212 27.8901843,12.0732605 27.9503778,11.6899045 C28.1133863,10.652438 27.1566974,9.86263933 27.0621076,9.76011041 L26.6534132,9.49323728 Z" id="Fill-30" fill="#2A2B2B" transform="translate(20.222852, 25.418268) rotate(11.000000) translate(-20.222852, -25.418268) "></path>
                    <path d="M23.4634972,8.10271713 C23.3527641,7.41565577 23.2740593,6.6939988 23.1070277,6.14697804 C22.9403689,5.59999461 22.1533426,5.2053962 22.1533426,5.2053962 C18.3824538,4.60431551 8.0542676,12.9004237 5.18061471,15.712996 C2.30696183,18.5255683 4.63559937,35.6569653 4.63559937,35.6569653 C4.61012014,35.3819499 4.63603538,36.1182539 4.7133451,37.8658772 C8.25584136,39.6995831 11.5505403,40.4304084 14.4439997,40.3527364 C12.3835053,33.8501261 13.7954588,28.7437907 14.424251,27.1148994 C15.0530431,25.4856347 14.74698,24.8035388 14.74698,24.8035388 C16.0491185,24.4925448 17.5200783,23.3650519 18.1949161,22.7105833 C18.8701266,22.056488 20.5318679,20.6084062 21.7987732,19.6349915 C23.0656785,18.6616141 23.7856297,16.771346 24.2725568,15.6339595 C24.7598567,14.496573 25.9223672,13.6181365 26.2146726,13.0933669 C26.5066052,12.5685227 27.0364087,12.1727428 27.0364087,12.1727428 C28.758177,11.2082509 27.6057331,9.67321777 27.6057331,9.67321777 C27.6057331,9.67321777 23.5746031,8.78974116 23.4634972,8.10271713 Z" id="Fill-31" fill="#EEF0D4" transform="translate(15.864180, 22.766331) rotate(11.000000) translate(-15.864180, -22.766331) "></path>
                    <path d="M7.68835047,37.9056465 C7.74687408,35.7128527 8.83342471,33.2954531 9.22792107,29.3530831 C9.62241744,25.4107131 10.4533536,24.0226103 9.83974899,24.3728625 C9.22614436,24.7231148 8.64109971,25.6130686 8.46664771,27.7014034 C8.29219571,29.7897383 8.70174437,31.3229658 8.10339269,32.7583132 C8.10339269,32.7583132 8.14943757,30.3022472 8.0729203,28.2359387 C7.99640303,26.1696302 7.75254118,25.3827947 8.12518263,24.5105979 C8.12518263,24.5105979 7.24802949,24.4179687 6.9789984,28.0619572 C6.70996732,31.7059457 6.24608548,32.4256117 6.24608548,32.4256117 C6.24608548,32.4256117 6.4603979,30.1882706 6.0033791,27.458745 C5.54636031,24.7288379 6.11038446,24.4514595 7.42820634,24.138598 C8.74599471,23.825355 9.47848692,23.897067 9.86021192,22.6029194 C9.86021192,22.6029194 9.05048394,23.7738473 8.16199086,23.6391642 C7.27353131,23.5044812 6.65442891,24.2954103 6.28530737,23.6952504 C5.91618583,23.0950905 7.60929748,23.9993365 7.15164175,22.9184382 C6.6939525,21.83754 5.08987788,23.6796073 5.08987788,23.6796073 C5.08987788,23.6796073 4.44258265,20.9378725 3.45308484,22.0496753 C2.46362054,23.1618597 1.72065073,24.8478778 1.80730763,26.3675452 C1.89399806,27.8872126 2.18752593,32.2163854 1.86915818,35.4010863 C2.02477894,35.7217043 5.9172685,37.5227707 7.68835047,37.9056465 Z" id="Path" fill="#EE822C" transform="translate(5.929493, 29.844992) rotate(11.000000) translate(-5.929493, -29.844992) "></path>
                    <path d="M21.8657296,4.01608484 C21.8657296,4.01608484 24.8222347,5.11438494 25.0174721,5.5439385 C25.2127094,5.97349205 25.2015317,7.5407255 23.7506646,8.09006236 C22.2997974,8.63939923 22.5237243,9.02023243 23.460044,8.99990738 C24.3959912,8.97954497 25.1027953,8.46245171 25.1027953,8.46245171 C25.1027953,8.46245171 26.8204372,7.15873406 28.7795177,8.38851185 C30.7385982,9.61825228 30.043717,11.202635 29.3011443,11.427593 C28.5589441,11.652551 28.1923151,11.9301523 28.1327007,12.4884935 C28.0727136,13.0468347 27.8782214,13.3097527 27.3942264,13.5505896 C26.9102315,13.7914639 26.2261554,14.3115835 25.0469067,13.7236514 C23.867658,13.1357194 23.641123,12.7925847 23.3400699,11.817281 C23.0390168,10.8420148 22.098226,9.61332047 21.5691476,9.35630569 C21.5691476,9.35630569 22.1500161,10.6807967 21.4372506,11.4766496 C20.7248577,12.2724651 19.6683402,12.9078098 18.7478183,12.6520653 C17.8272964,12.3963209 18.3710549,12.8961528 18.3710549,12.8961528 C18.3710549,12.8961528 18.72088,14.0937243 18.0011843,15.0713444 C17.2815259,16.0489645 16.4466625,16.9373263 14.8753742,16.5707654 C14.8753742,16.5707654 14.9499295,17.604952 14.4186528,18.4079036 C13.8874134,19.2108553 13.0879833,19.9807414 11.8110041,19.7952379 C10.5340249,19.6096971 10.6035876,19.0977598 9.175672,18.8792655 C7.74775643,18.6607712 6.64146091,19.273437 6.28202292,16.883151 C5.92258493,14.4929024 5.60185909,13.5246228 6.72413873,12.9279854 C7.84641837,12.331348 7.7268541,11.6199337 7.70669696,10.8493378 C7.68653982,10.0787418 7.26227109,9.06869125 8.64215976,8.58578443 C10.0220112,8.10287761 10.0325555,7.55667917 10.225371,6.60536208 C10.4181866,5.65404499 10.8500189,4.91023772 12.04514,4.96811181 C13.2402238,5.02602327 14.4955927,4.46446896 15.0799636,3.63555053 C15.6643344,2.80666946 16.5561296,1.36299291 21.8657296,4.01608484" id="Fill-33" fill="#EE822C" transform="translate(18.000487, 11.157316) rotate(11.000000) translate(-18.000487, -11.157316) "></path>
                    <path d="M4.31830123,28.4938917 C4.09130858,27.3261157 4.47128649,26.6492588 4.46320386,26.2047621 C4.4601496,25.9827003 4.46715206,25.7625046 4.4692379,25.5411893 L4.4946032,25.2138814 C4.50197813,25.1041568 4.50987452,24.9951786 4.53199932,24.8891861 L4.58626839,24.5689693 C4.60936161,24.46335 4.64511886,24.361836 4.67357567,24.258456 C4.72799373,24.0572942 4.08984303,23.6999087 4.15867573,23.4856845 C4.28669412,23.0475323 3.93813377,22.8248467 3.99690975,22.3702732 C4.05773431,21.9168194 4.07341536,21.4566477 4.09017657,21.0151366 C4.10064301,20.796807 4.11319529,20.5803434 4.15897202,20.395603 C4.20512121,20.2093697 4.29045439,20.0783719 4.43143479,19.9791718 L4.60549064,19.856646 L4.49009902,19.6630977 C4.42137806,19.5478868 4.3526571,19.389234 4.30069736,19.2426732 C4.24836514,19.0916712 4.20765402,18.9361907 4.17644092,18.778844 C4.11461068,18.4638149 4.10220739,18.139866 4.12950954,17.8199851 L4.15804084,17.5805689 L4.20411554,17.343504 C4.24285256,17.1822013 4.28185031,17.0448962 4.33477848,16.8532886 C4.42476755,16.4909361 4.45583166,16.1236198 4.45698632,15.7657458 C4.46156772,15.0505576 4.34960284,14.3586953 4.36684826,13.7116931 C4.37593656,13.3904314 4.42573598,13.0835756 4.55863375,12.8420694 C4.62444943,12.7210737 4.71034131,12.6161636 4.81623491,12.5273015 C4.94142252,12.4222421 5.07532596,12.314794 5.20718081,12.2124217 L5.61518589,11.9066109 C5.75188287,11.8014022 5.91208278,11.6959695 6.06263569,11.4967857 C6.13333075,11.3947119 6.18361438,11.2816283 6.2150882,11.1785469 C6.23095548,11.1271181 6.24201788,11.0786004 6.25438393,11.0291124 L6.28168607,10.8887096 C6.31334614,10.7108736 6.33182071,10.5200125 6.34444749,10.3465057 C6.3676897,9.99669313 6.38296103,9.66061478 6.4241936,9.33502371 C6.46419702,9.01070157 6.53191231,8.69634422 6.65579627,8.43210938 L6.70250417,8.33391703 L6.75867285,8.24602536 C6.79186004,8.18265378 6.84192019,8.13988357 6.88248231,8.08636481 C6.92933921,8.04087014 6.97831919,7.99877171 7.02986922,7.96048005 L7.11304206,7.91166379 L7.15513132,7.88598673 L7.21360932,7.85762254 C7.36930233,7.78245743 7.52626174,7.70535161 7.68366813,7.621416 C7.84111175,7.53643539 8.00201936,7.44846907 8.16646545,7.31963593 C8.2482974,7.25760792 8.3300921,7.1764714 8.40127137,7.08746009 C8.47371704,6.99680664 8.52645898,6.89648697 8.56959116,6.80198943 C8.61186666,6.70685742 8.64211133,6.61709968 8.67053089,6.53014104 C8.6989132,6.43971152 8.72431575,6.34495273 8.74450369,6.26198746 C8.82715508,5.92296073 8.9060445,5.60655071 9.02136163,5.30626349 C9.13429493,5.00787965 9.28484784,4.73181396 9.4859451,4.53151052 C9.68599945,4.33098315 9.932054,4.2105473 10.2162496,4.19184932 C10.867851,4.15628212 11.6233718,4.17785383 12.3282365,3.87025164 C12.6795142,3.71861518 12.9819982,3.4840881 13.2423556,3.23459517 C13.5052831,2.98252708 13.7241845,2.71288065 13.9528819,2.4699936 C14.065927,2.34642276 14.1826595,2.23669812 14.3025952,2.13328078 C14.426144,2.03882056 14.5506611,1.94637569 14.6890715,1.88654964 C14.9609383,1.75573846 15.2702385,1.70834041 15.5904521,1.72046983 C15.9106284,1.73405479 16.2368016,1.79537369 16.5592127,1.88110073 C16.8859073,1.970224 18.5635771,2.56073829 19.2023654,2.81702369 C19.5219458,2.94417738 19.9015889,2.65214115 19.5877439,2.50816693 C18.8326146,2.16175663 16.9975742,1.61764963 16.6649573,1.51385909 C16.3271258,1.41107621 15.9773753,1.33020094 15.6116084,1.30150086 C15.2477412,1.27186774 14.8554544,1.31889259 14.5029103,1.47929956 C14.3239751,1.55360628 14.166606,1.6634802 14.0159786,1.77477233 C13.8724654,1.89214783 13.7364016,2.01605457 13.6143055,2.14358146 C13.3665376,2.3962467 13.1442094,2.65652548 12.9049339,2.87492976 C12.6648016,3.09449099 12.4096215,3.28061234 12.1251651,3.39548732 C11.8426084,3.51480353 11.5284661,3.56813567 11.2017715,3.59590272 C11.0378841,3.60840536 10.8719481,3.61650409 10.7037028,3.61948979 L10.4507576,3.62269942 C10.3646422,3.62366978 10.2879876,3.62012425 10.1798964,3.63079814 C10.0789567,3.64091222 9.97753275,3.64016579 9.87756145,3.67267265 C9.77725492,3.69846167 9.67590548,3.72133963 9.58304838,3.77082768 L9.44132304,3.83718496 C9.39707345,3.86383237 9.35498419,3.89387602 9.31218723,3.92302396 C9.22324108,3.9784461 9.14993873,4.04823694 9.07700884,4.11873689 C8.7879711,4.40398362 8.60583262,4.74913105 8.47125873,5.09002385 C8.33597715,5.43132718 8.24580184,5.78405083 8.16199579,6.11232903 C8.1405042,6.19630197 8.12046524,6.26758566 8.09677607,6.34114595 C8.07115004,6.4174307 8.04496531,6.49050582 8.01658299,6.55227257 C7.95933415,6.67733627 7.8989193,6.75209084 7.78963622,6.83666092 C7.68288594,6.91970082 7.54138408,6.99878467 7.39563605,7.07465888 C7.24869612,7.15012256 7.09769624,7.22566088 6.94401458,7.30000492 L6.88661675,7.32795858 L6.81763506,7.36755648 L6.67926196,7.45052174 C6.59303485,7.512811 6.51027172,7.58420666 6.43585195,7.65892391 C6.36929133,7.73953793 6.29293471,7.81671839 6.24343327,7.90546845 L6.16197379,8.03575712 L6.09708929,8.17018847 C5.93037112,8.53119745 5.8585959,8.9005664 5.8137876,9.25754468 C5.76916554,9.61519475 5.75422944,9.96747055 5.73210464,10.3043326 C5.71970135,10.473958 5.70856445,10.6263782 5.68174652,10.7879048 L5.6612606,10.9011376 C5.65287999,10.9350627 5.64543056,10.9707419 5.63630502,11.0015693 C5.61809117,11.063336 5.59652508,11.1079723 5.57101079,11.1487645 C5.51588504,11.2275871 5.39330473,11.327235 5.25765067,11.4293834 L4.84446824,11.7472116 C4.70616964,11.8574214 4.57319737,11.9666982 4.43653765,12.0842976 C4.2805839,12.2183184 4.14679221,12.3859284 4.05084359,12.5686909 C3.85667429,12.9381718 3.81071133,13.3343374 3.80337365,13.6972125 C3.79603596,14.4284861 3.91712639,15.1036285 3.91883976,15.7663429 C3.92193127,16.0963006 3.89686395,16.4198763 3.82464176,16.7271799 C3.78810232,16.867732 3.73424297,17.062176 3.6968096,17.2362052 L3.65039968,17.5069713 L3.62369348,17.780835 C3.60022779,18.1469197 3.62279955,18.5172217 3.70124201,18.87629 C3.74079847,19.0557308 3.79134282,19.2327084 3.85555688,19.4055434 C3.90073765,19.5213141 3.94696134,19.6302176 4.00443367,19.7419203 C3.95787475,19.794506 3.91671667,19.8536976 3.87470191,19.9105006 C3.83961511,19.9710358 3.81171701,20.0350792 3.78173306,20.097779 C3.75893782,20.1612252 3.74262358,20.2246714 3.72381377,20.2881176 C3.66809206,20.5400364 3.66362241,20.7736678 3.6566572,21.001701 C3.6520758,21.4544084 3.65293248,21.8903212 3.60860839,22.3262341 C3.56674262,22.7614005 3.93407553,22.9657987 3.82512766,23.3905151 C3.76389338,23.603993 4.41847006,23.9348803 4.36177992,24.167392 C4.33421705,24.2804756 4.30024766,24.3924395 4.27860708,24.5058963 L4.23018581,24.8488791 C4.21022134,24.9630823 4.20508124,25.0772855 4.20053709,25.1911154 L4.18399936,25.5333518 C4.18809655,25.7598921 4.18753784,25.9871789 4.19711035,26.2122263 C4.21811773,26.6623213 4.05861423,28.0605914 4.09072126,28.5069542 C4.15728188,29.3993066 4.14716183,33.8826047 3.95653101,35.6587256 C3.84810461,36.545853 4.54529389,29.6616677 4.31830123,28.4938917 Z" id="Fill-34" fill="#2A2B2B" transform="translate(11.655220, 18.515275) rotate(11.000000) translate(-11.655220, -18.515275) "></path>
                    <path d="M27.4574734,15.1126525 C27.3041661,15.222527 27.1452908,15.3288656 26.9711961,15.4081823 C26.6278324,15.5749295 26.2402954,15.6632907 25.8497887,15.652199 C25.4603957,15.6398046 25.069889,15.5336521 24.7276389,15.3479225 C24.5461201,15.2703924 24.3950401,15.1477885 24.2317103,15.0415244 C24.0724638,14.9298632 23.9258382,14.7993314 23.7870079,14.6581545 C23.64892,14.5161588 23.5264226,14.3555901 23.4206295,14.1818826 C23.3181772,14.005793 23.2424516,13.8113538 23.1964223,13.6095449 C23.1010228,13.2031729 23.1544762,12.7762924 23.2847688,12.3981706 C23.4135766,12.0155824 23.6218221,11.6769887 23.8482565,11.3621415 C24.0791455,11.0497137 24.3356474,10.7618141 24.6069976,10.4929341 C24.7443431,10.3590524 24.8828022,10.2301583 25.027943,10.1044279 C25.104411,10.0422326 25.1793942,9.97843691 25.2569759,9.91799102 L25.5004857,9.74837778 C25.8338269,9.53536558 26.2098566,9.37248922 26.6085298,9.3050459 C27.0068317,9.23652319 27.4207242,9.26384295 27.804178,9.37572739 C28.1894878,9.48522973 28.5432452,9.67538862 28.852087,9.91162633 C29.1605575,10.1482363 29.4456422,10.4100444 29.6880384,10.7074351 C29.9322907,11.0022577 30.158354,11.3210502 30.3042372,11.6854749 C30.3343047,11.7791214 30.3762507,11.8674453 30.3925837,11.9658188 L30.4245073,12.1098244 C30.4323025,12.1584714 30.4345298,12.2083839 30.4393554,12.2574032 C30.4538324,12.3551067 30.4382418,12.455155 30.4352722,12.5530074 C30.414856,12.6500037 30.4014926,12.7480794 30.3617738,12.838711 C30.2307388,13.2137807 30.1613236,13.1517343 30.2478141,12.8021606 C30.2763968,12.7172237 30.2782529,12.6269643 30.2908738,12.5399803 C30.2856769,12.4510608 30.2938434,12.3628485 30.273056,12.2755295 C30.2648895,12.2319072 30.2600639,12.1880988 30.2496702,12.1450721 L30.2103225,12.0176295 C30.1895351,11.931576 30.1431346,11.8523711 30.1097262,11.7704118 C29.9553054,11.447339 29.7259013,11.1604443 29.4771946,10.8963285 C29.2296015,10.628528 28.9515696,10.3909503 28.657576,10.1873921 C28.36284,9.98368498 28.0398925,9.82922043 27.7043241,9.74145479 C27.3687556,9.65380081 27.0187102,9.64110866 26.6823994,9.70817977 C26.3457173,9.77368763 26.0216562,9.91177522 25.728405,10.1041673 L25.5134779,10.256957 L25.3093156,10.4263469 C25.1730837,10.5460476 25.0394503,10.6737879 24.9095289,10.8015283 C24.391328,11.310033 23.9132172,11.881924 23.668965,12.5349555 C23.5483237,12.8585122 23.4974687,13.2032101 23.5653991,13.5313077 C23.6281325,13.8601125 23.8014848,14.1657662 24.0334874,14.4296586 C24.2651187,14.6939605 24.5579987,14.9172083 24.8620148,15.099737 C25.1649173,15.2906403 25.5097658,15.4051674 25.8631521,15.4412339 C26.5747502,15.5192851 27.3134462,15.2223037 27.8683963,14.7267889 C27.7466413,14.8693057 27.6055838,14.9950733 27.4574734,15.1126525 Z" id="Fill-35" fill="#2A2B2B" transform="translate(26.796646, 12.460451) rotate(11.000000) translate(-26.796646, -12.460451) "></path>
                    <path d="M16.5897542,7.31979407 C17.5959841,7.91923831 20.9040694,9.0192712 21.8825647,9.95375122 C22.8606892,10.8881935 22.721285,12.4497488 22.815093,13.2211322 C22.815093,13.2211322 23.3749647,13.7533049 23.8966558,13.2544923 C23.8966558,13.2544923 23.4635817,11.7017114 24.1480464,10.8051336 C24.8328819,9.90855578 25.2299901,9.50036082 25.2299901,9.50036082 C25.2299901,9.50036082 24.7513097,9.5305541 24.0182725,9.72191674 C23.2848645,9.9132416 22.9092617,10.0076003 22.6404443,9.32218648 C22.371627,8.63677265 22.9819351,8.02119258 23.6597257,7.71098405 C24.3371456,7.40077553 24.4283581,6.47083017 23.944116,5.90259951 C23.4595031,5.33436884 23.299325,5.31154439 23.3753355,6.08039596 C23.4513459,6.84928532 22.6115233,6.88601607 22.3593911,7.66858499 C22.1068882,8.45111611 22.0342148,8.84752096 22.1984715,9.37014051 C22.1984715,9.37014051 21.2214593,8.95359421 19.4943539,8.3191953 C17.7672485,7.68479639 16.1158199,7.15983394 15.8919784,5.61797403 C15.8919784,5.61797403 15.5835244,6.72034983 16.5897542,7.31979407 Z" id="Fill-36" fill="#2A2B2B" transform="translate(20.538706, 9.478129) rotate(11.000000) translate(-20.538706, -9.478129) "></path>
                    <path d="M13.0781626,10.2403431 C14.6436289,10.5544634 15.6953735,11.571894 16.417373,11.9867999 C17.1393725,12.4017059 17.7296983,12.1931582 18.0283007,12.6703316 C18.3269405,13.1475421 18.1548151,13.8498876 18.5612015,14.947212 C18.967588,16.0445363 18.7308944,16.7355931 18.6572813,17.2579642 C18.6572813,17.2579642 19.8139664,16.5962177 19.2283138,15.2079285 C18.6426613,13.8196393 18.4885395,12.5047226 18.5927344,11.9381558 C18.5927344,11.9381558 19.3859753,12.0356713 20.3669854,11.130901 C21.3479955,10.2260936 20.9939495,9.45071932 20.8634722,9.16628554 C20.732621,8.88188887 20.7307517,9.41420493 20.1288362,10.2263162 C19.5264721,11.0384647 18.7931072,11.3965952 17.6186243,11.5967564 C16.444104,11.7968805 16.1666247,11.5162689 15.0574926,10.7329164 C13.9483605,9.94960096 12.2859895,9.97732073 11.5208674,8.48308785 C11.5208674,8.48308785 11.5127337,9.92625995 13.0781626,10.2403431 Z" id="Fill-37" fill="#2A2B2B" transform="translate(16.277335, 12.870526) rotate(11.000000) translate(-16.277335, -12.870526) "></path>
                    <path d="M9.47712855,13.6843084 C10.8167056,13.9650149 13.2052647,15.0531784 13.552281,15.5600147 C13.8992231,16.0668885 14.7932517,17.5535032 15.001328,19.1945824 C15.001328,19.1945824 15.3275976,19.1945824 15.3401564,18.8581716 C15.3643001,18.2114415 14.9631463,16.8680284 14.0039114,15.7245945 C14.0039114,15.7245945 15.2624845,15.9647122 16.2940648,15.0370539 C17.5032377,13.949694 17.4349266,13.3243947 17.1786217,12.5556055 C16.9223538,11.7868538 16.6719059,12.1544037 16.3088011,13.0738214 C15.9457333,13.993239 14.8796248,15.1430538 13.6905537,15.0850709 C12.5015196,15.0270505 12.5704335,14.267582 10.8544062,13.8238194 C9.13837896,13.3800943 8.84874769,13.375827 8.13451171,12.3775764 C8.13451171,12.3775764 8.13755148,13.4036019 9.47712855,13.6843084 Z" id="Fill-38" fill="#2A2B2B" transform="translate(12.733278, 15.666949) rotate(11.000000) translate(-12.733278, -15.666949) "></path>
                    <path d="M5.30911113,10.2748244 C5.35539166,11.1600288 5.93847481,11.3406164 4.90512148,11.413233 C3.87176816,11.4858496 3.52905702,12.5841525 4.01509443,13.4099093 C4.50116859,14.2356661 3.42789027,15.204246 4.37868511,15.999902 C5.32947995,16.7955579 6.06842052,16.0939182 7.59876566,16.8242371 C9.1291108,17.5545186 10.4184958,17.4207334 10.8011648,16.2060793 C11.1838705,14.9913878 10.738857,14.3575543 10.4555128,14.0091367 C10.1721687,13.6607191 11.9444297,14.3430385 11.7602634,15.6835839 C11.5760603,17.0240918 10.7295568,18.1239661 8.88175444,17.9586426 C8.88175444,17.9586426 9.78382537,18.3578298 10.1042601,18.8183336 C10.1106323,18.827493 10.1167433,18.8365059 10.1225933,18.8453723 C10.249422,19.0375991 10.1635099,19.171013 9.86485718,19.2456141 C8.48242103,17.8611221 6.84572993,17.3597519 4.95478391,17.7415036 C4.95478391,17.7415036 5.85374358,17.9182377 6.38183415,18.1764176 C6.90988795,18.434635 6.87643658,18.8325486 7.14121705,18.7482221 C7.40596077,18.6638581 7.04365668,19.3810828 5.60002779,19.5905898 C5.60002779,19.5905898 6.49431898,19.8887631 7.72474132,19.1363337 C7.72474132,19.1363337 7.37607509,19.9287939 5.93535023,20.5535736 C5.93535023,20.5535736 6.83736096,20.6209152 8.30958894,19.85397 C8.30958894,19.85397 7.84634257,20.520277 7.12390321,20.9789476 C6.40142709,21.4376183 7.31520095,21.5064563 8.3186686,20.660946 C8.3186686,20.660946 8.14516258,21.0511527 7.60516185,21.3160294 C7.06519789,21.580532 8.68636553,21.0852318 8.64667584,21.4151711 C8.60698615,21.7451104 7.79583468,22.1970811 8.46578111,22.731698 C9.13572755,23.2666891 8.70119055,23.9857469 7.47102553,23.688696 C6.24089727,23.391645 7.51958516,24.207974 6.75424717,24.3677231 C5.98894594,24.527098 6.19855003,26.1432947 6.72142071,30.366731 C7.24429139,34.5901673 5.92185205,34.9449899 6.4923266,37.0763493 C5.77813549,36.8169165 3.60542972,35.9408468 2.72317001,35.1428216 C3.34616362,32.1131666 3.77443802,30.5756398 5.37752103,27.93009 C6.98060403,25.2845402 3.66716802,25.699543 3.30327863,23.8274943 C2.93938925,21.9554457 2.74570675,20.7327769 2.82595328,20.1368044 C2.90623658,19.5404577 3.21821657,19.1229028 3.13098569,18.8852995 C3.0437548,18.6477335 2.68920702,17.6164354 2.90461915,16.511099 C3.12003128,15.4056878 3.14598366,15.0098693 3.05158463,13.6526007 C2.95722235,12.2953322 3.35154418,11.6070644 4.17628593,11.1020777 C5.00106443,10.5970911 4.89890909,10.1188165 4.93735978,9.48973442 C4.97584724,8.86065229 5.11704144,8.06834178 5.11704144,8.06834178 C5.11704144,8.06834178 5.26286737,9.38962001 5.30911113,10.2748244 Z" id="Fill-39" fill="#2A2B2B" transform="translate(7.248444, 22.572346) rotate(11.000000) translate(-7.248444, -22.572346) "></path>
                    <path d="M24.4510033,12.3574502 C24.4510033,12.3574502 25.499827,11.5729267 26.0146149,11.5899237 C26.5294028,11.6068819 27.6767306,12.2624992 27.6404992,13.0700071 C27.6038904,13.877515 26.7837774,14.6106228 26.7837774,14.6106228 C26.7837774,14.6106228 27.4450006,14.3650947 27.7329648,13.7447846 C28.020929,13.1244359 29.5603863,13.2079912 29.6536067,12.3919462 C29.7464497,11.5759012 29.1942981,10.2116671 27.7559868,10.0624806 C26.3172981,9.91333268 25.8579895,11.1138942 25.8579895,11.1138942 C25.8579895,11.1138942 25.1869537,11.5641193 24.4510033,12.3574502" id="Fill-40" fill="#2A2B2B" transform="translate(27.057272, 12.330137) rotate(11.000000) translate(-27.057272, -12.330137) "></path>
                    <path d="M24.1431449,12.1787619 C24.1431449,12.1787619 25.7190876,12.7462834 26.1450782,14.1640863 C26.1450782,14.1640863 25.7580502,14.8801087 24.9294464,14.1572732 C24.1012137,13.4344763 23.4488692,13.0196899 23.3791077,13.5369027 C23.3093461,14.0541155 22.7078384,12.9875493 23.2265971,11.9704834 C23.7457268,10.953456 25.055982,9.91933824 25.055982,9.91933824 C25.055982,9.91933824 23.3052643,11.720018 24.1431449,12.1787619" id="Fill-41" fill="#2A2B2B" transform="translate(24.581317, 12.199824) rotate(11.000000) translate(-24.581317, -12.199824) "></path>
                    <path d="M21.4409847,14.3953314 C21.4409847,14.3953314 21.6811024,13.1367583 21.1685935,12.9940002 C21.1685935,12.9940002 21.3568652,14.7234531 20.5361261,16.0724863 C19.7150084,17.4215195 18.383669,17.7597871 17.9699302,17.7362135 L17.7817735,18.0151673 C17.7817735,18.0151673 17.380407,20.0422528 14.7219391,20.2420486 C14.7219391,20.2420486 14.8232279,21.4988076 13.8890071,21.6804017 C13.8890071,21.6804017 13.8941965,21.9007505 14.2723876,21.7154499 C14.2723876,21.7154499 15.500392,23.3289847 17.4432874,22.1895355 C19.3860314,21.050161 19.9743287,19.9066023 19.9743287,19.9066023 C19.9743287,19.9066023 21.2183087,19.4933371 21.8826985,18.7259087 C21.8826985,18.7259087 21.3197654,19.032103 20.975267,18.984545 C20.63039,18.936987 21.5518286,17.4007479 22.4634244,16.8502258 C23.3746417,16.2996663 23.9625605,15.9421034 23.2852993,15.8852057 C22.6080381,15.828308 22.3135108,15.422141 22.3074537,15.0739552 C22.3074537,15.0739552 23.552948,15.9586535 24.7496069,15.3560903 C24.7496069,15.3560903 23.6756046,15.3541103 22.7859658,14.5733447 C22.7859658,14.5733447 24.2215021,15.421207 25.6540099,14.855293 C25.6540099,14.855293 23.604055,14.6821341 22.7780159,13.4531727 C22.7780159,13.4531727 22.1360386,14.3267029 21.4409847,14.3953314 Z" id="Fill-42" fill="#2A2B2B" transform="translate(19.771509, 17.795376) rotate(11.000000) translate(-19.771509, -17.795376) "></path>
                    <path d="M11.8241898,22.9414444 C11.8241898,22.9414444 11.8179518,22.6286627 13.4228973,23.0085649 C15.0278427,23.388467 15.8503149,22.9813811 15.8503149,22.9813811 C15.8503149,22.9813811 15.2185746,23.9375129 13.7559692,23.4767305 C12.2933638,23.0159482 11.294148,23.2532192 11.8241898,22.9414444" id="Fill-45" fill="#EE822C" transform="translate(13.765300, 23.211311) rotate(32.000000) translate(-13.765300, -23.211311) "></path>
                    <path d="M10.9740497,18.8704039 C10.6471771,18.4273907 10.1048768,18.1198476 10.1048768,18.1198476 C10.1693739,18.1252823 10.1548995,18.0684525 10.090815,18.0324255 C9.76382987,17.8487994 9.47537577,17.5116742 9.32259156,17.40862 C9.16980734,17.3055657 8.95371681,17.0994308 8.7961115,17.0285286 C7.24086991,16.3285756 6.43786172,17.1077228 5.41760824,16.4418894 C5.03658811,16.7053075 4.68146161,16.6641557 4.21307046,16.6641557 C4.14853591,16.6641557 4.0850513,16.6609165 4.02231666,16.6558418 C4.01751688,16.6794159 4.0126796,16.70299 4.00765483,16.7272839 C3.87164853,17.3854873 3.95845707,18.0159416 4.0654022,18.4553917 C4.66128753,18.1940251 5.30569565,18.0716557 5.94631644,17.9335222 C6.04178708,17.9129354 6.13665776,17.898287 6.23077847,17.8881736 C9.02987584,17.4042386 10.2589198,18.7585799 11.1077311,19.357938 C11.4326467,19.5873226 12.0459905,19.7889633 12.4501569,19.8660725 C13.7087299,20.1061902 14.3185984,19.5028842 14.0850432,19.5482827 C13.851488,19.5936813 12.9747774,19.7491462 12.4047583,19.6325173 C11.7896477,19.5066624 11.1436849,19.100357 10.9740497,18.8704039 Z" id="Fill-78" fill="#2A2B2B" transform="translate(9.036002, 18.182322) rotate(11.000000) translate(-9.036002, -18.182322) "></path>
                    <path d="M22.5349239,4.30758139 C23.8299842,4.91279492 24.9533675,5.7705637 25.9050738,6.88088773 C26.3360144,7.39770965 26.422847,8.26345682 26.1655715,9.47812925 C26.2508487,8.26345682 26.1509568,7.57095603 25.865896,7.4006269 C24.7555719,6.29030287 23.4866302,5.33859656 22.0590707,4.54550796 L22.5349239,4.30758139 Z" id="Path-2" fill="#2A2B2B"></path>
                </g>
                <g id="paintbrush" transform="translate(0.000000, 0.000000)">
                    <path d="M31.0563701,12.0395325 C30.831995,11.8564565 30.4961936,11.6783988 30.0489659,11.5053592 C36.4914113,7.02006889 40.032697,4.89816973 40.6728229,5.1396617 C41.6330117,5.50189965 31.0563701,12.0395325 31.0563701,12.0395325 Z" id="Path-4" fill="#2A2B2B"></path>
                    <path d="M19.6748311,27.4389362 C19.4626851,27.2562293 19.2917785,27.0796717 19.1621111,26.9092637 C19.0324438,26.7388556 18.8832114,26.4663067 18.7144139,26.0916171 C6.39903824,36.3250921 0.241350428,41.6570352 0.241350428,42.0874464 C0.241350428,42.0874464 0.957170272,42.7815329 2.56763633,41.5445911 C4.50193878,40.058922 10.204337,35.357037 19.6748311,27.4389362 Z" id="Path-6" stroke="#2A2B2B" stroke-width="0.611111111" fill="#EEF0D4"></path>
                    <path d="M34.0711367,14.279175 C33.9140191,14.0755722 33.5893461,13.7661314 33.0971175,13.3508526 C37.9674403,7.10837575 40.5021932,4.4683632 40.7013762,5.43081494 C41.0001507,6.87449254 34.0711367,14.279175 34.0711367,14.279175 Z" id="Path-4" stroke="#2A2B2B" stroke-width="0.611111111" fill="#EEF0D4"></path>
                    <path d="M33.3009159,13.2916637 C32.8812162,12.9237728 32.1565608,12.4990804 31.1269495,12.0175866 C37.2349251,7.15193405 40.4036991,4.87861499 40.6332716,5.1976294 C40.9776304,5.67615101 33.3009159,13.2916637 33.3009159,13.2916637 Z" id="Path-4" fill="#EE822C"></path>
                    <path d="M39.0171788,8.4901521 C38.9546124,7.93844862 38.7183009,7.51930953 38.3082443,7.23273484 C37.8981876,6.94616015 37.5000922,6.81013722 37.1139579,6.82466605" id="Line" stroke="#2A2B2B" stroke-width="0.611111111" stroke-linecap="round"></path>
                    <path d="M40.6854448,6.18609102 C40.6541585,5.87103081 40.5359908,5.63167389 40.3309418,5.46802025 C40.1258928,5.30436662 39.9268251,5.22668827 39.7337385,5.23498523" id="Line" stroke="#2A2B2B" stroke-width="0.611111111" stroke-linecap="round"></path>
                    <path d="M16.8280099,25.0930164 L15.1636795,24.8368738 C8.39484375,31.6610628 4.5214034,35.6813199 3.54335847,36.8976452 C2.07629107,38.7221332 -0.237926578,41.9897527 0.145535201,42.1380273 C0.401176387,42.236877 5.96200127,36.5552067 16.8280099,25.0930164 Z" id="Path-8" fill="#2A2B2B"></path>
                    <path d="M18.607686,26.2929963 C18.2120669,26.0017014 17.9371816,25.8235905 17.78303,25.7586636 C17.6288785,25.6937367 17.3105384,25.4718543 16.8280099,25.0930164 C12.5273585,28.9594174 9.31769242,31.9507658 7.19901162,34.0670618 C4.0209904,37.2415057 -0.271236116,41.6062679 0.364177722,42.0387834 C0.787786947,42.327127 6.86895638,37.0785313 18.607686,26.2929963 Z" id="Path-7" fill="#EE822C"></path>
                    <path d="M39.1349146,8.3453412 C39.5379239,7.83286464 39.8270651,7.43875393 40.0023382,7.16300907 C40.1776112,6.88726421 40.366616,6.52914134 40.5693524,6.08864046 C40.4743033,5.85739521 40.3848871,5.69934258 40.3011037,5.61448257 C40.2173203,5.52962256 40.0676636,5.44553009 39.8521335,5.36220516 L37.5865598,6.82361449 C37.9845172,6.94269814 38.2903184,7.0902719 38.5039634,7.26633576 C38.7176085,7.44239963 38.9279256,7.80206811 39.1349146,8.3453412 Z" id="Path-12" fill="#EEF0D4"></path>
                    <line x1="39.8031457" y1="5.66967023" x2="37.8997331" y2="6.85930312" id="Line-3" stroke="#2A2B2B" stroke-width="0.611111111" stroke-linecap="round"></line>
                    <path d="M40.0023382,5.16818579 L40.710768,5.79377124 C42.1743483,5.72510985 43.3047333,5.4103218 44.1019231,4.8494071 C45.2977077,4.00803505 45.1947527,3.31516928 46.2468025,2.40178864 C46.9481691,1.79286821 47.8490364,1.58096961 48.9494047,1.76609283 C48.4261881,0.901812283 47.4686941,0.387144227 46.0769226,0.222088662 C43.9892655,-0.0254946841 43.1315899,0.0881932988 41.3174834,1.12907376 C40.1080791,1.82299407 39.6696973,3.16936474 40.0023382,5.16818579 Z" id="Path-13" fill="#EE822C"></path>
                    <path d="M48.4427996,1.35691753 C47.7127551,1.1012543 46.9388094,1.22885624 46.1209627,1.73972336 C44.8941926,2.50602403 44.8138022,3.69967563 43.5858854,4.49661148 C42.7672743,5.02790204 41.737489,5.29354732 40.4965297,5.29354732" id="Line-3" stroke="#EEF0D4" stroke-width="0.611111111" stroke-linecap="round"></path>
                </g>
            </g>
        </g>
    </g>
</svg>