<?xml version="1.0" encoding="UTF-8"?>
<svg width="400px" height="400px" viewBox="0 0 400 400" version="1.1" xmlns="http://www.w3.org/2000/svg" xmlns:xlink="http://www.w3.org/1999/xlink">
    <title>Gold</title>
    <g id="Gold" stroke="none" stroke-width="1" fill="none" fill-rule="evenodd">
        <g id="Logo" transform="translate(5.000000, 0.000000)" fill="#BC9859">
            <path d="M58.4737865,288.99017 C65.8294098,301.853081 76.911024,314.801436 91.0474427,327.596047 C103.376445,338.7548 117.790398,349.570298 133.25477,359.535762 C146.524951,368.087257 160.128888,375.71146 171.967774,381.38742 C183.091862,386.720681 191.513955,389.819188 195.461715,389.819188 C198.573034,389.819188 204.157475,387.99307 211.794891,384.670091 C219.476077,381.328067 228.726998,376.658569 238.386831,371.193474 C261.720639,357.992263 284.530804,341.932873 302.504113,325.181142 C315.549107,313.022767 325.797658,300.751995 332.690158,288.563799 L332.287847,289.264915 C334.623506,289.725096 336.960058,290.196935 339.297548,290.68043 C332.249773,303.723979 321.338744,317.045353 307.197905,330.338925 C294.034988,342.713169 278.35724,354.788496 261.337793,365.972492 C246.76472,375.548902 231.712668,384.119485 218.575744,390.508571 C207.078064,396.100418 198.055896,399.47189 195.115255,399.47189 C192.171344,399.47189 183.134584,396.093646 171.621014,390.492153 C158.463797,384.091006 143.392231,375.50584 128.804771,365.914683 C111.766398,354.712068 96.0778429,342.618535 82.9139398,330.227295 C68.7710041,316.914486 57.8698744,303.575856 50.8451694,290.518991 C52.6771538,290.139494 54.5076904,289.769934 56.337676,289.407529 Z M70.2317191,286.791641 C154.925151,271.674539 238.55336,271.926515 323.282303,287.547569 C316.918562,297.860724 307.900514,308.375311 296.630567,318.879282 C279.198316,335.126728 256.928566,350.805641 234.144883,363.695617 C224.735363,369.019096 215.750195,373.554452 208.357954,376.770758 C204.946356,378.255118 201.974746,379.412934 199.611589,380.185689 C198.494485,380.550983 197.535201,380.82286 196.760167,380.997083 C196.121007,381.140761 195.663673,381.20455 195.461715,381.20455 C195.16027,381.20455 194.43661,381.081963 193.427385,380.816827 C192.239543,380.504765 190.758304,380.025401 189.034404,379.391174 C185.392943,378.051472 180.822773,376.079265 175.692019,373.619409 C164.180723,368.100508 150.891176,360.652502 137.921177,352.294448 C122.829541,342.56918 108.785173,332.031 96.8282407,321.209001 C84.2815685,309.853239 74.3241759,298.454679 67.4785008,287.289782 Z M242.741281,304.885161 C238.272438,304.885161 238.272438,304.885161 235.472681,310.000102 C233.049814,314.307421 233.049814,314.307421 233.049814,319.153155 C233.049814,324.052731 233.049814,324.052731 235.257315,326.906329 C237.680182,330.136819 237.680182,330.136819 242.418232,330.136819 C247.0486,330.136819 247.0486,330.136819 249.848358,326.20639 C252.271225,322.760535 252.271225,322.760535 252.271225,317.914801 C252.271225,309.730895 252.271225,309.730895 246.240978,306.123515 C244.14116,304.885161 244.14116,304.885161 242.741281,304.885161 Z M218.08188,292.340094 C216.62816,292.340094 216.62816,292.340094 216.62816,293.309241 C216.62816,303.700648 216.62816,303.700648 216.358952,306.231198 C213.882244,304.13138 213.882244,304.13138 211.513218,304.13138 C207.528948,304.13138 207.528948,304.13138 205.05224,310.323151 C203.113946,315.222727 203.113946,315.222727 203.113946,319.960777 C203.113946,323.998889 203.113946,323.998889 205.106081,326.475598 C207.259741,329.221513 207.259741,329.221513 211.190169,329.221513 C213.828402,329.221513 213.828402,329.221513 216.358952,326.906329 C216.466635,328.144684 216.466635,328.144684 217.435782,329.08691 C218.404929,330.029136 218.404929,330.029136 219.643283,330.029136 C220.827796,330.029136 220.827796,330.029136 221.743101,328.521574 C220.61243,325.937183 220.61243,325.937183 220.61243,320.7684 C220.61243,319.906936 220.61243,319.906936 220.9624,311.72303 C221.312369,303.539124 221.312369,303.539124 221.473894,301.870038 C221.581577,301.385464 221.581577,301.385464 222.012309,298.854914 C222.335358,296.970462 222.335358,296.970462 222.335358,295.785949 C222.335358,294.063022 222.335358,294.063022 221.070083,293.201558 C219.804808,292.340094 219.804808,292.340094 218.08188,292.340094 Z M152.449106,291.370947 C147.818738,291.370947 147.818738,291.370947 144.695932,295.4629 C141.788492,299.177963 141.788492,299.177963 141.788492,303.916014 C141.788492,307.684918 141.788492,307.684918 143.995993,310.592359 C145.566897,312.670007 145.566897,312.670007 148.902461,314.986122 L149.3263,315.276568 L155.033498,318.937789 C159.125451,321.899071 159.125451,321.899071 159.125451,323.568157 C159.125451,325.560292 159.125451,325.560292 154.76429,325.560292 C149.864715,325.560292 149.864715,325.560292 147.980263,324.483462 C147.818738,324.321938 147.818738,324.321938 145.71892,322.545169 C144.480566,321.360656 144.480566,321.360656 143.026846,321.360656 C142.057699,321.360656 142.057699,321.360656 141.35776,322.060596 C140.65782,322.760535 140.65782,322.760535 140.65782,323.729682 C140.65782,326.314073 140.65782,326.314073 146.311177,328.252367 C150.887703,329.759928 150.887703,329.759928 154.279717,329.759928 C157.994779,329.759928 157.994779,329.759928 161.009903,328.306208 C164.832648,326.529439 164.832648,326.529439 164.832648,323.245108 C164.832648,320.229985 164.832648,320.229985 160.256122,316.945654 C155.948803,314.092055 155.948803,314.092055 151.695325,311.238456 C147.064957,307.577235 147.064957,307.577235 147.064957,303.700648 C147.064957,300.954732 147.064957,300.954732 148.895568,298.666469 C150.726179,296.378206 150.726179,296.378206 153.418253,296.378206 C158.263987,296.378206 158.263987,296.378206 158.263987,303.646807 C158.263987,304.268975 158.263987,304.268975 158.008738,305.422911 L157.940938,305.719704 C157.617889,307.092662 157.617889,307.092662 157.617889,307.792601 C157.617889,308.761748 157.617889,308.761748 158.506274,309.650133 C159.394658,310.538517 159.394658,310.538517 160.363805,310.538517 C162.086733,310.538517 162.086733,310.538517 162.894355,308.707907 C163.540453,307.361869 163.540453,307.361869 163.540453,305.423576 C163.540453,304.992844 163.540453,304.992844 163.325087,304.13138 C162.840513,301.170098 162.840513,301.170098 162.678989,299.662537 C161.925208,295.732108 161.925208,295.732108 159.179292,293.551528 C156.433376,291.370947 156.433376,291.370947 152.449106,291.370947 Z M186.261561,305.531259 C185.184731,305.531259 185.184731,305.531259 183.569486,306.715771 C183.623328,308.869431 183.623328,308.869431 183.461803,312.692177 C183.35412,316.999496 183.35412,316.999496 183.35412,318.722423 C183.35412,323.729682 183.35412,323.729682 184.915523,325.991024 C185.723146,327.175537 185.723146,327.175537 187.715281,328.01008 C189.707416,328.844623 189.707416,328.844623 191.268819,328.844623 C193.207113,328.844623 193.207113,328.844623 195.253089,327.498586 C195.845345,329.598404 195.845345,329.598404 197.999005,329.598404 C200.098823,329.598404 200.098823,329.598404 200.098823,328.36005 C200.098823,327.003244 200.098823,327.003244 199.981568,324.309734 L199.964219,323.918127 C199.829616,320.929924 199.829616,320.929924 199.829616,319.422363 C199.829616,317.699435 199.829616,317.699435 200.233427,314.334342 C200.637238,310.969249 200.637238,310.969249 200.637238,309.300163 C200.637238,308.061809 200.637238,308.061809 199.587329,307.254186 C198.53742,306.446564 198.53742,306.446564 197.245224,306.446564 C196.00687,306.446564 196.00687,306.446564 194.660833,307.684918 C195.248194,309.34911 195.248194,309.34911 195.301591,310.523833 L195.306931,310.753883 L195.306931,317.214862 C195.306931,320.122302 195.306931,320.122302 194.55315,322.168279 C193.422478,325.12956 193.422478,325.12956 191.107294,325.12956 C189.922782,325.12956 189.922782,325.12956 189.061318,323.514316 C188.43915,322.269979 188.43915,322.269979 188.37002,321.110725 L188.361379,320.822241 L188.361379,313.230592 C188.361379,312.447443 188.361379,312.447443 188.561616,310.95234 L188.645715,310.34006 C188.845952,308.844958 188.845952,308.844958 188.845952,308.061809 C188.845952,305.531259 188.845952,305.531259 186.261561,305.531259 Z M227.181091,305.531259 C225.67353,305.531259 225.67353,305.531259 225.67353,306.500406 C225.67353,306.769613 225.67353,306.769613 225.727371,307.03882 C225.296639,310.6462 225.296639,310.6462 225.296639,315.976507 C225.296639,319.153155 225.296639,319.153155 225.835054,325.452609 C226.158103,328.844623 226.158103,328.844623 229.550117,328.844623 C230.519264,328.844623 230.519264,328.844623 231.326886,327.606269 C230.776934,325.556446 230.776934,325.556446 230.737651,324.527964 L230.73463,324.37578 L230.73463,313.284433 C230.73463,312.315286 230.73463,312.315286 231.165362,310.538517 C231.596093,308.761748 231.596093,308.761748 231.596093,307.792601 C231.596093,306.66193 231.596093,306.66193 229.873166,306.069674 C228.527129,305.531259 228.527129,305.531259 227.181091,305.531259 Z M174.416433,297.99345 C173.662652,297.99345 173.662652,297.99345 172.828109,298.558786 C171.993566,299.124122 171.993566,299.124122 171.993566,299.824061 C171.993566,300.19326 171.993566,300.19326 172.230908,300.68113 L172.316615,300.847049 L172.316615,304.777478 C172.370457,307.415711 172.370457,307.415711 171.239785,307.415711 C171.159023,307.415711 171.159023,307.415711 171.017689,307.385425 L170.916737,307.361869 L170.593688,307.361869 C168.87076,307.361869 168.87076,307.361869 167.470881,309.354004 C167.363198,309.623212 167.363198,309.623212 167.363198,309.838578 C167.363198,310.6462 167.363198,310.6462 168.763077,311.076932 C169.117797,311.178281 169.117797,311.178281 171.332564,311.518097 L171.616676,311.561505 L171.616676,322.975901 C171.616676,324.644987 171.616676,324.644987 172.316615,326.421756 C173.231921,328.73694 173.231921,328.73694 174.577958,328.73694 C175.439422,328.73694 175.439422,328.73694 176.300885,328.063921 C177.162349,327.390903 177.162349,327.390903 177.162349,326.529439 C177.162349,325.506451 177.162349,325.506451 176.812379,323.406633 C176.491574,321.4818 176.491574,321.4818 176.46484,320.416561 L176.46241,320.229985 L176.46241,316.676447 C176.46241,312.476811 176.46241,312.476811 176.570093,311.292298 C181.038936,310.700042 181.038936,310.700042 181.038936,309.246321 C181.038936,307.166926 181.038936,307.166926 177.123937,306.693684 L176.8393,306.66193 L176.8393,306.446564 C176.785459,305.100527 176.785459,305.100527 177.18927,303.835252 C177.593081,302.569977 177.593081,302.569977 177.593081,301.277781 C177.593081,300.093268 177.593081,300.093268 176.570093,299.043359 C175.547104,297.99345 175.547104,297.99345 174.416433,297.99345 Z M243.548904,309.56937 C247.533174,309.56937 247.533174,309.56937 247.533174,317.807118 C247.533174,320.983766 247.533174,320.983766 246.510186,323.245108 C245.164148,326.20639 245.164148,326.20639 242.418232,326.20639 C238.164755,326.20639 238.164755,326.20639 238.164755,319.045472 C238.164755,315.7073 238.164755,315.7073 239.241585,313.069067 C240.695305,309.56937 240.695305,309.56937 243.548904,309.56937 Z M212.590048,308.869431 C214.259134,308.869431 214.259134,308.869431 215.282123,310.700042 C216.089745,312.207603 216.089745,312.207603 216.089745,314.038214 C216.089745,317.968642 216.089745,317.968642 215.17444,320.983766 C213.828402,325.452609 213.828402,325.452609 210.813279,325.452609 C207.905839,325.452609 207.905839,325.452609 207.905839,320.445351 C207.905839,317.107179 207.905839,317.107179 208.874986,313.661323 C210.167181,308.869431 210.167181,308.869431 212.590048,308.869431 Z M228.365604,296.916621 C227.12725,296.916621 227.12725,296.916621 226.292707,297.670401 C225.458164,298.424182 225.458164,298.424182 225.458164,299.608695 C225.458164,301.008574 225.458164,301.008574 226.669597,301.977721 C227.881031,302.946867 227.881031,302.946867 229.280909,302.946867 C230.465422,302.946867 230.465422,302.946867 231.273044,302.193086 C232.080667,301.439306 232.080667,301.439306 232.080667,300.254793 C232.080667,298.801073 232.080667,298.801073 230.949996,297.858847 C229.819324,296.916621 229.819324,296.916621 228.365604,296.916621 Z M0.0977186083,197.117048 C130.382102,165.099372 258.965407,165.099372 389.249791,197.117048 C379.369058,237.5403 372.690787,264.865755 366.186621,291.484969 C250.980283,263.542563 138.367226,263.542563 23.1608886,291.484969 C16.6567222,264.865755 9.97845095,237.5403 0.0977186083,197.117048 Z M34.2259253,212.530505 C32.3182413,212.153933 30.1272939,212.236112 27.6530173,212.777043 L27.6530173,212.777043 L16.3673427,215.244341 L28.1573844,269.173202 L38.6856311,266.871495 C43.7351752,265.767553 47.132682,263.70208 48.8782536,260.675014 C50.6238251,257.647949 50.9777528,253.761188 49.9400474,249.014617 L49.9400474,249.014617 L49.2776855,245.984906 C48.6594779,243.157161 47.7362665,240.991358 46.5080234,239.487431 C45.2797804,237.983503 43.6629301,237.001053 41.6574241,236.54005 C42.4054524,235.847425 43.0442006,235.139018 43.573688,234.414808 C44.1031754,233.690598 44.5123468,232.900112 44.8012145,232.043326 C45.0900822,231.186539 45.2377343,230.228367 45.2441754,229.168781 C45.2506165,228.109195 45.0937678,226.847237 44.7736246,225.382869 L44.7736246,225.382869 L44.3430894,223.413557 C43.9567097,221.646216 43.3442851,219.994457 42.5057972,218.45823 C41.6673094,216.922002 40.5546396,215.644149 39.1677544,214.62463 C37.7808692,213.605111 36.1336093,212.907076 34.2259253,212.530505 Z M342.808024,208.869397 L332.587647,263.117632 L340.359164,264.581787 L346.502873,231.971893 L346.655256,232.000602 L352.397396,266.849792 L359.711765,268.22782 L369.932141,213.979585 L362.160624,212.51543 L356.00256,245.201515 L355.850178,245.172806 L350.274775,210.276134 L342.808024,208.869397 Z M56.5382724,206.97878 L48.7824915,208.524123 L59.569594,262.662516 L67.3253749,261.117172 L56.5382724,206.97878 Z M327.135074,205.965848 L317.563353,260.332283 L325.351803,261.703512 L334.923524,207.337077 L327.135074,205.965848 Z M303.769406,201.958302 L281.846191,254.099152 L289.629042,255.501813 L294.022107,244.240084 L304.628149,246.151553 L304.813231,258.238377 L312.596082,259.641038 L310.255115,203.127186 L303.769406,201.958302 Z M82.2923364,201.968738 C80.5938927,201.691383 78.9359251,201.703492 77.3183839,202.005067 C75.7008426,202.306641 74.1498652,202.892808 72.6654051,203.763584 C71.1809449,204.63436 69.9041044,205.749921 68.8348453,207.110299 C67.7655862,208.470678 67.0001151,210.084903 66.5384091,211.953024 C66.0767031,213.821144 66.0549707,215.877211 66.4732112,218.121286 L66.4732112,218.121286 L71.958943,247.555054 C72.38691,249.851317 73.1502787,251.77451 74.2490719,253.32469 C75.3478652,254.87487 76.6409923,256.09179 78.1284919,256.975487 C79.6159915,257.859183 81.2089393,258.4397 82.9073829,258.717056 C84.6058266,258.994411 86.2637942,258.982302 87.8813354,258.680727 C89.4988767,258.379153 91.0498541,257.792986 92.5343143,256.92221 C94.0187744,256.051434 95.2956149,254.935873 96.364874,253.575495 C97.4341331,252.215116 98.2020358,250.613937 98.6686051,248.771911 C99.1351743,246.929885 99.1544751,244.860771 98.7265081,242.564508 L98.7265081,242.564508 L95.4584126,225.029497 L81.1354172,227.699877 L82.4484913,234.745194 L88.7881778,233.563223 L90.7431992,244.052917 C91.1030806,245.983865 90.8333002,247.505674 89.93385,248.618388 C89.0343997,249.731103 87.8541898,250.423645 86.3931848,250.696035 C84.9321798,250.968425 83.5817583,250.747694 82.3418797,250.033836 C81.1020012,249.319978 80.3021332,247.997594 79.9422519,246.066646 L79.9422519,246.066646 L74.4565201,216.632877 C74.0966388,214.701929 74.3664191,213.18012 75.2658694,212.067406 C76.1653196,210.954691 77.3455295,210.262149 78.8065345,209.989759 C80.2675395,209.717369 81.6179611,209.9381 82.8578396,210.651958 C84.0977181,211.365816 84.8975861,212.6882 85.2574675,214.619148 L85.2574675,214.619148 L85.7826971,217.437275 L93.766006,215.948866 L93.2407764,213.13074 C92.8225359,210.886664 92.0615988,208.976519 90.9579422,207.400244 C89.8542857,205.82397 88.5587271,204.594004 87.0712274,203.710307 C85.5837278,202.826611 83.99078,202.246094 82.2923364,201.968738 Z M267.421859,196.986528 L266.558312,204.379311 L275.645274,205.440754 L270.104182,252.877778 L277.959013,253.795296 L283.500106,206.358272 L292.587069,207.419715 L293.450615,200.026932 L267.421859,196.986528 Z M150.912722,193.512115 L143.272653,194.250244 L136.051097,224.313505 L135.896752,224.328417 L122.976308,196.211134 L115.413412,196.941808 L120.721981,251.888566 L128.593567,251.128069 L125.365182,217.712414 L125.519527,217.697503 L135.51826,240.566675 L139.454053,240.186427 L144.966975,215.818627 L145.12132,215.803715 L148.349705,249.21937 L156.221291,248.458873 L150.912722,193.512115 Z M234.301836,193.650513 L229.909473,248.678091 L237.792637,249.307334 L240.43299,216.228959 L240.587562,216.241297 L250.003813,250.282044 L257.423262,250.874272 L261.815625,195.846695 L253.932461,195.217452 L251.285938,228.373113 L251.131367,228.360775 L241.875857,194.25508 L234.301836,193.650513 Z M178.831425,192.663561 C177.223102,192.192522 175.6193,192.006028 174.019972,192.104073 C172.420644,192.202119 170.851632,192.58312 169.31289,193.247088 C167.774148,193.911055 166.406804,194.836375 165.210818,196.023074 C164.014832,197.209773 163.082105,198.678077 162.412607,200.428029 C161.74311,202.177981 161.476365,204.162139 161.612363,206.380562 L161.612363,206.380562 L163.396151,236.340069 C163.535313,238.610083 164.043215,240.559698 164.919873,242.188971 C165.796531,243.818245 166.900836,245.148724 168.232821,246.180447 C169.564805,247.212171 171.034937,247.963542 172.64326,248.434581 C174.251583,248.90562 175.855384,249.092115 177.454712,248.994069 C179.054041,248.896023 180.623052,248.515022 182.161795,247.851055 C183.700537,247.187087 185.06788,246.261767 186.263866,245.075068 C187.459852,243.888369 188.39337,242.432963 189.064449,240.708807 C189.735528,238.98465 190.001483,236.987595 189.862321,234.717581 L189.862321,234.717581 L188.078533,204.758074 C187.942534,202.539651 187.435423,200.602934 186.557183,198.947864 C185.678944,197.292795 184.573848,195.949419 183.241864,194.917695 C181.909879,193.885971 180.439748,193.134601 178.831425,192.663561 Z M197.545343,192.479858 L197.494012,235.931184 C197.491842,237.767904 197.830963,239.473807 198.511386,241.048944 C199.191808,242.624081 200.121745,244.002701 201.301224,245.184844 C202.480702,246.366987 203.857267,247.30008 205.430959,247.98415 C207.004651,248.66822 208.683688,249.011303 210.468119,249.013411 C212.25255,249.015518 213.932392,248.676402 215.507696,247.996051 C217.083,247.315701 218.461765,246.385862 219.644034,245.206509 C220.826302,244.027155 221.759494,242.650736 222.443636,241.077211 C223.127778,239.503685 223.470929,237.798588 223.473099,235.961868 L223.473099,235.961868 L223.52443,192.510542 L215.49453,192.501058 L215.444129,235.165222 C215.441773,237.159375 214.967695,238.628171 214.02188,239.571654 C213.076066,240.515137 211.894652,240.986035 210.477604,240.984361 C209.060556,240.982688 207.880258,240.509001 206.936675,239.563286 C205.993092,238.617571 205.522485,237.14766 205.524841,235.153507 L205.524841,235.153507 L205.575242,192.489342 L197.545343,192.479858 Z M195.115255,0.077439881 L348.479503,39.6742193 L348.47883,182.925492 C346.578649,182.557476 344.678744,182.196261 342.779106,181.841849 L342.779448,46.3297115 L195.517226,8.48514588 L48.2528778,46.3296992 L48.2531267,181.529304 C46.0861869,181.929031 43.9189046,182.337611 41.7512645,182.755043 L41.751007,39.6742193 L195.115255,0.077439881 Z M195.51721,17.3563803 L334.163955,52.9868751 L334.163826,180.280832 C330.65484,179.66391 327.14671,179.070216 323.639373,178.499751 C305.70085,147.446831 298.315927,133.956593 279.319035,111.633825 C274.916955,116.176605 274.428074,121.453512 274.725279,122.786418 C275.022484,124.119324 263.353957,131.766641 263.353957,131.766641 C263.353957,131.766641 245.933005,106.535614 238.554567,98.1368744 C231.17613,89.7381347 211.991331,61.1697251 211.991331,61.1697251 L211.991331,61.1697251 L196.381607,40.9263462 L171.28932,87.5022927 L167.774547,96.4251859 L158.666721,108.503237 L141.84664,91.2757879 C103.240001,125.407589 72.0851018,168.383919 64.8673653,178.642102 C62.2034051,179.073029 59.5361723,179.523002 56.8684504,179.986403 L56.8683706,52.9868873 L195.51721,17.3563803 Z M105.019063,144.639112 C105.604858,144.635017 104.258821,157.001762 104.258821,157.001762 L104.258821,157.001762 L109.994016,150.337233 L105.522073,173.018344 C92.6119152,174.472722 79.6943153,176.242735 66.7660427,178.328384 C90.3227204,160.576444 104.462319,144.643018 105.019063,144.639112 Z M198.621413,59.3659002 L208.629468,74.9717497 L236.254459,104.279297 L259.475216,137.3931 C257.112651,151.313878 268.387059,170.830404 268.387059,170.830404 C271.878141,162.859586 268.387059,154.487463 268.387059,154.487463 C270.818174,157.00651 274.366725,161.336793 274.664327,161.700767 L274.684359,161.725285 C274.145945,160.185585 274.916955,155.765087 274.916955,155.765087 L274.916955,155.765087 L288.037048,166.485663 L298.801039,166.626939 L288.605615,156.770397 L295.671771,159.587722 C289.230176,152.571027 281.634219,143.201785 281.634219,143.201785 L281.634219,143.201785 L278.541564,130.310886 L281.634219,126.361308 C297.376104,156.781903 313.958294,172.283292 321.234651,178.113395 C279.333068,171.423162 237.542535,168.050084 195.752949,167.992995 L197.423978,153.897791 L201.602077,148.130056 L205.579886,165.095428 L220.431522,138.060577 L228.746802,156.098826 L225.242798,131.625365 C225.242798,131.625365 233.672221,134.4345 238.013999,138.154761 C242.355776,141.875021 255.583553,156.567697 255.583553,156.567697 L255.583553,156.567697 L248.241728,138.521258 L221.16592,114.219785 L220.750264,126.361308 L213.753024,134.356696 L212.368221,122.890839 L205.114696,125.370331 L204.395374,105.511877 L197.635036,110.196498 L189.571735,95.9071749 L195.819502,68.1209005 L198.621413,59.3659002 Z M159.935227,134.526636 L166.032237,140.001582 L165.806102,148.609165 L159.323844,168.783067 C142.494735,169.535927 125.660598,170.826335 108.814255,172.654292 C109.662659,171.523905 110.592492,169.949529 111.536036,167.763287 C114.882823,160.013597 122.123426,151.354828 122.657534,151.129605 C123.193795,150.904383 129.249886,159.688048 129.249886,159.688048 L129.249886,159.688048 L133.13078,151.715183 C133.13078,151.715183 136.421572,166.479521 136.813538,167.357887 C137.205504,168.240349 141.413755,152.978475 141.413755,152.978475 L141.413755,152.978475 L146.946506,169.051148 C146.866821,152.057111 155.322088,141.844309 155.322088,141.844309 L155.322088,141.844309 L162.879279,145.982255 L159.935227,134.526636 Z M190.741172,148.428987 L193.730452,158.338763 L193.729823,167.992822 C183.267911,168.005322 172.805947,168.225649 162.342205,168.653801 L167.964069,157.421494 L175.723705,165.091333 L190.741172,148.428987 Z" id="Combined-Shape" fill-rule="nonzero"></path>
            <path d="M33.8270878,241.743904 C35.2409601,241.434801 36.4157279,241.363149 37.3514263,241.528947 C38.2871247,241.694745 39.0693316,242.066045 39.6980705,242.642859 C40.3268094,243.219673 40.8273086,243.996464 41.1995834,244.973254 C41.5718581,245.950045 41.9070226,247.120111 42.2050869,248.483488 C42.4921119,249.796369 42.7065593,251.019281 42.8484356,252.152259 C42.990312,253.285238 42.9223371,254.305353 42.6445088,255.212635 C42.3666806,256.119916 41.8356167,256.89737 41.0513013,257.545019 C40.2669859,258.192668 39.0921664,258.687596 37.5268078,259.029818 L37.5268078,259.029818 L34.1941254,259.758416 L30.4186626,242.489061 Z M174.503872,199.997492 C175.948426,199.908935 177.227169,200.283656 178.340137,201.121666 C179.453106,201.959676 180.068092,203.333098 180.185114,205.241974 L180.185114,205.241974 L181.968902,234.841644 C182.085924,236.75052 181.643306,238.188777 180.641034,239.156461 C179.638762,240.124144 178.415367,240.652256 176.970813,240.740813 C175.526258,240.829371 174.247516,240.45465 173.134547,239.61664 C172.021578,238.77863 171.406592,237.405208 171.28957,235.496332 L171.28957,235.496332 L169.505782,205.896662 C169.38876,203.987786 169.831378,202.549528 170.83365,201.581845 C171.835922,200.614162 173.059317,200.08605 174.503872,199.997492 Z M303.646378,217.964478 L303.79985,217.986638 L304.777932,238.338515 L296.95087,237.208326 L303.646378,217.964478 Z M28.8639719,220.131146 C31.4392394,219.568135 33.351648,219.784938 34.6012552,220.78156 C35.8508624,221.778182 36.7405987,223.488357 37.2704908,225.912139 C37.8114224,228.386415 37.7808062,230.363936 37.1786412,231.844759 C36.5764762,233.325583 34.9877838,234.347484 32.4125163,234.910495 L32.4125163,234.910495 L28.9283483,235.672211 L25.682775,220.826626 Z M143.007463,98.2556279 L157.387447,112.839788 L152.974599,119.309807 L150.043468,114.033465 C150.043468,114.033465 150.075773,131.690884 142.740409,141.676416 L139.636986,122.495677 L130.051047,128.525489 L130.875899,114.512574 L143.007463,98.2556279" id="Fillers"></path>
        </g>
    </g>
</svg>