<svg width="400" height="300" viewBox="0 0 800 600" fill="none" xmlns="http://www.w3.org/2000/svg" data-reactroot="">
<path opacity="0.2" d="M722.055 492.757H667.506C644.282 488.544 626.675 468.345 626.675 443.933C626.675 430.215 632.184 417.793 641.257 408.827C649.575 400.51 660.809 395.217 673.231 394.353C672.151 394.245 688.785 394.245 688.785 394.245C689.542 394.245 690.19 394.245 690.946 394.137H734.261C761.698 394.137 783.949 371.885 783.949 344.448C783.949 317.012 761.698 294.76 734.261 294.76H679.712C656.488 290.547 638.881 270.348 638.881 245.936C638.881 232.218 644.39 219.796 653.464 210.83C661.781 202.513 673.015 197.22 685.437 196.356C684.357 196.248 683.385 196.248 682.304 196.248H700.991C728.428 196.248 750.68 173.996 750.68 146.559C750.68 119.123 728.428 96.8711 700.991 96.8711H421.333C393.896 96.8711 371.644 119.123 371.644 146.559C371.644 173.996 393.896 196.248 421.333 196.248H459.463C486.9 196.248 509.151 218.499 509.151 245.936C509.151 259.654 503.642 272.076 494.569 281.042C487.548 288.063 478.474 292.924 468.429 294.76H201.408C173.971 294.76 151.72 317.012 151.72 344.448C151.72 371.885 173.971 394.137 201.408 394.137H406.966C407.722 394.137 408.371 394.245 409.127 394.245H447.257C474.694 394.245 496.945 416.496 496.945 443.933C496.945 457.651 491.436 470.073 482.363 479.039C475.342 486.06 466.268 490.921 456.223 492.757H59.6883C32.2517 492.757 10 515.009 10 542.446C10 569.882 32.2517 592.134 59.6883 592.134H722.055C749.492 592.134 771.743 569.882 771.743 542.446C771.635 515.009 749.492 492.757 722.055 492.757Z" fill="#eed7a5"></path>
<path d="M240.727 168.055H224.524C224.524 156.281 214.91 146.668 203.136 146.668C191.362 146.668 181.749 156.281 181.749 168.055H165.546C165.546 147.316 182.397 130.465 203.136 130.465C223.876 130.465 240.727 147.316 240.727 168.055Z" fill="#db6d00"></path>
<path d="M516.607 179.506V317.769H401.784C394.115 317.769 387.958 311.612 387.958 303.943V193.332C387.958 185.663 394.115 179.506 401.784 179.506H516.607Z" fill="#1a2837"></path>
<path d="M516.607 276.18V317.767H401.784C394.115 317.767 387.958 311.61 387.958 303.941V276.072H516.607V276.18Z" fill="#db6d00"></path>
<path fill-rule="evenodd" clip-rule="evenodd" d="M412.063 238.699C412.063 238.233 412.441 237.855 412.907 237.855H440.668C441.133 237.855 441.511 238.233 441.511 238.699C441.511 239.165 441.133 239.542 440.668 239.542H412.907C412.441 239.542 412.063 239.165 412.063 238.699Z" fill="#eed7a5"></path>
<path fill-rule="evenodd" clip-rule="evenodd" d="M412.063 247.34C412.063 246.874 412.441 246.496 412.907 246.496H502.67C503.136 246.496 503.513 246.874 503.513 247.34C503.513 247.805 503.136 248.183 502.67 248.183H412.907C412.441 248.183 412.063 247.805 412.063 247.34Z" fill="#eed7a5"></path>
<path fill-rule="evenodd" clip-rule="evenodd" d="M412.063 253.39C412.063 252.925 412.441 252.547 412.907 252.547H502.67C503.136 252.547 503.513 252.925 503.513 253.39C503.513 253.856 503.136 254.234 502.67 254.234H412.907C412.441 254.234 412.063 253.856 412.063 253.39Z" fill="#eed7a5"></path>
<path fill-rule="evenodd" clip-rule="evenodd" d="M412.063 259.437C412.063 258.971 412.441 258.594 412.907 258.594H502.67C503.136 258.594 503.513 258.971 503.513 259.437C503.513 259.903 503.136 260.281 502.67 260.281H412.907C412.441 260.281 412.063 259.903 412.063 259.437Z" fill="#eed7a5"></path>
<path d="M428.138 225.304H419.173C418.309 225.304 417.661 224.655 417.661 223.791C417.661 221.955 419.173 220.551 420.901 220.551H426.41C428.246 220.551 429.651 222.063 429.651 223.791C429.651 224.655 429.002 225.304 428.138 225.304Z" fill="#eed7a5"></path>
<path d="M423.601 219.148C425.331 219.148 426.734 217.745 426.734 216.015C426.734 214.285 425.331 212.883 423.601 212.883C421.871 212.883 420.469 214.285 420.469 216.015C420.469 217.745 421.871 219.148 423.601 219.148Z" fill="#eed7a5"></path>
<path fill-rule="evenodd" clip-rule="evenodd" d="M423.602 208.826C417.841 208.826 413.171 213.496 413.171 219.256C413.171 225.017 417.841 229.687 423.602 229.687C429.362 229.687 434.032 225.017 434.032 219.256C434.032 213.496 429.362 208.826 423.602 208.826ZM411.781 219.256C411.781 212.728 417.073 207.436 423.602 207.436C430.13 207.436 435.423 212.728 435.423 219.256C435.423 225.785 430.13 231.077 423.602 231.077C417.073 231.077 411.781 225.785 411.781 219.256Z" fill="#eed7a5"></path>
<path d="M474.154 584.248C474.37 584.356 474.694 584.464 474.911 584.68C475.235 584.896 475.559 585.004 475.883 585.004C476.207 585.112 476.639 585.112 476.963 585.004C477.287 584.896 477.611 584.788 477.935 584.464C478.259 584.248 478.475 584.032 478.691 583.708C478.799 583.492 478.907 583.276 479.015 583.059C479.123 582.519 479.123 582.087 479.015 581.547C478.907 581.331 478.799 581.115 478.691 580.899C478.475 580.467 478.151 580.143 477.719 579.927C477.503 579.819 477.179 579.711 476.963 579.495C476.639 579.279 476.315 579.171 475.991 579.171C475.667 579.063 475.235 579.063 474.911 579.171C474.586 579.279 474.262 579.387 473.938 579.711C473.614 579.927 473.398 580.143 473.182 580.467C473.074 580.683 472.966 580.899 472.858 581.115C472.75 581.655 472.75 582.087 472.858 582.627C472.966 582.843 473.074 583.059 473.182 583.276C473.506 583.708 473.83 584.032 474.154 584.248Z" fill="#1a2837"></path>
<path d="M501.7 572.042C505.264 572.042 505.264 566.533 501.7 566.533C498.135 566.533 498.135 572.042 501.7 572.042Z" fill="#1a2837"></path>
<path d="M541.774 584.464C545.339 584.464 545.339 578.955 541.774 578.955C538.209 578.955 538.209 584.464 541.774 584.464Z" fill="#1a2837"></path>
<path d="M629.592 579.171C633.156 579.171 633.156 573.662 629.592 573.662C626.027 573.77 626.027 579.171 629.592 579.171Z" fill="#1a2837"></path>
<path d="M647.739 587.489C651.303 587.489 651.303 581.98 647.739 581.98C644.282 581.98 644.282 587.489 647.739 587.489Z" fill="#1a2837"></path>
<path d="M607.664 580.685C611.229 580.685 611.229 575.176 607.664 575.176C604.208 575.176 604.208 580.685 607.664 580.685Z" fill="#1a2837"></path>
<path d="M633.697 559.62C637.262 559.62 637.262 554.111 633.697 554.111C630.133 554.219 630.133 559.62 633.697 559.62Z" fill="#1a2837"></path>
<path d="M656.596 549.79C660.161 549.79 660.161 544.281 656.596 544.281C653.031 544.281 653.031 549.79 656.596 549.79Z" fill="#1a2837"></path>
<path d="M659.621 568.261C663.186 568.261 663.186 562.752 659.621 562.752C656.057 562.86 656.057 568.261 659.621 568.261Z" fill="#1a2837"></path>
<path d="M556.249 574.202C559.814 574.202 559.814 568.693 556.249 568.693C552.684 568.693 552.684 574.202 556.249 574.202Z" fill="#1a2837"></path>
<path d="M590.49 569.234C594.054 569.234 594.054 563.725 590.49 563.725C586.925 563.833 586.925 569.234 590.49 569.234Z" fill="#1a2837"></path>
<path d="M582.496 585.978C586.061 585.978 586.061 580.469 582.496 580.469C578.931 580.577 578.931 585.978 582.496 585.978Z" fill="#1a2837"></path>
<path d="M677.876 582.521C681.441 582.521 681.441 577.012 677.876 577.012C674.419 577.12 674.419 582.521 677.876 582.521Z" fill="#1a2837"></path>
<path d="M683.602 557.784C687.166 557.784 687.166 552.275 683.602 552.275C680.145 552.275 680.145 557.784 683.602 557.784Z" fill="#1a2837"></path>
<path d="M709.957 561.997C713.522 561.997 713.522 556.488 709.957 556.488C706.393 556.488 706.393 561.997 709.957 561.997Z" fill="#1a2837"></path>
<path d="M731.021 547.306C734.585 547.306 734.585 541.797 731.021 541.797C727.456 541.797 727.456 547.306 731.021 547.306Z" fill="#1a2837"></path>
<path d="M754.786 545.038C758.351 545.038 758.351 539.529 754.786 539.529C751.329 539.637 751.329 545.038 754.786 545.038Z" fill="#1a2837"></path>
<path d="M709.957 579.171C713.522 579.171 713.522 573.662 709.957 573.662C706.393 573.662 706.393 579.171 709.957 579.171Z" fill="#1a2837"></path>
<path d="M732.859 582.196C736.423 582.196 736.423 576.688 732.859 576.688C729.294 576.688 729.294 582.196 732.859 582.196Z" fill="#1a2837"></path>
<path d="M704.611 542.284C708.176 542.284 708.176 536.775 704.611 536.775C701.047 536.883 701.047 542.284 704.611 542.284Z" fill="#1a2837"></path>
<path d="M748.844 530.132C752.408 530.132 752.408 524.623 748.844 524.623C745.387 524.731 745.279 530.132 748.844 530.132Z" fill="#1a2837"></path>
<path d="M746.251 561.241C749.816 561.241 749.816 555.732 746.251 555.732C742.686 555.732 742.686 561.241 746.251 561.241Z" fill="#1a2837"></path>
<path d="M498.999 587.489C502.564 587.489 502.564 581.98 498.999 581.98C495.435 581.98 495.435 587.489 498.999 587.489Z" fill="#1a2837"></path>
<path d="M525.354 582.521C528.919 582.521 528.919 577.012 525.354 577.012C521.79 577.12 521.79 582.521 525.354 582.521Z" fill="#1a2837"></path>
<path opacity="0.15" d="M790 222.28V329.866C790 333.539 787.083 336.456 783.411 336.456H562.19C558.517 336.456 555.601 333.539 555.601 329.866V222.28C555.601 218.608 558.517 215.691 562.19 215.691H783.411C787.083 215.691 790 218.716 790 222.28Z" fill="#1a2837"></path>
<path d="M503.516 530.644H292.168V369.697C292.168 354.682 303.449 346.797 317.326 346.797H478.258C492.135 346.797 503.416 354.682 503.416 369.697V530.644H503.516Z" fill="#1a2837"></path>
<path d="M503.516 530.644H292.168V369.697C292.168 354.682 303.449 346.797 317.326 346.797H478.258C492.135 346.797 503.417 354.682 503.417 369.697V530.644H503.516Z" fill="black" fill-opacity="0.15"></path>
<path d="M679.067 314.095H664.377C661.568 314.095 659.408 311.826 659.408 309.126V181.989C659.408 181.016 660.272 180.152 661.244 180.152H682.308C683.28 180.152 684.144 181.016 684.144 181.989V309.126C684.144 311.934 681.876 314.095 679.067 314.095Z" fill="#1a2837"></path>
<path d="M703.802 314.095H689.111C686.303 314.095 684.142 311.826 684.142 309.126V203.592C684.142 202.62 685.006 201.756 685.979 201.756H707.042C708.014 201.756 708.878 202.62 708.878 203.592V309.126C708.878 311.934 706.61 314.095 703.802 314.095Z" fill="#1a2837"></path>
<path d="M654.328 314.095H639.638C636.83 314.095 634.669 311.827 634.669 309.127V232.11C634.669 231.138 635.533 230.273 636.506 230.273H657.569C658.541 230.273 659.405 231.138 659.405 232.11V309.127C659.405 311.935 657.137 314.095 654.328 314.095Z" fill="#1a2837"></path>
<path d="M572.02 312.691L561.65 302.321C559.706 300.377 559.706 297.136 561.65 295.192L616.091 240.751C616.847 239.995 618.035 239.995 618.683 240.751L633.59 255.657C634.346 256.413 634.346 257.602 633.59 258.25L579.149 312.691C577.204 314.635 573.964 314.635 572.02 312.691Z" fill="#db6d00"></path>
<path d="M728.536 314.095H713.846C711.037 314.095 708.877 311.827 708.877 309.127V232.11C708.877 231.138 709.741 230.273 710.713 230.273H731.776C732.749 230.273 733.613 231.138 733.613 232.11V309.127C733.613 311.935 731.344 314.095 728.536 314.095Z" fill="#1a2837"></path>
<path fill-rule="evenodd" clip-rule="evenodd" d="M684.14 296.992C684.876 296.992 685.472 297.588 685.472 298.324V311.718C685.472 312.453 684.876 313.049 684.14 313.049C683.405 313.049 682.809 312.453 682.809 311.718V298.324C682.809 297.588 683.405 296.992 684.14 296.992Z" fill="#eed7a5"></path>
<path fill-rule="evenodd" clip-rule="evenodd" d="M684.14 234.668C684.876 234.668 685.472 235.264 685.472 235.999V284.067C685.472 284.803 684.876 285.399 684.14 285.399C683.405 285.399 682.809 284.803 682.809 284.067V235.999C682.809 235.264 683.405 234.668 684.14 234.668Z" fill="#eed7a5"></path>
<path fill-rule="evenodd" clip-rule="evenodd" d="M659.406 274.309C660.141 274.309 660.737 274.905 660.737 275.64V311.718C660.737 312.453 660.141 313.05 659.406 313.05C658.671 313.05 658.074 312.453 658.074 311.718V275.64C658.074 274.905 658.671 274.309 659.406 274.309Z" fill="#eed7a5"></path>
<path fill-rule="evenodd" clip-rule="evenodd" d="M709.85 220.301C710.585 220.301 711.181 220.897 711.181 221.632V257.818C711.181 258.554 710.585 259.15 709.85 259.15C709.114 259.15 708.518 258.554 708.518 257.818V221.632C708.518 220.897 709.114 220.301 709.85 220.301Z" fill="#eed7a5"></path>
<path fill-rule="evenodd" clip-rule="evenodd" d="M684.14 202.262C684.876 202.262 685.472 202.858 685.472 203.593V221.632C685.472 222.368 684.876 222.964 684.14 222.964C683.405 222.964 682.809 222.368 682.809 221.632V203.593C682.809 202.858 683.405 202.262 684.14 202.262Z" fill="#eed7a5"></path>
<path fill-rule="evenodd" clip-rule="evenodd" d="M551.514 321.548C551.514 320.813 552.111 320.217 552.846 320.217H765.965C766.701 320.217 767.297 320.813 767.297 321.548C767.297 322.284 766.701 322.88 765.965 322.88H552.846C552.111 322.88 551.514 322.284 551.514 321.548Z" fill="#eed7a5"></path>
<path fill-rule="evenodd" clip-rule="evenodd" d="M294.415 82.6361C289.936 82.6361 286.229 86.2842 286.229 90.8214V516.305C286.229 520.783 289.877 524.49 294.415 524.49H501.269C505.895 524.49 509.523 520.819 509.455 516.373L509.454 516.339V90.8214C509.454 86.3427 505.806 82.6361 501.269 82.6361H294.415ZM277.324 90.8214C277.324 81.3163 285.067 73.7305 294.415 73.7305H501.269C510.774 73.7305 518.36 81.4738 518.36 90.8214V516.273C518.487 525.852 510.674 533.395 501.269 533.395H294.415C284.909 533.395 277.324 525.652 277.324 516.305V90.8214Z" fill="#1a2837"></path>
<path d="M420.254 561.564H375.427C371.646 561.564 368.73 558.54 368.73 554.867C368.73 551.086 371.754 548.17 375.427 548.17H420.254C424.035 548.17 426.951 551.194 426.951 554.867C427.059 558.54 424.035 561.564 420.254 561.564Z" fill="#1a2837"></path>
<path d="M532.701 514.902H263.088C255.851 514.902 249.91 508.961 249.91 501.723V472.991C249.91 465.753 255.851 459.812 263.088 459.812H532.701C539.938 459.812 545.879 465.753 545.879 472.991V501.723C545.879 508.961 539.938 514.902 532.701 514.902Z" fill="#eed7a5"></path>
<path d="M310.616 492.218H276.698C274.43 492.218 272.594 490.382 272.594 488.113V484.441C272.594 482.172 274.43 480.336 276.698 480.336H310.616C312.884 480.336 314.721 482.172 314.721 484.441V488.113C314.721 490.382 312.884 492.218 310.616 492.218Z" fill="#db6d00"></path>
<path d="M379.747 492.218H345.83C343.561 492.218 341.725 490.382 341.725 488.113V484.441C341.725 482.172 343.561 480.336 345.83 480.336H379.747C382.016 480.336 383.852 482.172 383.852 484.441V488.113C383.852 490.382 382.016 492.218 379.747 492.218Z" fill="#1a2837"></path>
<path d="M448.879 492.218H414.961C412.693 492.218 410.857 490.382 410.857 488.113V484.441C410.857 482.172 412.693 480.336 414.961 480.336H448.879C451.147 480.336 452.984 482.172 452.984 484.441V488.113C452.984 490.382 451.147 492.218 448.879 492.218Z" fill="#1a2837"></path>
<path d="M518.011 492.218H484.093C481.825 492.218 479.988 490.382 479.988 488.113V484.441C479.988 482.172 481.825 480.336 484.093 480.336H518.011C520.279 480.336 522.115 482.172 522.115 484.441V488.113C522.115 490.382 520.279 492.218 518.011 492.218Z" fill="#1a2837"></path>
<path fill-rule="evenodd" clip-rule="evenodd" d="M282.53 499.777C282.53 499.181 283.014 498.697 283.611 498.697H303.702C304.298 498.697 304.782 499.181 304.782 499.777C304.782 500.374 304.298 500.858 303.702 500.858H283.611C283.014 500.858 282.53 500.374 282.53 499.777Z" fill="#1a2837"></path>
<path opacity="0.78" fill-rule="evenodd" clip-rule="evenodd" d="M307.482 411.356C303.425 411.356 300.073 414.708 300.073 418.766C300.073 422.823 303.425 426.175 307.482 426.175H362.896C366.946 426.175 370.2 422.938 370.305 418.76C370.302 414.704 366.952 411.356 362.896 411.356H307.482ZM299.121 418.766C299.121 414.182 302.899 410.404 307.482 410.404H362.896C367.479 410.404 371.257 414.182 371.257 418.766V418.777L371.257 418.777C371.143 423.453 367.485 427.127 362.896 427.127H307.482C302.899 427.127 299.121 423.349 299.121 418.766Z" fill="#db6d00"></path>
<path opacity="0.5" d="M356.631 422.005H313.748C312.343 422.005 311.155 420.817 311.155 419.413V418.333C311.155 416.928 312.343 415.74 313.748 415.74H356.631C358.035 415.74 359.223 416.928 359.223 418.333V419.413C359.223 420.817 358.035 422.005 356.631 422.005Z" fill="#db6d00"></path>
<path opacity="0.78" fill-rule="evenodd" clip-rule="evenodd" d="M435.053 411.356C430.996 411.356 427.644 414.708 427.644 418.766C427.644 422.823 430.996 426.175 435.053 426.175H490.467C494.633 426.175 497.876 422.931 497.876 418.766C497.876 414.708 494.525 411.356 490.467 411.356H435.053ZM426.692 418.766C426.692 414.182 430.47 410.404 435.053 410.404H490.467C495.05 410.404 498.828 414.182 498.828 418.766C498.828 423.457 495.158 427.127 490.467 427.127H435.053C430.47 427.127 426.692 423.349 426.692 418.766Z" fill="#db6d00"></path>
<path opacity="0.5" d="M484.202 422.005H441.319C439.914 422.005 438.726 420.817 438.726 419.413V418.333C438.726 416.928 439.914 415.74 441.319 415.74H484.202C485.606 415.74 486.794 416.928 486.794 418.333V419.413C486.902 420.817 485.714 422.005 484.202 422.005Z" fill="#db6d00"></path>
<path opacity="0.78" fill-rule="evenodd" clip-rule="evenodd" d="M385.905 411.356C381.847 411.356 378.496 414.708 378.496 418.766C378.496 422.823 381.847 426.175 385.905 426.175H412.154C416.203 426.175 419.458 422.938 419.563 418.76C419.56 414.704 416.21 411.356 412.154 411.356H385.905ZM377.544 418.766C377.544 414.182 381.322 410.404 385.905 410.404H412.154C416.737 410.404 420.515 414.182 420.515 418.766V418.777L420.515 418.777C420.401 423.453 416.743 427.127 412.154 427.127H385.905C381.322 427.127 377.544 423.349 377.544 418.766Z" fill="#db6d00"></path>
<path opacity="0.5" d="M405.889 422.005H392.17C390.766 422.005 389.578 420.817 389.578 419.413V418.333C389.578 416.928 390.766 415.74 392.17 415.74H405.889C407.293 415.74 408.481 416.928 408.481 418.333V419.413C408.481 420.817 407.293 422.005 405.889 422.005Z" fill="#db6d00"></path>
<path opacity="0.78" fill-rule="evenodd" clip-rule="evenodd" d="M342.804 435.12C338.746 435.12 335.394 438.471 335.394 442.529C335.394 446.587 338.746 449.939 342.804 449.939H376.397C380.559 449.939 383.807 446.591 383.807 442.529C383.807 438.471 380.455 435.12 376.397 435.12H342.804ZM334.442 442.529C334.442 437.946 338.22 434.168 342.804 434.168H376.397C380.981 434.168 384.758 437.946 384.758 442.529C384.758 447.108 381.093 450.89 376.397 450.89H342.804C338.22 450.89 334.442 447.113 334.442 442.529Z" fill="#db6d00"></path>
<path opacity="0.5" d="M370.132 445.769H349.069C347.664 445.769 346.476 444.581 346.476 443.177V442.096C346.476 440.692 347.664 439.504 349.069 439.504H370.132C371.536 439.504 372.725 440.692 372.725 442.096V443.177C372.833 444.581 371.644 445.769 370.132 445.769Z" fill="#db6d00"></path>
<path opacity="0.78" fill-rule="evenodd" clip-rule="evenodd" d="M448.661 435.12C444.603 435.12 441.252 438.471 441.252 442.529C441.252 446.587 444.603 449.939 448.661 449.939H482.255C486.3 449.939 489.559 446.599 489.664 442.523C489.661 438.468 486.311 435.12 482.255 435.12H448.661ZM440.3 442.529C440.3 437.946 444.078 434.168 448.661 434.168H482.255C486.838 434.168 490.616 437.946 490.616 442.529V442.541L490.616 442.541C490.502 447.104 486.849 450.89 482.255 450.89H448.661C444.078 450.89 440.3 447.113 440.3 442.529Z" fill="#db6d00"></path>
<path opacity="0.5" d="M475.99 445.769H454.926C453.522 445.769 452.334 444.581 452.334 443.177V442.096C452.334 440.692 453.522 439.504 454.926 439.504H475.99C477.394 439.504 478.582 440.692 478.582 442.096V443.177C478.582 444.581 477.394 445.769 475.99 445.769Z" fill="#db6d00"></path>
<path opacity="0.78" fill-rule="evenodd" clip-rule="evenodd" d="M293.655 435.12C289.597 435.12 286.246 438.471 286.246 442.529C286.246 446.587 289.597 449.939 293.655 449.939H319.904C323.962 449.939 327.313 446.587 327.313 442.529C327.313 438.471 323.962 435.12 319.904 435.12H293.655ZM285.294 442.529C285.294 437.946 289.072 434.168 293.655 434.168H319.904C324.487 434.168 328.265 437.946 328.265 442.529C328.265 447.113 324.487 450.89 319.904 450.89H293.655C289.072 450.89 285.294 447.113 285.294 442.529Z" fill="#db6d00"></path>
<path opacity="0.5" d="M313.639 445.769H299.92C298.516 445.769 297.328 444.581 297.328 443.177V442.096C297.328 440.692 298.516 439.504 299.92 439.504H313.639C315.043 439.504 316.231 440.692 316.231 442.096V443.177C316.339 444.581 315.151 445.769 313.639 445.769Z" fill="#db6d00"></path>
<path opacity="0.78" fill-rule="evenodd" clip-rule="evenodd" d="M399.408 435.12C395.35 435.12 391.998 438.471 391.998 442.529C391.998 446.587 395.35 449.939 399.408 449.939H425.656C429.714 449.939 433.065 446.587 433.065 442.529C433.065 438.471 429.714 435.12 425.656 435.12H399.408ZM391.046 442.529C391.046 437.946 394.824 434.168 399.408 434.168H425.656C430.239 434.168 434.017 437.946 434.017 442.529C434.017 447.113 430.239 450.89 425.656 450.89H399.408C394.824 450.89 391.046 447.113 391.046 442.529Z" fill="#db6d00"></path>
<path opacity="0.5" d="M419.391 445.769H405.673C404.268 445.769 403.08 444.581 403.08 443.177V442.096C403.08 440.692 404.268 439.504 405.673 439.504H419.391C420.795 439.504 421.983 440.692 421.983 442.096V443.177C422.091 444.581 420.903 445.769 419.391 445.769Z" fill="#db6d00"></path>
<path d="M452.228 374.153H345.83C342.697 374.153 340.105 371.561 340.105 368.429V365.512C340.105 362.38 342.697 359.787 345.83 359.787H452.228C455.36 359.787 457.953 362.38 457.953 365.512V368.429C457.953 371.561 455.36 374.153 452.228 374.153Z" fill="#db6d00"></path>
<path d="M437.754 388.952H360.197C358.469 388.952 357.173 387.548 357.173 385.928V384.739C357.173 383.011 358.577 381.715 360.197 381.715H437.754C439.482 381.715 440.779 383.119 440.779 384.739V385.928C440.779 387.548 439.482 388.952 437.754 388.952Z" fill="#eed7a5"></path>
<path d="M368.728 284.896V193.332C368.728 185.663 362.571 179.506 354.902 179.506H152.368C144.699 179.506 138.542 185.663 138.542 193.332V284.896H368.728Z" fill="#1a2837"></path>
<path d="M368.727 284.896V193.332C368.727 185.663 362.57 179.506 354.901 179.506H152.367C144.698 179.506 138.541 185.663 138.541 193.332V284.896H368.727Z" fill="black" fill-opacity="0.2"></path>
<path d="M195.036 357.735H123.744C115.967 357.735 109.701 351.47 109.701 343.693C109.701 335.915 115.967 329.65 123.744 329.65H195.036C202.813 329.65 209.078 335.915 209.078 343.693C209.078 351.47 202.813 357.735 195.036 357.735Z" fill="#1a2837"></path>
<path d="M188.986 349.633H150.64C148.695 349.633 147.183 348.121 147.183 346.177V341.316C147.183 339.372 148.695 337.859 150.64 337.859H188.986C190.93 337.859 192.442 339.372 192.442 341.316V346.177C192.442 348.121 190.93 349.633 188.986 349.633Z" fill="#db6d00"></path>
<rect opacity="0.3" x="229.348" y="332.701" width="91.2451" height="22.091" rx="10.2256" fill="#db6d00"></rect>
<path d="M693.313 423.196C693.313 418.303 689.347 414.336 684.454 414.336C679.561 414.336 675.594 418.303 675.594 423.196V432.168L666.622 432.168C661.729 432.168 657.762 436.134 657.762 441.027C657.762 445.921 661.729 449.887 666.622 449.887H675.594V458.859C675.594 463.752 679.561 467.719 684.454 467.719C689.347 467.719 693.313 463.752 693.313 458.859V449.887H702.285C707.179 449.887 711.145 445.921 711.145 441.027C711.145 436.134 707.179 432.168 702.285 432.168L693.313 432.168V423.196Z" fill="#0F0F0F" fill-opacity="0.12"></path>
<path d="M138.005 349.634H128.283C127.203 349.634 126.339 348.77 126.339 347.69V339.696C126.339 338.616 127.203 337.752 128.283 337.752H138.005C139.085 337.752 139.949 338.616 139.949 339.696V347.798C139.841 348.77 138.977 349.634 138.005 349.634Z" fill="#eed7a5"></path>
<path fill-rule="evenodd" clip-rule="evenodd" d="M239.323 330.19C231.844 330.19 225.821 336.213 225.821 343.692C225.821 351.171 231.844 357.194 239.323 357.194H310.615C318.094 357.194 324.117 351.171 324.117 343.692C324.117 336.213 318.094 330.19 310.615 330.19H239.323ZM224.741 343.692C224.741 335.616 231.248 329.109 239.323 329.109H310.615C318.691 329.109 325.198 335.616 325.198 343.692C325.198 351.767 318.691 358.274 310.615 358.274H239.323C231.248 358.274 224.741 351.767 224.741 343.692Z" fill="#db6d00"></path>
<path d="M368.728 276.182V304.05C368.728 311.612 362.571 317.877 354.902 317.877H152.368C144.807 317.877 138.542 311.72 138.542 304.05V276.182H368.728Z" fill="#db6d00"></path>
<path d="M189.318 297.028H151.944C148.811 297.028 146.219 294.436 146.219 291.303V287.739C146.219 284.606 148.811 282.014 151.944 282.014H189.318C192.45 282.014 195.043 284.606 195.043 287.739V291.303C195.043 294.436 192.45 297.028 189.318 297.028Z" fill="black" fill-opacity="0.09"></path>
<path d="M439.271 297.028H401.897C398.764 297.028 396.172 294.436 396.172 291.303V287.739C396.172 284.606 398.764 282.014 401.897 282.014H439.271C442.404 282.014 444.996 284.606 444.996 287.739V291.303C444.996 294.436 442.404 297.028 439.271 297.028Z" fill="black" fill-opacity="0.09"></path>
<path d="M185.86 305.458H152.374C151.294 305.458 150.43 304.594 150.43 303.514V302.974C150.43 301.893 151.294 301.029 152.374 301.029H185.86C186.94 301.029 187.804 301.893 187.804 302.974V303.514C187.804 304.486 186.94 305.458 185.86 305.458Z" fill="black" fill-opacity="0.09"></path>
<path d="M435.813 305.778H402.327C401.247 305.778 400.383 304.914 400.383 303.834V303.294C400.383 302.214 401.247 301.35 402.327 301.35H435.813C436.893 301.35 437.757 302.214 437.757 303.294V303.834C437.757 304.806 436.893 305.778 435.813 305.778Z" fill="black" fill-opacity="0.09"></path>
<path d="M360.087 291.628H326.602C325.522 291.628 324.657 290.764 324.657 289.684V289.144C324.657 288.063 325.522 287.199 326.602 287.199H360.087C361.167 287.199 362.032 288.063 362.032 289.144V289.684C362.032 290.764 361.167 291.628 360.087 291.628Z" fill="#1a2837"></path>
<path fill-rule="evenodd" clip-rule="evenodd" d="M97.7115 112.209C88.8282 112.209 81.6168 119.421 81.6168 128.304V236.646C81.6168 245.529 88.8282 252.741 97.7115 252.741H186.502C195.383 252.741 202.597 245.531 202.597 236.538V128.304C202.597 119.421 195.386 112.209 186.502 112.209H97.7115ZM80.5366 128.304C80.5366 118.824 88.2317 111.129 97.7115 111.129H186.502C195.982 111.129 203.677 118.824 203.677 128.304V236.538C203.677 246.123 195.984 253.821 186.502 253.821H97.7115C88.2317 253.821 80.5366 246.126 80.5366 236.646V128.304Z" fill="#eed7a5"></path>
<path d="M179.483 247.989H90.8C81.6185 247.989 74.1653 240.535 74.1653 231.354V123.012C74.1653 113.83 81.6185 106.377 90.8 106.377H179.591C188.772 106.377 196.226 113.83 196.226 123.012V231.246C196.118 240.535 188.664 247.989 179.483 247.989Z" fill="#1a2837"></path>
<path d="M131.523 126.145H88.7477V130.681H131.523V126.145Z" fill="#db6d00"></path>
<path fill-rule="evenodd" clip-rule="evenodd" d="M95.0109 147.072C90.1137 147.072 86.2352 151.051 86.2352 155.848C86.2352 160.745 90.2139 164.624 95.0109 164.624H174.188C178.973 164.624 182.856 160.649 182.856 155.848C182.856 150.951 178.877 147.072 174.08 147.072H95.0109ZM85.2076 155.848C85.2076 150.492 89.5384 146.045 95.0109 146.045H174.08C179.437 146.045 183.883 150.376 183.883 155.848C183.883 161.201 179.557 165.652 174.188 165.652H95.0109C89.6542 165.652 85.2076 161.321 85.2076 155.848Z" fill="#eed7a5"></path>
<path d="M174.189 187.931H95.0119C89.9351 187.931 85.7224 183.826 85.7224 178.641C85.7224 173.564 89.827 169.352 95.0119 169.352H174.081C179.158 169.352 183.371 173.456 183.371 178.641C183.371 183.826 179.266 187.931 174.189 187.931Z" fill="black" fill-opacity="0.09"></path>
<path d="M174.189 210.829H95.0119C89.9351 210.829 85.7224 206.724 85.7224 201.54C85.7224 196.463 89.827 192.25 95.0119 192.25H174.081C179.158 192.25 183.371 196.355 183.371 201.54C183.371 206.616 179.266 210.829 174.189 210.829Z" fill="black" fill-opacity="0.09"></path>
<path d="M174.189 233.622H95.0119C89.9351 233.622 85.7224 229.517 85.7224 224.333C85.7224 219.256 89.827 215.043 95.0119 215.043H174.081C179.158 215.043 183.371 219.148 183.371 224.333C183.371 229.517 179.266 233.622 174.189 233.622Z" fill="black" fill-opacity="0.09"></path>
<path d="M114.778 153.256H95.0102C94.5781 153.256 94.2541 152.932 94.2541 152.5C94.2541 152.068 94.5781 151.744 95.0102 151.744H114.778C115.21 151.744 115.534 152.068 115.534 152.5C115.534 152.932 115.21 153.256 114.778 153.256Z" fill="#eed7a5"></path>
<path d="M105.704 160.061H95.2263C94.6862 160.061 94.2541 159.629 94.2541 159.089V157.037C94.2541 156.497 94.6862 156.064 95.2263 156.064H105.704C106.244 156.064 106.676 156.497 106.676 157.037V159.089C106.568 159.629 106.136 160.061 105.704 160.061Z" fill="#eed7a5"></path>
<path d="M173.756 159.63H163.927C163.17 159.63 162.63 159.09 162.63 158.333V153.365C162.63 152.608 163.17 152.068 163.927 152.068H173.756C174.512 152.068 175.052 152.608 175.052 153.365V158.333C175.052 159.09 174.512 159.63 173.756 159.63Z" fill="#eed7a5"></path>
<path d="M114.778 176.047H95.0102C94.5781 176.047 94.2541 175.723 94.2541 175.291C94.2541 174.859 94.5781 174.535 95.0102 174.535H114.778C115.21 174.535 115.534 174.859 115.534 175.291C115.534 175.723 115.21 176.047 114.778 176.047Z" fill="black" fill-opacity="0.09"></path>
<path d="M105.704 182.854H95.2263C94.6862 182.854 94.2541 182.422 94.2541 181.882V179.83C94.2541 179.289 94.6862 178.857 95.2263 178.857H105.704C106.244 178.857 106.676 179.289 106.676 179.83V181.882C106.568 182.422 106.136 182.854 105.704 182.854Z" fill="black" fill-opacity="0.09"></path>
<path d="M173.756 182.421H163.927C163.17 182.421 162.63 181.881 162.63 181.124V176.156C162.63 175.399 163.17 174.859 163.927 174.859H173.756C174.512 174.859 175.052 175.399 175.052 176.156V181.124C175.052 181.881 174.512 182.421 173.756 182.421Z" fill="black" fill-opacity="0.09"></path>
<path d="M114.778 198.948H95.0102C94.5781 198.948 94.2541 198.624 94.2541 198.192C94.2541 197.76 94.5781 197.436 95.0102 197.436H114.778C115.21 197.436 115.534 197.76 115.534 198.192C115.534 198.624 115.21 198.948 114.778 198.948Z" fill="black" fill-opacity="0.09"></path>
<path d="M105.704 205.645H95.2263C94.6862 205.645 94.2541 205.213 94.2541 204.673V202.621C94.2541 202.081 94.6862 201.648 95.2263 201.648H105.704C106.244 201.648 106.676 202.081 106.676 202.621V204.673C106.568 205.321 106.136 205.645 105.704 205.645Z" fill="black" fill-opacity="0.09"></path>
<path d="M173.756 205.321H163.927C163.17 205.321 162.63 204.781 162.63 204.025V199.056C162.63 198.3 163.17 197.76 163.927 197.76H173.756C174.512 197.76 175.052 198.3 175.052 199.056V204.025C175.052 204.673 174.512 205.321 173.756 205.321Z" fill="black" fill-opacity="0.09"></path>
<path d="M114.778 221.739H95.0102C94.5781 221.739 94.2541 221.415 94.2541 220.983C94.2541 220.551 94.5781 220.227 95.0102 220.227H114.778C115.21 220.227 115.534 220.551 115.534 220.983C115.534 221.415 115.21 221.739 114.778 221.739Z" fill="black" fill-opacity="0.09"></path>
<path d="M105.704 228.546H95.2263C94.6862 228.546 94.2541 228.113 94.2541 227.573V225.521C94.2541 224.981 94.6862 224.549 95.2263 224.549H105.704C106.244 224.549 106.676 224.981 106.676 225.521V227.573C106.568 228.113 106.136 228.546 105.704 228.546Z" fill="black" fill-opacity="0.09"></path>
<path d="M173.756 228.113H163.927C163.17 228.113 162.63 227.573 162.63 226.817V221.956C162.63 221.2 163.17 220.66 163.927 220.66H173.756C174.512 220.66 175.052 221.2 175.052 221.956V226.925C175.052 227.573 174.512 228.113 173.756 228.113Z" fill="black" fill-opacity="0.09"></path>
<path d="M344.319 265.81H299.924C295.279 265.81 291.606 262.03 291.606 257.493V203.376C291.606 198.731 295.387 195.059 299.924 195.059H344.319C348.964 195.059 352.637 198.839 352.637 203.376V257.493C352.637 262.03 348.856 265.81 344.319 265.81Z" fill="#F8FAFF"></path>
<path opacity="0.9" d="M309.644 210.29H297.546C297.222 210.29 296.898 209.966 296.898 209.642V209.318C296.898 208.994 297.222 208.67 297.546 208.67H309.644C309.968 208.67 310.292 208.994 310.292 209.318V209.642C310.184 209.966 309.968 210.29 309.644 210.29Z" fill="#eed7a5"></path>
<path opacity="0.9" d="M303.919 216.987H297.654C297.222 216.987 296.898 216.663 296.898 216.231V213.746C296.898 213.314 297.222 212.99 297.654 212.99H303.919C304.351 212.99 304.675 213.314 304.675 213.746V216.231C304.675 216.663 304.351 216.987 303.919 216.987Z" fill="#eed7a5"></path>
<path d="M355.122 216.663H341.942C340.699 216.663 339.455 216.231 339.455 215.583V210.074C339.455 209.534 340.45 208.994 341.942 208.994H355.122C356.366 208.994 357.609 209.426 357.609 210.074V215.583C357.361 216.231 356.366 216.663 355.122 216.663Z" fill="#eed7a5"></path>
<path opacity="0.9" d="M309.644 224.441H297.546C297.222 224.441 296.898 224.117 296.898 223.792V223.468C296.898 223.144 297.222 222.82 297.546 222.82H309.644C309.968 222.82 310.292 223.144 310.292 223.468V223.792C310.184 224.225 309.968 224.441 309.644 224.441Z" fill="#eed7a5"></path>
<path opacity="0.9" d="M303.919 231.245H297.654C297.222 231.245 296.898 230.921 296.898 230.489V228.004C296.898 227.572 297.222 227.248 297.654 227.248H303.919C304.351 227.248 304.675 227.572 304.675 228.004V230.489C304.675 230.921 304.351 231.245 303.919 231.245Z" fill="#eed7a5"></path>
<path fill-rule="evenodd" clip-rule="evenodd" d="M340.535 230.274H346.26C346.456 230.274 346.714 230.122 346.8 229.685V224.225C346.8 223.909 346.538 223.685 346.26 223.685H340.535C340.22 223.685 339.995 223.947 339.995 224.225V229.734C339.995 230.049 340.258 230.274 340.535 230.274ZM347.34 229.734V224.225C347.34 223.577 346.8 223.145 346.26 223.145H340.535C339.887 223.145 339.455 223.685 339.455 224.225V229.734C339.455 230.382 339.995 230.814 340.535 230.814H346.26C346.8 230.814 347.232 230.382 347.34 229.734Z" fill="#eed7a5"></path>
<path opacity="0.9" d="M309.644 238.698H297.546C297.222 238.698 296.898 238.374 296.898 238.05V237.726C296.898 237.402 297.222 237.078 297.546 237.078H309.644C309.968 237.078 310.292 237.402 310.292 237.726V238.05C310.184 238.374 309.968 238.698 309.644 238.698Z" fill="#eed7a5"></path>
<path opacity="0.9" d="M303.919 245.504H297.654C297.222 245.504 296.898 245.18 296.898 244.748V242.264C296.898 241.832 297.222 241.508 297.654 241.508H303.919C304.351 241.508 304.675 241.832 304.675 242.264V244.748C304.675 245.18 304.351 245.504 303.919 245.504Z" fill="#eed7a5"></path>
<path fill-rule="evenodd" clip-rule="evenodd" d="M340.535 244.532H346.26C346.456 244.532 346.714 244.38 346.8 243.943V238.483C346.8 238.167 346.538 237.942 346.26 237.942H340.535C340.22 237.942 339.995 238.205 339.995 238.483V243.991C339.995 244.307 340.258 244.532 340.535 244.532ZM347.34 243.991V238.483C347.34 237.834 346.8 237.402 346.26 237.402H340.535C339.887 237.402 339.455 237.942 339.455 238.483V243.991C339.455 244.64 339.995 245.072 340.535 245.072H346.26C346.8 245.072 347.232 244.64 347.34 243.991Z" fill="#eed7a5"></path>
<path opacity="0.9" d="M309.644 252.958H297.546C297.222 252.958 296.898 252.634 296.898 252.31V251.986C296.898 251.662 297.222 251.338 297.546 251.338H309.644C309.968 251.338 310.292 251.662 310.292 251.986V252.31C310.184 252.634 309.968 252.958 309.644 252.958Z" fill="#eed7a5"></path>
<path opacity="0.9" d="M303.919 259.654H297.654C297.222 259.654 296.898 259.33 296.898 258.898V256.522C296.898 256.09 297.222 255.766 297.654 255.766H303.919C304.351 255.766 304.675 256.09 304.675 256.522V259.006C304.675 259.33 304.351 259.654 303.919 259.654Z" fill="#eed7a5"></path>
<path fill-rule="evenodd" clip-rule="evenodd" d="M340.535 258.789H346.26C346.341 258.789 346.45 258.749 346.568 258.623C346.675 258.508 346.76 258.35 346.8 258.19V252.74C346.8 252.425 346.538 252.2 346.26 252.2H340.535C340.22 252.2 339.995 252.463 339.995 252.74V258.249C339.995 258.565 340.258 258.789 340.535 258.789ZM347.34 258.249V252.74C347.34 252.092 346.8 251.66 346.26 251.66H340.535C339.887 251.66 339.455 252.2 339.455 252.74V258.249C339.455 258.897 339.995 259.329 340.535 259.329H346.26C346.8 259.329 347.232 258.789 347.34 258.249Z" fill="#eed7a5"></path>
<path opacity="0.9" fill-rule="evenodd" clip-rule="evenodd" d="M296.628 219.256C296.628 219.107 296.748 218.986 296.898 218.986H346.046C346.195 218.986 346.316 219.107 346.316 219.256C346.316 219.406 346.195 219.526 346.046 219.526H296.898C296.748 219.526 296.628 219.406 296.628 219.256Z" fill="#eed7a5"></path>
<path opacity="0.9" fill-rule="evenodd" clip-rule="evenodd" d="M296.628 234.163C296.628 234.013 296.748 233.893 296.898 233.893H346.046C346.195 233.893 346.316 234.013 346.316 234.163C346.316 234.312 346.195 234.433 346.046 234.433H296.898C296.748 234.433 296.628 234.312 296.628 234.163Z" fill="#eed7a5"></path>
<path opacity="0.9" fill-rule="evenodd" clip-rule="evenodd" d="M296.628 249.176C296.628 249.027 296.748 248.906 296.898 248.906H346.046C346.195 248.906 346.316 249.027 346.316 249.176C346.316 249.325 346.195 249.446 346.046 249.446H296.898C296.748 249.446 296.628 249.325 296.628 249.176Z" fill="#eed7a5"></path>
<path d="M266.112 265.81H221.716C217.071 265.81 213.399 262.03 213.399 257.493V203.376C213.399 198.731 217.179 195.059 221.716 195.059H266.112C270.756 195.059 274.429 198.839 274.429 203.376V257.493C274.429 262.03 270.756 265.81 266.112 265.81Z" fill="#db6d00"></path>
<path d="M231.44 210.29H219.342C219.018 210.29 218.694 209.966 218.694 209.642V209.318C218.694 208.994 219.018 208.67 219.342 208.67H231.44C231.764 208.67 232.088 208.994 232.088 209.318V209.642C232.088 209.966 231.764 210.29 231.44 210.29Z" fill="#1a2837"></path>
<path d="M225.715 216.987H219.45C219.018 216.987 218.694 216.663 218.694 216.231V213.746C218.694 213.314 219.018 212.99 219.45 212.99H225.715C226.147 212.99 226.472 213.314 226.472 213.746V216.231C226.472 216.663 226.147 216.987 225.715 216.987Z" fill="#1a2837"></path>
<path fill-rule="evenodd" clip-rule="evenodd" d="M262.442 216.123H268.167C268.363 216.123 268.62 215.972 268.707 215.535V210.074C268.707 209.759 268.444 209.534 268.167 209.534H262.442C262.126 209.534 261.901 209.797 261.901 210.074V215.583C261.901 215.899 262.164 216.123 262.442 216.123ZM269.247 215.583V210.074C269.247 209.426 268.707 208.994 268.167 208.994H262.442C261.793 208.994 261.361 209.534 261.361 210.074V215.583C261.361 216.231 261.901 216.663 262.442 216.663H268.167C268.707 216.663 269.139 216.231 269.247 215.583Z" fill="#1a2837"></path>
<path d="M231.44 224.441H219.342C219.018 224.441 218.694 224.117 218.694 223.792V223.468C218.694 223.144 219.018 222.82 219.342 222.82H231.44C231.764 222.82 232.088 223.144 232.088 223.468V223.792C232.088 224.225 231.764 224.441 231.44 224.441Z" fill="#1a2837"></path>
<path d="M225.715 231.245H219.45C219.018 231.245 218.694 230.921 218.694 230.489V228.004C218.694 227.572 219.018 227.248 219.45 227.248H225.715C226.147 227.248 226.472 227.572 226.472 228.004V230.489C226.472 230.921 226.147 231.245 225.715 231.245Z" fill="#1a2837"></path>
<path fill-rule="evenodd" clip-rule="evenodd" d="M262.442 230.274H268.167C268.363 230.274 268.62 230.122 268.707 229.685V224.225C268.707 223.909 268.444 223.685 268.167 223.685H262.442C262.126 223.685 261.901 223.947 261.901 224.225V229.734C261.901 230.049 262.164 230.274 262.442 230.274ZM269.247 229.734V224.225C269.247 223.577 268.707 223.145 268.167 223.145H262.442C261.793 223.145 261.361 223.685 261.361 224.225V229.734C261.361 230.382 261.901 230.814 262.442 230.814H268.167C268.707 230.814 269.139 230.382 269.247 229.734Z" fill="#1a2837"></path>
<path d="M231.44 238.698H219.342C219.018 238.698 218.694 238.374 218.694 238.05V237.726C218.694 237.402 219.018 237.078 219.342 237.078H231.44C231.764 237.078 232.088 237.402 232.088 237.726V238.05C232.088 238.374 231.764 238.698 231.44 238.698Z" fill="#1a2837"></path>
<path d="M225.715 245.504H219.45C219.018 245.504 218.694 245.18 218.694 244.748V242.264C218.694 241.832 219.018 241.508 219.45 241.508H225.715C226.147 241.508 226.472 241.832 226.472 242.264V244.748C226.472 245.18 226.147 245.504 225.715 245.504Z" fill="#1a2837"></path>
<path fill-rule="evenodd" clip-rule="evenodd" d="M262.442 244.532H268.167C268.363 244.532 268.62 244.38 268.707 243.943V238.483C268.707 238.167 268.444 237.942 268.167 237.942H262.442C262.126 237.942 261.901 238.205 261.901 238.483V243.991C261.901 244.307 262.164 244.532 262.442 244.532ZM269.247 243.991V238.483C269.247 237.834 268.707 237.402 268.167 237.402H262.442C261.793 237.402 261.361 237.942 261.361 238.483V243.991C261.361 244.64 261.901 245.072 262.442 245.072H268.167C268.707 245.072 269.139 244.64 269.247 243.991Z" fill="#1a2837"></path>
<path d="M231.44 252.958H219.342C219.018 252.958 218.694 252.634 218.694 252.31V251.986C218.694 251.662 219.018 251.338 219.342 251.338H231.44C231.764 251.338 232.088 251.662 232.088 251.986V252.31C232.088 252.634 231.764 252.958 231.44 252.958Z" fill="#1a2837"></path>
<path d="M225.715 259.654H219.45C219.018 259.654 218.694 259.33 218.694 258.898V256.522C218.694 256.09 219.018 255.766 219.45 255.766H225.715C226.147 255.766 226.472 256.09 226.472 256.522V259.006C226.472 259.33 226.147 259.654 225.715 259.654Z" fill="#1a2837"></path>
<path fill-rule="evenodd" clip-rule="evenodd" d="M262.442 258.789H268.167C268.247 258.789 268.356 258.749 268.474 258.623C268.581 258.508 268.666 258.35 268.707 258.19V252.74C268.707 252.425 268.444 252.2 268.167 252.2H262.442C262.126 252.2 261.901 252.463 261.901 252.74V258.249C261.901 258.565 262.164 258.789 262.442 258.789ZM269.247 258.249V252.74C269.247 252.092 268.707 251.66 268.167 251.66H262.442C261.793 251.66 261.361 252.2 261.361 252.74V258.249C261.361 258.897 261.901 259.329 262.442 259.329H268.167C268.707 259.329 269.139 258.789 269.247 258.249Z" fill="#1a2837"></path>
<path fill-rule="evenodd" clip-rule="evenodd" d="M218.8 218.986H267.948C268.097 218.986 268.218 219.107 268.218 219.256C268.218 219.406 268.097 219.526 267.948 219.526H218.8C218.651 219.526 218.53 219.406 218.53 219.256C218.53 219.107 218.651 218.986 218.8 218.986Z" fill="#1a2837"></path>
<path fill-rule="evenodd" clip-rule="evenodd" d="M218.8 233.893H267.948C268.097 233.893 268.218 234.013 268.218 234.163C268.218 234.312 268.097 234.433 267.948 234.433H218.8C218.651 234.433 218.53 234.312 218.53 234.163C218.53 234.013 218.651 233.893 218.8 233.893Z" fill="#1a2837"></path>
<path fill-rule="evenodd" clip-rule="evenodd" d="M218.8 248.906H267.948C268.097 248.906 268.218 249.027 268.218 249.176C268.218 249.325 268.097 249.446 267.948 249.446H218.8C218.651 249.446 218.53 249.325 218.53 249.176C218.53 249.027 218.651 248.906 218.8 248.906Z" fill="#1a2837"></path>
<path d="M327.683 99.7881H296.033C294.413 99.7881 293.117 98.4918 293.117 96.8716C293.117 95.2513 294.413 93.9551 296.033 93.9551H327.683C329.303 93.9551 330.599 95.2513 330.599 96.8716C330.707 98.4918 329.411 99.7881 327.683 99.7881Z" fill="#1a2837"></path>
<path d="M499.647 99.7881H467.997C466.377 99.7881 465.081 98.4918 465.081 96.8716C465.081 95.2513 466.377 93.9551 467.997 93.9551H499.647C501.267 93.9551 502.563 95.2513 502.563 96.8716C502.671 98.4918 501.267 99.7881 499.647 99.7881Z" fill="#1a2837"></path>
<path d="M349.718 137.162H299.598C296.898 137.162 294.737 135.002 294.737 132.301V130.681C294.737 127.981 296.898 125.82 299.598 125.82H349.718C352.419 125.82 354.579 127.981 354.579 130.681V132.301C354.579 135.002 352.419 137.162 349.718 137.162Z" fill="#db6d00"></path>
<path d="M305.647 166.759C310.479 166.759 314.397 162.841 314.397 158.009C314.397 153.177 310.479 149.26 305.647 149.26C300.815 149.26 296.898 153.177 296.898 158.009C296.898 162.841 300.815 166.759 305.647 166.759Z" fill="#1a2837"></path>
<path d="M342.588 166.759C347.421 166.759 351.338 162.841 351.338 158.009C351.338 153.177 347.421 149.26 342.588 149.26C337.756 149.26 333.839 153.177 333.839 158.009C333.839 162.841 337.756 166.759 342.588 166.759Z" fill="#1a2837"></path>
<path d="M379.424 166.759C384.256 166.759 388.174 162.841 388.174 158.009C388.174 153.177 384.256 149.26 379.424 149.26C374.592 149.26 370.675 153.177 370.675 158.009C370.675 162.841 374.592 166.759 379.424 166.759Z" fill="#1a2837"></path>
<path d="M416.366 166.759C421.198 166.759 425.115 162.841 425.115 158.009C425.115 153.177 421.198 149.26 416.366 149.26C411.533 149.26 407.616 153.177 407.616 158.009C407.616 162.841 411.533 166.759 416.366 166.759Z" fill="#1a2837"></path>
<path d="M453.201 166.759C458.034 166.759 461.951 162.841 461.951 158.009C461.951 153.177 458.034 149.26 453.201 149.26C448.369 149.26 444.452 153.177 444.452 158.009C444.452 162.841 448.369 166.759 453.201 166.759Z" fill="#1a2837"></path>
<path d="M490.143 166.759C494.975 166.759 498.892 162.841 498.892 158.009C498.892 153.177 494.975 149.26 490.143 149.26C485.311 149.26 481.393 153.177 481.393 158.009C481.393 162.841 485.311 166.759 490.143 166.759Z" fill="#1a2837"></path>
<path fill-rule="evenodd" clip-rule="evenodd" d="M100.306 425.757C96.8568 425.757 94.1212 428.493 94.1212 431.942V466.94C94.1212 470.39 96.8568 473.125 100.306 473.125H135.196C138.641 473.125 141.384 470.392 141.489 466.934V431.942C141.489 428.493 138.754 425.757 135.304 425.757H100.306ZM93.3131 431.942C93.3131 428.047 96.4105 424.949 100.306 424.949H135.304C139.2 424.949 142.297 428.047 142.297 431.942V466.952C142.183 470.836 139.094 473.933 135.196 473.933H100.306C96.4105 473.933 93.3131 470.836 93.3131 466.94V431.942Z" fill="#eed7a5"></path>
<path d="M129.252 469.425H90.2574C86.1527 469.425 82.9122 466.185 82.9122 462.08V423.085C82.9122 418.981 86.1527 415.74 90.2574 415.74H129.252C133.357 415.74 136.597 418.981 136.597 423.085V462.08C136.597 466.077 133.357 469.425 129.252 469.425Z" fill="#1a2837"></path>
<path fill-rule="evenodd" clip-rule="evenodd" d="M110.028 424.25C112.487 424.25 114.481 426.244 114.481 428.703V454.411C114.481 456.87 112.487 458.864 110.028 458.864C107.568 458.864 105.575 456.87 105.575 454.411V428.703C105.575 426.244 107.568 424.25 110.028 424.25Z" fill="#eed7a5"></path>
<path fill-rule="evenodd" clip-rule="evenodd" d="M92.8279 441.556C92.8279 439.097 94.8215 437.104 97.2807 437.104H122.881C125.34 437.104 127.334 439.097 127.334 441.556C127.334 444.016 125.34 446.009 122.881 446.009H97.2807C94.8215 446.009 92.8279 444.016 92.8279 441.556Z" fill="#db6d00"></path>
<path fill-rule="evenodd" clip-rule="evenodd" d="M621.809 47.3097C616.997 47.3097 613.095 51.2114 613.095 56.0233V102.121C613.095 106.933 616.997 110.835 621.809 110.835H676.48C681.292 110.835 685.193 106.933 685.193 102.121V56.0233C685.193 51.2114 681.292 47.3097 676.48 47.3097H621.809ZM611.69 56.0233C611.69 50.4352 616.221 45.9043 621.809 45.9043H676.48C682.068 45.9043 686.599 50.4352 686.599 56.0233V102.121C686.599 107.709 682.068 112.24 676.48 112.24H621.809C616.221 112.24 611.69 107.709 611.69 102.121V56.0233Z" fill="#eed7a5"></path>
<path d="M667.767 105.072H617.032C611.691 105.072 607.475 100.856 607.475 95.5151V44.7795C607.475 39.4389 611.691 35.2227 617.032 35.2227H667.767C673.108 35.2227 677.324 39.4389 677.324 44.7795V95.5151C677.324 100.715 673.108 105.072 667.767 105.072Z" fill="#1a2837"></path>
<path d="M649.919 74.2938H625.746C623.357 74.2938 621.53 72.4668 621.53 70.0776C621.53 67.6884 623.357 65.8613 625.746 65.8613H649.919C652.308 65.8613 654.135 67.6884 654.135 70.0776C654.135 72.4668 652.308 74.2938 649.919 74.2938Z" fill="#db6d00"></path>
<path d="M659.195 88.3485H625.746C623.357 88.3485 621.53 86.5215 621.53 84.1323C621.53 81.7431 623.357 79.916 625.746 79.916H659.195C661.584 79.916 663.411 81.7431 663.411 84.1323C663.411 86.5215 661.444 88.3485 659.195 88.3485Z" fill="#db6d00"></path>
<path d="M659.195 60.2391H625.746C623.357 60.2391 621.53 58.4121 621.53 56.0229C621.53 53.6337 623.357 51.8066 625.746 51.8066H659.195C661.584 51.8066 663.411 53.6337 663.411 56.0229C663.411 58.4121 661.444 60.2391 659.195 60.2391Z" fill="#db6d00"></path>
<path d="M576.988 197.435C588.8 197.435 598.376 187.86 598.376 176.048C598.376 164.236 588.8 154.66 576.988 154.66C565.176 154.66 555.601 164.236 555.601 176.048C555.601 187.86 565.176 197.435 576.988 197.435Z" fill="#db6d00"></path>
<path d="M587.358 181.774C585.954 187.931 579.797 191.712 573.748 190.308C567.591 188.903 563.81 182.746 565.214 176.697" fill="#F8FAFF"></path>
<path d="M568.455 170.107C569.887 170.107 571.047 168.946 571.047 167.514C571.047 166.083 569.887 164.922 568.455 164.922C567.023 164.922 565.863 166.083 565.863 167.514C565.863 168.946 567.023 170.107 568.455 170.107Z" fill="black" fill-opacity="0.15"></path>
<path d="M588.006 175.292C589.438 175.292 590.598 174.132 590.598 172.7C590.598 171.268 589.438 170.107 588.006 170.107C586.574 170.107 585.413 171.268 585.413 172.7C585.413 174.132 586.574 175.292 588.006 175.292Z" fill="black" fill-opacity="0.15"></path>
<path d="M180.07 516.631C191.392 513.264 197.841 501.357 194.474 490.035C191.107 478.713 179.199 472.264 167.877 475.63C156.555 478.997 150.106 490.905 153.473 502.227C156.84 513.549 168.748 519.998 180.07 516.631Z" fill="#1a2837"></path>
<path d="M185.545 498.663C185.954 504.964 181.13 510.343 174.932 510.721C168.63 511.13 163.251 506.306 162.873 500.108" fill="#F8FAFF"></path>
<path d="M164.102 492.868C165.474 492.459 166.256 491.016 165.847 489.644C165.439 488.271 163.996 487.49 162.624 487.898C161.251 488.306 160.47 489.749 160.878 491.122C161.286 492.494 162.729 493.276 164.102 492.868Z" fill="#F8FAFF"></path>
<path d="M184.319 492.264C185.691 491.856 186.473 490.413 186.065 489.04C185.657 487.668 184.214 486.886 182.841 487.294C181.469 487.702 180.687 489.146 181.095 490.518C181.503 491.89 182.947 492.672 184.319 492.264Z" fill="#F8FAFF"></path>
<path d="M73.9484 289.898H26.2044C24.4761 289.898 23.0719 291.303 23.0719 293.031V371.776C23.0719 373.504 24.4761 374.909 26.2044 374.909H73.8404C75.5686 374.909 76.9729 373.504 76.9729 371.776V293.031C76.9729 291.195 75.6767 289.898 73.9484 289.898ZM70.8158 365.511C70.8158 367.239 69.4116 368.644 67.6833 368.644H32.4694C30.7412 368.644 29.3369 367.239 29.3369 365.511V299.188C29.3369 297.46 30.7412 296.055 32.4694 296.055H39.9227V298.108C39.9227 299.836 41.3269 301.132 42.9472 301.132H57.2056C58.9339 301.132 60.2301 299.728 60.2301 298.108V296.055H67.6833C69.4116 296.055 70.8158 297.46 70.8158 299.188V365.511Z" fill="#1a2837"></path>
<path d="M63.2563 334.187H54.3988C53.2106 334.187 52.3464 333.215 52.3464 332.135V328.894C52.3464 327.706 53.3186 326.842 54.3988 326.842H63.2563C64.4445 326.842 65.3086 327.814 65.3086 328.894V332.135C65.3086 333.323 64.3364 334.187 63.2563 334.187Z" fill="#eed7a5"></path>
<path d="M45.4333 334.187H36.5758C35.3876 334.187 34.5235 333.215 34.5235 332.135V328.894C34.5235 327.706 35.4956 326.842 36.5758 326.842H45.4333C46.6215 326.842 47.4856 327.814 47.4856 328.894V332.135C47.4856 333.323 46.6215 334.187 45.4333 334.187Z" fill="#eed7a5"></path>
<path d="M63.2563 322.304H54.3988C53.2106 322.304 52.3464 321.332 52.3464 320.252V317.011C52.3464 315.823 53.3186 314.959 54.3988 314.959H63.2563C64.4445 314.959 65.3086 315.931 65.3086 317.011V320.252C65.3086 321.44 64.3364 322.304 63.2563 322.304Z" fill="#eed7a5"></path>
<path d="M45.4333 322.304H36.5758C35.3876 322.304 34.5235 321.332 34.5235 320.252V317.011C34.5235 315.823 35.4956 314.959 36.5758 314.959H45.4333C46.6215 314.959 47.4856 315.931 47.4856 317.011V320.252C47.4856 321.44 46.6215 322.304 45.4333 322.304Z" fill="#eed7a5"></path>
<path d="M63.2563 359.248H54.3988C53.2106 359.248 52.3464 358.275 52.3464 357.195V353.955C52.3464 352.767 53.3186 351.902 54.3988 351.902H63.2563C64.4445 351.902 65.3086 352.875 65.3086 353.955V357.195C65.3086 358.383 64.3364 359.248 63.2563 359.248Z" fill="#eed7a5"></path>
<path d="M45.4333 359.248H36.5758C35.3876 359.248 34.5235 358.275 34.5235 357.195V353.955C34.5235 352.767 35.4956 351.902 36.5758 351.902H45.4333C46.6215 351.902 47.4856 352.875 47.4856 353.955V357.195C47.4856 358.383 46.6215 359.248 45.4333 359.248Z" fill="#eed7a5"></path>
<path d="M63.2563 347.365H54.3988C53.2106 347.365 52.3464 346.393 52.3464 345.312V342.072C52.3464 340.884 53.3186 340.02 54.3988 340.02H63.2563C64.4445 340.02 65.3086 340.992 65.3086 342.072V345.312C65.3086 346.501 64.3364 347.365 63.2563 347.365Z" fill="#eed7a5"></path>
<path d="M45.4333 347.365H36.5758C35.3876 347.365 34.5235 346.393 34.5235 345.312V342.072C34.5235 340.884 35.4956 340.02 36.5758 340.02H45.4333C46.6215 340.02 47.4856 340.992 47.4856 342.072V345.312C47.4856 346.501 46.6215 347.365 45.4333 347.365Z" fill="#eed7a5"></path>
<path d="M489.928 60.3618H473.725C473.725 48.5878 464.111 38.9742 452.337 38.9742C440.563 38.9742 430.95 48.5878 430.95 60.3618H414.747C414.747 39.6223 431.598 22.7715 452.337 22.7715C472.969 22.7715 489.928 39.6223 489.928 60.3618Z" fill="#1a2837"></path>
<path d="M685.438 416.497C685.438 412.321 682.053 408.936 677.877 408.936C673.701 408.936 670.316 412.321 670.316 416.497V430.215H656.598C652.422 430.215 649.036 433.6 649.036 437.776C649.036 441.952 652.422 445.338 656.598 445.338H670.316V459.164C670.316 463.34 673.701 466.725 677.877 466.725C682.053 466.725 685.438 463.34 685.438 459.164V445.338H699.265C703.441 445.338 706.826 441.952 706.826 437.776C706.826 433.6 703.441 430.215 699.265 430.215H685.438V416.497Z" fill="#1a2837"></path>
<path fill-rule="evenodd" clip-rule="evenodd" d="M114.778 37.6772C114.778 34.9927 116.954 32.8164 119.638 32.8164H129.9C132.585 32.8164 134.761 34.9927 134.761 37.6772C134.761 40.3618 132.585 42.538 129.9 42.538H119.638C116.954 42.538 114.778 40.3618 114.778 37.6772Z" fill="#eed7a5"></path>
<path fill-rule="evenodd" clip-rule="evenodd" d="M144.267 37.6772C144.267 34.9927 146.444 32.8164 149.128 32.8164H157.923C160.607 32.8164 162.783 34.9927 162.783 37.6772C162.783 40.3618 160.607 42.538 157.923 42.538H149.128C146.444 42.538 144.267 40.3618 144.267 37.6772ZM170.651 37.6772C170.651 34.9927 172.827 32.8164 175.511 32.8164H193.1C195.785 32.8164 197.961 34.9927 197.961 37.6772C197.961 40.3618 195.785 42.538 193.1 42.538H175.511C172.827 42.538 170.651 40.3618 170.651 37.6772ZM205.829 37.6772C205.829 34.9927 208.005 32.8164 210.689 32.8164H228.278C230.963 32.8164 233.139 34.9927 233.139 37.6772C233.139 40.3618 230.963 42.538 228.278 42.538H210.689C208.005 42.538 205.829 40.3618 205.829 37.6772ZM241.006 37.6772C241.006 34.9927 243.183 32.8164 245.867 32.8164H254.662C257.346 32.8164 259.523 34.9927 259.523 37.6772C259.523 40.3618 257.346 42.538 254.662 42.538H245.867C243.183 42.538 241.006 40.3618 241.006 37.6772Z" fill="#eed7a5"></path>
<path d="M60.4478 37.6771C60.4478 54.636 74.1661 68.3542 91.1249 68.3542C102.035 68.3542 111.648 62.6293 117.049 53.9878L83.3476 40.1615L113.809 17.0457C108.192 10.8886 100.09 7 91.1249 7C74.1661 7 60.4478 20.7183 60.4478 37.6771Z" fill="#1a2837"></path>
<path d="M573.206 361.516C561.648 361.516 552.251 370.913 552.251 382.471C552.251 389.924 556.139 396.513 562.08 400.186L571.586 377.07L587.356 397.918C591.569 394.137 594.162 388.52 594.162 382.363C594.162 370.805 584.764 361.516 573.206 361.516Z" fill="#1a2837"></path>
<path fill-rule="evenodd" clip-rule="evenodd" d="M213.399 368.861C216.083 368.861 218.26 371.038 218.26 373.722V384.483C218.26 387.168 216.083 389.344 213.399 389.344C210.714 389.344 208.538 387.168 208.538 384.483V373.722C208.538 371.038 210.714 368.861 213.399 368.861ZM213.399 401.145C216.083 401.145 218.26 403.321 218.26 406.006V427.529C218.26 430.213 216.083 432.389 213.399 432.389C210.714 432.389 208.538 430.213 208.538 427.529V406.006C208.538 403.321 210.714 401.145 213.399 401.145ZM213.399 444.19C216.083 444.19 218.26 446.367 218.26 449.051V459.813C218.26 462.497 216.083 464.673 213.399 464.673C210.714 464.673 208.538 462.497 208.538 459.813V449.051C208.538 446.367 210.714 444.19 213.399 444.19Z" fill="#eed7a5"></path>
<path fill-rule="evenodd" clip-rule="evenodd" d="M573.209 393.92C575.893 393.92 578.069 396.096 578.069 398.781V409.529C578.069 412.213 575.893 414.389 573.209 414.389C570.524 414.389 568.348 412.213 568.348 409.529V398.781C568.348 396.096 570.524 393.92 573.209 393.92ZM573.209 426.163C575.893 426.163 578.069 428.34 578.069 431.024V452.52C578.069 455.204 575.893 457.381 573.209 457.381C570.524 457.381 568.348 455.204 568.348 452.52V431.024C568.348 428.34 570.524 426.163 573.209 426.163ZM573.209 469.154C575.893 469.154 578.069 471.331 578.069 474.015V484.763C578.069 487.448 575.893 489.624 573.209 489.624C570.524 489.624 568.348 487.448 568.348 484.763V474.015C568.348 471.331 570.524 469.154 573.209 469.154Z" fill="#db6d00"></path>
<path d="M53.857 552.276C53.857 563.834 63.2546 573.231 74.8125 573.231C82.2658 573.231 88.8549 569.343 92.5275 563.402L69.4116 553.896L90.2591 538.125C86.4785 533.913 80.8615 531.32 74.7045 531.32C63.2546 531.32 53.857 540.718 53.857 552.276Z" fill="#1a2837"></path>
<path fill-rule="evenodd" clip-rule="evenodd" d="M86.2624 552.275C86.2624 549.59 88.4387 547.414 91.1232 547.414H101.885C104.569 547.414 106.745 549.59 106.745 552.275C106.745 554.959 104.569 557.136 101.885 557.136H91.1232C88.4387 557.136 86.2624 554.959 86.2624 552.275ZM118.546 552.275C118.546 549.59 120.723 547.414 123.407 547.414H144.93C147.614 547.414 149.791 549.59 149.791 552.275C149.791 554.959 147.614 557.136 144.93 557.136H123.407C120.723 557.136 118.546 554.959 118.546 552.275ZM161.592 552.275C161.592 549.59 163.768 547.414 166.452 547.414H177.214C179.898 547.414 182.074 549.59 182.074 552.275C182.074 554.959 179.898 557.136 177.214 557.136H166.452C163.768 557.136 161.592 554.959 161.592 552.275Z" fill="#db6d00"></path>
<path fill-rule="evenodd" clip-rule="evenodd" d="M47.916 147.1C50.6006 147.1 52.7768 149.276 52.7768 151.96V162.722C52.7768 165.406 50.6006 167.583 47.916 167.583C45.2315 167.583 43.0552 165.406 43.0552 162.722V151.96C43.0552 149.276 45.2315 147.1 47.916 147.1ZM47.916 179.384C50.6006 179.384 52.7768 181.56 52.7768 184.244V205.767C52.7768 208.451 50.6006 210.628 47.916 210.628C45.2315 210.628 43.0552 208.451 43.0552 205.767V184.244C43.0552 181.56 45.2315 179.384 47.916 179.384ZM47.916 222.429C50.6006 222.429 52.7768 224.605 52.7768 227.29V238.051C52.7768 240.735 50.6006 242.912 47.916 242.912C45.2315 242.912 43.0552 240.735 43.0552 238.051V227.29C43.0552 224.605 45.2315 222.429 47.916 222.429Z" fill="#eed7a5"></path>
<circle cx="78.5097" cy="23.8554" r="4.34365" fill="#db6d00"></circle>
<circle cx="67.0531" cy="542.687" r="2.89217" fill="#db6d00"></circle>
<circle cx="584.262" cy="375.498" r="3.22635" fill="#db6d00"></circle>
<path d="M304.565 349.633H266.219C264.274 349.633 262.762 348.121 262.762 346.177V341.316C262.762 339.372 264.274 337.859 266.219 337.859H304.565C306.51 337.859 308.022 339.372 308.022 341.316V346.177C308.022 348.121 306.51 349.633 304.565 349.633Z" fill="#1a2837"></path>
<path d="M253.584 349.634H243.862C242.782 349.634 241.918 348.77 241.918 347.69V339.696C241.918 338.616 242.782 337.752 243.862 337.752H253.584C254.664 337.752 255.528 338.616 255.528 339.696V347.798C255.42 348.77 254.556 349.634 253.584 349.634Z" fill="#1a2837"></path>
</svg>