<svg width="400" height="300" viewBox="0 0 800 600" fill="none" xmlns="http://www.w3.org/2000/svg" data-reactroot="">
<path d="M716.241 393.746C716.241 456.542 616.116 505.553 437.671 505.553C259.225 505.553 100.355 490.393 70.0336 393.746C54.8726 298.994 145.835 321.735 126.883 192.872C197.001 64.0097 226.398 212.051 314.493 192.872C412.283 171.584 549.478 62.1146 619.594 88.6451C704.871 120.912 634.755 223.193 638.545 298.994C642.334 374.796 716.241 367.177 716.241 393.746Z" fill="#eed7a5" fill-opacity="0.1"></path>
<g opacity="0.5">
<path d="M673.536 225.536C673.536 243.798 667.398 260.626 657.073 274.07C651.809 280.196 638.299 290.204 633.839 303.59C631.045 311.977 628.968 348.65 627.807 374.868C627.127 390.209 614.544 402.402 599.189 402.402H588.756C573.249 402.402 560.601 389.987 560.134 374.487C559.315 347.303 557.7 309.123 554.974 302.426C550.662 291.833 536.311 281.647 530.492 274.07C520.167 260.626 514.029 243.798 514.029 225.536C514.029 181.49 549.736 145.783 593.782 145.783C637.829 145.783 673.536 181.49 673.536 225.536Z" fill="#eed7a5"></path>
<path fill-rule="evenodd" clip-rule="evenodd" d="M579.635 250.898C579.591 245.362 576.363 241.134 572.208 239.615C570.117 238.85 567.786 238.777 565.596 239.615C563.391 240.459 561.494 242.16 560.165 244.65C556.486 251.544 554.008 259.99 558.476 266.87C561.56 271.617 567.594 275.035 577.375 276.752L587.287 382.958H599.931L608.303 276.949C617.419 275.388 623.138 272.16 626.151 267.61C630.695 260.749 628.294 252.127 624.7 245.062C623.445 242.598 621.62 240.892 619.475 240.024C617.343 239.162 615.06 239.194 613.005 239.915C608.913 241.349 605.728 245.475 605.691 250.915L603.958 272.86C600.604 273.23 596.719 273.408 592.231 273.345C588.249 273.289 584.746 273.058 581.668 272.685L579.635 250.898ZM582.11 277.418L591.526 378.305H595.631L603.586 277.576C600.177 277.912 596.378 278.056 592.165 277.997C588.502 277.945 585.156 277.75 582.11 277.418ZM576.925 271.937L574.982 251.119V251.011C574.982 247.282 572.875 244.813 570.61 243.984C569.476 243.57 568.308 243.559 567.258 243.961C566.222 244.358 565.135 245.219 564.27 246.84C560.701 253.527 559.42 259.78 562.378 264.335C564.394 267.439 568.708 270.301 576.925 271.937ZM608.682 272.151C616.259 270.671 620.317 267.992 622.271 265.041C625.292 260.48 624.057 254.06 620.553 247.172C619.743 245.582 618.711 244.734 617.73 244.337C616.736 243.935 615.625 243.926 614.544 244.305C612.387 245.062 610.344 247.398 610.344 251.011V251.103L608.682 272.151Z" fill="white" fill-opacity="0.5"></path>
<path d="M588.756 402.4H599.189C614.545 402.4 627.128 390.205 627.807 374.865C627.959 371.437 628.127 367.831 628.309 364.133C622.166 365.664 610.905 368.634 593.783 368.262C576.661 367.889 562.223 365.354 559.799 364.133C559.923 367.692 560.034 371.164 560.134 374.474C560.601 389.974 573.25 402.4 588.756 402.4Z" fill="#eed7a5"></path>
<path d="M588.756 402.4H599.189C614.545 402.4 627.128 390.205 627.807 374.865C627.959 371.437 628.127 367.831 628.309 364.133C622.166 365.664 610.905 368.634 593.783 368.262C576.661 367.889 562.223 365.354 559.799 364.133C559.923 367.692 560.034 371.164 560.134 374.474C560.601 389.974 573.25 402.4 588.756 402.4Z" fill="white" fill-opacity="0.2"></path>
<path d="M581.7 117.441L592.082 34.3838L602.464 117.441C602.761 119.815 600.91 121.913 598.517 121.913H585.648C583.255 121.913 581.403 119.815 581.7 117.441Z" fill="#eed7a5"></path>
<path d="M519.786 141.117L482.958 65.951L537.155 129.739C538.705 131.562 538.305 134.332 536.304 135.643L525.539 142.694C523.537 144.006 520.839 143.266 519.786 141.117Z" fill="#eed7a5"></path>
<path d="M493.866 186.394L417.67 151.748L500.05 166.572C502.405 166.996 503.856 169.388 503.143 171.672L499.311 183.957C498.598 186.242 496.044 187.384 493.866 186.394Z" fill="#eed7a5"></path>
<path d="M638.368 124.391L701.249 69.1433L653.902 138.169C652.549 140.143 649.772 140.483 647.981 138.895L638.354 130.356C636.564 128.768 636.57 125.971 638.368 124.391Z" fill="#eed7a5"></path>
<path d="M683.496 165.688L766.625 155.894L688.465 185.849C686.23 186.706 683.751 185.41 683.178 183.086L680.099 170.591C679.526 168.268 681.12 165.968 683.496 165.688Z" fill="#eed7a5"></path>
</g>
<g opacity="0.5">
<path fill-rule="evenodd" clip-rule="evenodd" d="M155.033 112.982C155.16 115.346 153.982 117.581 152.001 118.868C148.505 121.14 145.1 123.542 141.793 126.066C139.899 127.513 137.376 127.861 135.19 126.913L97.6289 110.623C94.9411 109.457 91.8076 110.257 90.0028 112.57L67.1757 141.823C65.3618 144.148 65.3505 147.41 67.1482 149.747L91.3662 181.233C92.8674 183.184 93.1198 185.818 92.0871 188.055C89.8814 192.832 87.8974 197.733 86.1481 202.745C85.3648 204.99 83.4638 206.67 81.1311 207.095L41.2691 214.364C38.5545 214.859 36.4561 217.034 36.0517 219.771L31.07 253.496C30.6171 256.562 32.4003 259.519 35.3184 260.54L74.1389 274.121C76.4809 274.941 78.1343 277.038 78.4677 279.503C79.1971 284.898 80.1871 290.21 81.4245 295.425C81.9711 297.729 81.2834 300.163 79.5622 301.785L49.8227 329.804C47.7766 331.731 47.2117 334.766 48.4265 337.304L63.4793 368.756C64.7796 371.473 67.7808 372.927 70.7109 372.259L110.867 363.106C113.233 362.566 115.692 363.414 117.286 365.249C120.912 369.426 124.745 373.417 128.768 377.208C130.463 378.805 131.229 381.17 130.724 383.447L121.465 425.234C120.851 428.008 122.116 430.859 124.582 432.257L152.955 448.341C155.583 449.83 158.89 449.289 160.909 447.039L187.86 417.006C189.558 415.113 192.205 414.41 194.64 415.13C200.94 416.993 207.397 418.487 213.987 419.588C216.415 419.993 218.444 421.691 219.203 424.038L231.548 462.212C232.463 465.043 235.189 466.879 238.148 466.659L271.712 464.166C274.585 463.953 276.967 461.851 277.544 459.02L285.639 419.331C286.12 416.973 287.871 415.089 290.162 414.371C295.348 412.747 300.423 410.872 305.373 408.76C307.605 407.808 310.185 408.121 312.078 409.64L343.44 434.803C345.76 436.665 349.049 436.693 351.399 434.871L379.107 413.398C381.313 411.688 382.172 408.749 381.234 406.116L367.448 367.403C366.673 365.227 367.124 362.809 368.578 361.017C371.812 357.03 374.864 352.889 377.721 348.606C379.095 346.545 381.489 345.39 383.944 345.676L422.852 350.213C425.801 350.557 428.602 348.834 429.634 346.042L442.279 311.799C443.281 309.086 442.361 306.036 440.028 304.334L407.109 280.323C405.21 278.937 404.224 276.626 404.465 274.283C405.017 268.919 405.313 263.478 405.34 257.974C405.372 251.168 444.183 238.496 444.183 238.496C446.882 237.142 448.282 234.09 447.55 231.154L438.677 195.561C437.997 192.831 435.633 190.857 432.833 190.682L394.031 188.25C391.673 188.102 389.594 186.666 388.55 184.539C386.745 180.86 384.806 177.259 382.741 173.741C381.51 171.644 381.487 169.036 382.746 166.955L402.718 133.964C404.258 131.42 403.866 128.15 401.767 126.046L374.906 99.1064C372.905 97.0994 369.832 96.6382 367.333 97.9698L332.63 116.459C330.581 117.551 328.11 117.444 326.125 116.238C323.063 114.377 319.936 112.614 316.748 110.952C314.62 109.844 313.226 107.684 313.163 105.281L312.11 65.1176C312.034 62.2186 310.04 59.7261 307.235 59.0228L271.759 50.128C268.906 49.4126 265.932 50.7272 264.533 53.322L244.481 90.5267C243.823 91.7492 242.541 92.5002 241.156 92.5002C236.638 92.5002 232.162 92.6832 227.736 93.0423C225.415 93.2306 223.149 92.2086 221.806 90.3003L198.843 57.6745C197.206 55.3476 194.241 54.3716 191.547 55.2723L157.282 66.7273C154.531 67.6471 152.733 70.2978 152.889 73.202L155.033 112.982ZM119.97 257.166C119.97 324.29 174.227 378.705 241.156 378.705C308.084 378.705 362.341 324.29 362.341 257.166C362.341 190.041 308.084 135.626 241.156 135.626C174.227 135.626 119.97 190.041 119.97 257.166Z" fill="#eed7a5"></path>
<path fill-rule="evenodd" clip-rule="evenodd" d="M155.033 112.982C155.16 115.346 153.982 117.581 152.001 118.868C148.505 121.14 145.1 123.542 141.793 126.066C139.899 127.513 137.376 127.861 135.19 126.913L97.6289 110.623C94.9411 109.457 91.8076 110.257 90.0028 112.57L67.1757 141.823C65.3618 144.148 65.3505 147.41 67.1482 149.747L91.3662 181.233C92.8674 183.184 93.1198 185.818 92.0871 188.055C89.8814 192.832 87.8974 197.733 86.1481 202.745C85.3648 204.99 83.4638 206.67 81.1311 207.095L41.2691 214.364C38.5545 214.859 36.4561 217.034 36.0517 219.771L31.07 253.496C30.6171 256.562 32.4003 259.519 35.3184 260.54L74.1389 274.121C76.4809 274.941 78.1343 277.038 78.4677 279.503C79.1971 284.898 80.1871 290.21 81.4245 295.425C81.9711 297.729 81.2834 300.163 79.5622 301.785L49.8227 329.804C47.7766 331.731 47.2117 334.766 48.4265 337.304L63.4793 368.756C64.7796 371.473 67.7808 372.927 70.7109 372.259L110.867 363.106C113.233 362.566 115.692 363.414 117.286 365.249C120.912 369.426 124.745 373.417 128.768 377.208C130.463 378.805 131.229 381.17 130.724 383.447L121.465 425.234C120.851 428.008 122.116 430.859 124.582 432.257L152.955 448.341C155.583 449.83 158.89 449.289 160.909 447.039L187.86 417.006C189.558 415.113 192.205 414.41 194.64 415.13C200.94 416.993 207.397 418.487 213.987 419.588C216.415 419.993 218.444 421.691 219.203 424.038L231.548 462.212C232.463 465.043 235.189 466.879 238.148 466.659L271.712 464.166C274.585 463.953 276.967 461.851 277.544 459.02L285.639 419.331C286.12 416.973 287.871 415.089 290.162 414.371C295.348 412.747 300.423 410.872 305.373 408.76C307.605 407.808 310.185 408.121 312.078 409.64L343.44 434.803C345.76 436.665 349.049 436.693 351.399 434.871L379.107 413.398C381.313 411.688 382.172 408.749 381.234 406.116L367.448 367.403C366.673 365.227 367.124 362.809 368.578 361.017C371.812 357.03 374.864 352.889 377.721 348.606C379.095 346.545 381.489 345.39 383.944 345.676L422.852 350.213C425.801 350.557 428.602 348.834 429.634 346.042L442.279 311.799C443.281 309.086 442.361 306.036 440.028 304.334L407.109 280.323C405.21 278.937 404.224 276.626 404.465 274.283C405.017 268.919 405.313 263.478 405.34 257.974C405.372 251.168 444.183 238.496 444.183 238.496C446.882 237.142 448.282 234.09 447.55 231.154L438.677 195.561C437.997 192.831 435.633 190.857 432.833 190.682L394.031 188.25C391.673 188.102 389.594 186.666 388.55 184.539C386.745 180.86 384.806 177.259 382.741 173.741C381.51 171.644 381.487 169.036 382.746 166.955L402.718 133.964C404.258 131.42 403.866 128.15 401.767 126.046L374.906 99.1064C372.905 97.0994 369.832 96.6382 367.333 97.9698L332.63 116.459C330.581 117.551 328.11 117.444 326.125 116.238C323.063 114.377 319.936 112.614 316.748 110.952C314.62 109.844 313.226 107.684 313.163 105.281L312.11 65.1176C312.034 62.2186 310.04 59.7261 307.235 59.0228L271.759 50.128C268.906 49.4126 265.932 50.7272 264.533 53.322L244.481 90.5267C243.823 91.7492 242.541 92.5002 241.156 92.5002C236.638 92.5002 232.162 92.6832 227.736 93.0423C225.415 93.2306 223.149 92.2086 221.806 90.3003L198.843 57.6745C197.206 55.3476 194.241 54.3716 191.547 55.2723L157.282 66.7273C154.531 67.6471 152.733 70.2978 152.889 73.202L155.033 112.982ZM119.97 257.166C119.97 324.29 174.227 378.705 241.156 378.705C308.084 378.705 362.341 324.29 362.341 257.166C362.341 190.041 308.084 135.626 241.156 135.626C174.227 135.626 119.97 190.041 119.97 257.166Z" fill="black" fill-opacity="0.1"></path>
<path fill-rule="evenodd" clip-rule="evenodd" d="M149.695 255.413C149.695 306.533 191.137 347.974 242.257 347.974C293.377 347.974 334.818 306.533 334.818 255.413C334.818 204.293 293.377 162.852 242.257 162.852C191.137 162.852 149.695 204.293 149.695 255.413ZM242.257 362.152C183.306 362.152 135.518 314.364 135.518 255.413C135.518 196.463 183.306 148.674 242.257 148.674C301.207 148.674 348.996 196.463 348.996 255.413C348.996 314.364 301.207 362.152 242.257 362.152Z" fill="#1a2837"></path>
<circle cx="242.251" cy="255.412" r="161.732" stroke="#B4B3EE" stroke-width="6.45639"></circle>
<g style="mix-blend-mode:lighten">
<path d="M407.211 255.412C407.211 346.517 333.356 420.372 242.251 420.372C151.145 420.372 77.29 346.517 77.29 255.412C77.29 164.307 151.145 90.4512 242.251 90.4512C333.356 90.4512 407.211 164.307 407.211 255.412ZM120.493 255.412C120.493 322.656 175.006 377.169 242.251 377.169C309.495 377.169 364.008 322.656 364.008 255.412C364.008 188.167 309.495 133.654 242.251 133.654C175.006 133.654 120.493 188.167 120.493 255.412Z" fill="#eed7a5"></path>
</g>
</g>
<path d="M240.451 58.7352C240.595 59.0789 242.585 65.0266 242.445 65.469C241.307 69.0667 231.158 75.6776 217.936 81.2025C204.842 86.6741 193.107 89.2531 189.619 87.633C189.152 87.4161 186.839 81.573 186.684 81.2025C185.373 78.064 196.346 70.4903 211.193 64.2861C226.041 58.082 239.14 55.5967 240.451 58.7352Z" fill="#db6d00"></path>
<path d="M240.451 58.7352C240.595 59.0789 242.585 65.0266 242.445 65.469C241.307 69.0667 231.158 75.6776 217.936 81.2025C204.842 86.6741 193.107 89.2531 189.619 87.633C189.152 87.4161 186.839 81.573 186.684 81.2025C185.373 78.064 196.346 70.4903 211.193 64.2861C226.041 58.082 239.14 55.5967 240.451 58.7352Z" fill="black" fill-opacity="0.2"></path>
<path d="M240.451 58.7352C241.763 61.8737 230.79 69.4474 215.943 75.6515C201.095 81.8557 187.996 84.3409 186.684 81.2025C185.373 78.064 196.346 70.4903 211.193 64.2861C226.041 58.082 239.14 55.5967 240.451 58.7352Z" fill="#db6d00"></path>
<path d="M211.718 67.744C211.718 64.8718 217.077 63.0345 219.121 62.5328C221.097 62.0477 223.625 61.7551 225.627 62.0182L229.246 60.7266L231.97 62.0182L228.501 63.2378C229.6 64.4807 228.903 66.3038 227.855 67.1815C227.178 67.7485 225.872 68.0105 224.717 67.744C223.46 67.454 222.792 66.7965 222.792 66.7965C222.792 66.7965 223.6 65.5973 223.265 64.9016C222.88 64.102 221.25 63.8024 219.771 64.2205C218.291 64.6387 216.928 65.1977 216.928 66.7965C216.928 68.3954 219.385 68.0317 220.305 69.5799C221.696 71.9191 216.897 74.3364 212.664 75.65C208.53 76.9331 204.415 76.8624 202.34 75.9732L199.873 77.012L198.215 74.8801L200.769 73.8739C200.775 73.0691 201.227 72.3227 201.709 71.9191C202.449 71.2989 203.693 71.1492 204.433 71.1492C205.173 71.1492 206.477 71.5343 206.477 71.5343C206.112 71.8106 205.559 72.6891 206.121 73.2812C206.895 74.0975 209.852 73.903 211.332 73.5477C213.275 73.0814 214.856 72.1559 214.708 71.1492C214.491 69.6785 211.718 69.9806 211.718 67.744Z" fill="black" fill-opacity="0.5"></path>
<path d="M519.555 112.711C519.927 112.724 526.162 113.402 526.506 113.714C529.299 116.251 532.356 127.291 531.849 141.611C531.348 155.794 527.494 168.477 524.565 170.968C524.172 171.302 517.898 170.961 517.496 170.947C514.097 170.827 511.802 157.693 512.371 141.611C512.939 125.53 516.156 112.591 519.555 112.711Z" fill="#db6d00"></path>
<path d="M519.555 112.711C519.927 112.724 526.162 113.402 526.506 113.714C529.299 116.251 532.356 127.291 531.849 141.611C531.348 155.794 527.494 168.477 524.565 170.968C524.172 171.302 517.898 170.961 517.496 170.947C514.097 170.827 511.802 157.693 512.371 141.611C512.939 125.53 516.156 112.591 519.555 112.711Z" fill="black" fill-opacity="0.2"></path>
<path d="M519.557 112.71C522.956 112.83 526.971 125.529 526.403 141.61C525.834 157.692 520.897 171.066 517.498 170.946C514.099 170.826 510.438 157.692 511.007 141.61C511.576 125.529 516.157 112.59 519.557 112.71Z" fill="#db6d00"></path>
<path d="M515.733 142.58C513.123 141.379 513.694 135.743 514.092 133.677C514.477 131.679 515.268 129.26 516.344 127.55L516.683 123.723L518.995 121.788L518.653 125.45C520.241 124.97 521.606 126.365 521.966 127.684C522.198 128.536 521.89 129.833 521.165 130.77C520.376 131.791 519.5 132.123 519.5 132.123C519.5 132.123 518.748 130.888 517.976 130.902C517.089 130.917 516.136 132.273 515.897 133.791C515.659 135.31 515.597 136.782 517.049 137.45C518.502 138.119 519.198 135.735 520.989 135.546C523.696 135.26 523.886 140.629 523.311 145.024C522.748 149.317 520.965 153.025 519.29 154.539L519.202 157.214L516.573 157.83L516.726 155.089C515.997 154.747 515.508 154.024 515.343 153.418C515.089 152.486 515.472 151.294 515.782 150.621C516.091 149.949 516.986 148.925 516.986 148.925C517.084 149.372 517.651 150.242 518.424 149.979C519.489 149.616 520.548 146.849 520.844 145.356C521.232 143.396 521.052 141.572 520.076 141.287C518.649 140.869 517.765 143.514 515.733 142.58Z" fill="black" fill-opacity="0.5"></path>
<path d="M264.474 179.136C264.797 179.322 269.988 182.841 270.145 183.278C271.424 186.828 267.37 198.242 260.214 210.657C253.128 222.952 245.366 232.123 241.61 232.953C241.108 233.064 235.724 229.823 235.376 229.622C232.429 227.924 236.554 215.245 244.589 201.304C252.624 187.362 261.527 177.437 264.474 179.136Z" fill="#eed7a5"></path>
<path d="M264.472 179.136C264.794 179.322 269.985 182.841 270.142 183.278C271.421 186.828 267.367 198.242 260.211 210.657C253.125 222.952 245.363 232.123 241.608 232.953C241.105 233.064 235.721 229.823 235.373 229.622C232.426 227.924 236.551 215.245 244.586 201.304C252.622 187.362 261.525 177.437 264.472 179.136Z" fill="black" fill-opacity="0.2"></path>
<path d="M264.474 179.137C267.421 180.835 263.296 193.514 255.261 207.455C247.226 221.397 238.323 231.322 235.376 229.623C232.429 227.925 236.554 215.246 244.589 201.304C252.624 187.363 261.527 177.438 264.474 179.137Z" fill="#eed7a5"></path>
<path d="M247.103 203.734C245.36 201.451 248.504 196.739 249.824 195.1C251.1 193.515 252.931 191.748 254.683 190.742L256.775 187.519L259.724 186.893L257.707 189.968C259.335 190.288 259.887 192.16 259.587 193.493C259.393 194.355 258.514 195.356 257.434 195.845C256.259 196.378 255.329 196.26 255.329 196.26C255.329 196.26 255.243 194.817 254.555 194.467C253.764 194.065 252.287 194.816 251.365 196.046C250.443 197.277 249.698 198.548 250.669 199.819C251.639 201.09 253.371 199.31 255.042 199.982C257.567 200.997 255.22 205.83 252.653 209.443C250.145 212.972 246.832 215.413 244.643 215.966L243.313 218.289L240.701 217.601L242.12 215.251C241.637 214.607 241.543 213.74 241.681 213.127C241.893 212.185 242.791 211.311 243.379 210.862C243.967 210.412 245.237 209.927 245.237 209.927C245.115 210.368 245.209 211.402 246.014 211.532C247.125 211.711 249.357 209.762 250.318 208.581C251.579 207.031 252.275 205.336 251.545 204.626C250.48 203.589 248.46 205.512 247.103 203.734Z" fill="black" fill-opacity="0.5"></path>
<path d="M499.458 27.534C499.781 27.7199 504.971 31.2397 505.129 31.6762C506.408 35.2262 502.353 46.6399 495.198 59.055C488.111 71.3505 480.349 80.5218 476.594 81.3511C476.091 81.4621 470.707 78.2215 470.359 78.0209C467.412 76.3224 471.537 63.6435 479.572 49.702C487.608 35.7604 496.511 25.8354 499.458 27.534Z" fill="#eed7a5"></path>
<path d="M499.455 27.534C499.778 27.7199 504.969 31.2397 505.126 31.6762C506.405 35.2262 502.35 46.6399 495.195 59.055C488.108 71.3505 480.347 80.5218 476.591 81.3511C476.088 81.4621 470.704 78.2215 470.356 78.0209C467.409 76.3224 471.534 63.6435 479.57 49.702C487.605 35.7604 496.508 25.8354 499.455 27.534Z" fill="black" fill-opacity="0.2"></path>
<path d="M499.458 27.5349C502.405 29.2335 498.28 41.9123 490.244 55.8539C482.209 69.7955 473.306 79.7204 470.359 78.0219C467.412 76.3234 471.537 63.6445 479.572 49.7029C487.608 35.7613 496.511 25.8364 499.458 27.5349Z" fill="#eed7a5"></path>
<path d="M482.087 52.1324C480.344 49.8495 483.488 45.137 484.808 43.4981C486.084 41.9134 487.916 40.1465 489.667 39.1404L491.759 35.9176L494.708 35.291L492.691 38.366C494.319 38.6864 494.872 40.5584 494.572 41.8919C494.378 42.7535 493.498 43.7546 492.418 44.2437C491.243 44.776 490.314 44.6587 490.314 44.6587C490.314 44.6587 490.228 43.2155 489.539 42.8658C488.748 42.4638 487.271 43.2147 486.349 44.4449C485.427 45.6751 484.683 46.9466 485.653 48.2174C486.623 49.4881 488.355 47.7084 490.026 48.3804C492.551 49.3957 490.204 54.2287 487.637 57.8417C485.13 61.3708 481.817 63.8115 479.628 64.3643L478.297 66.6871L475.686 65.999L477.105 63.6493C476.621 63.0059 476.528 62.1383 476.666 61.5252C476.878 60.583 477.775 59.7093 478.363 59.2601C478.952 58.8108 480.222 58.3255 480.222 58.3255C480.099 58.7667 480.193 59.8004 480.999 59.9301C482.11 60.109 484.341 58.1603 485.302 56.9794C486.564 55.4297 487.259 53.7344 486.53 53.0245C485.465 51.9873 483.444 53.91 482.087 52.1324Z" fill="black" fill-opacity="0.5"></path>
<path d="M168.249 306.92C168.256 307.293 167.907 313.555 167.613 313.914C165.226 316.836 156.793 321.626 139.011 321.626C121.23 321.626 112.978 317.781 110.336 314.986C109.982 314.612 109.993 308.328 109.986 307.926C109.927 304.526 118.653 299.711 139.013 299.359C155.102 299.081 168.191 303.519 168.249 306.92Z" fill="#db6d00"></path>
<path d="M168.249 306.92C168.256 307.293 167.907 313.555 167.613 313.914C165.226 316.836 156.793 321.626 139.011 321.626C121.23 321.626 112.978 317.781 110.336 314.986C109.982 314.612 109.993 308.328 109.986 307.926C109.927 304.526 118.653 299.711 139.013 299.359C155.102 299.081 168.191 303.519 168.249 306.92Z" fill="black" fill-opacity="0.2"></path>
<path d="M168.246 306.918C168.305 310.319 158.446 315.84 139.024 316.176C119.601 316.511 110.041 311.326 109.983 307.925C109.924 304.524 118.162 299.456 137.604 299.12C157.044 298.785 168.188 303.518 168.246 306.918Z" fill="#db6d00"></path>
<path d="M138.217 304.67C139.278 302.001 144.937 302.275 147.021 302.564C149.036 302.843 151.494 303.506 153.257 304.49L157.097 304.627L159.151 306.834L155.476 306.685C156.039 308.247 154.718 309.683 153.42 310.111C152.581 310.388 151.27 310.149 150.295 309.474C149.235 308.74 148.857 307.883 148.857 307.883C148.857 307.883 150.051 307.067 149.997 306.296C149.934 305.411 148.531 304.531 147.002 304.372C145.472 304.214 143.999 304.23 143.408 305.715C142.817 307.201 145.234 307.771 145.517 309.55C145.945 312.237 140.593 312.71 136.174 312.366C131.858 312.031 128.061 310.444 126.461 308.851L123.785 308.905L123.032 306.311L125.777 306.32C126.08 305.574 126.776 305.048 127.373 304.851C128.29 304.548 129.501 304.869 130.189 305.142C130.877 305.416 131.946 306.255 131.946 306.255C131.505 306.377 130.666 306.989 130.969 307.747C131.387 308.792 134.206 309.704 135.713 309.92C137.691 310.205 139.502 309.93 139.736 308.939C140.078 307.493 137.39 306.749 138.217 304.67Z" fill="black" fill-opacity="0.5"></path>
<path d="M696.62 274.937C696.83 275.244 699.98 280.667 699.933 281.129C699.545 284.882 690.941 293.407 679.108 301.489C667.389 309.494 656.417 314.39 652.674 313.508C652.173 313.39 648.727 308.135 648.501 307.803C646.582 304.994 655.799 295.36 669.087 286.284C682.374 277.208 694.701 272.128 696.62 274.937Z" fill="#1a2837"></path>
<path d="M696.62 274.937C696.83 275.244 699.98 280.667 699.933 281.129C699.545 284.882 690.941 293.407 679.108 301.489C667.389 309.494 656.417 314.39 652.674 313.508C652.173 313.39 648.727 308.135 648.501 307.803C646.582 304.994 655.799 295.36 669.087 286.284C682.374 277.208 694.701 272.128 696.62 274.937Z" fill="white" fill-opacity="0.2"></path>
<path d="M696.615 274.937C698.533 277.745 689.317 287.38 676.029 296.456C662.741 305.532 650.414 310.612 648.496 307.803C646.577 304.994 655.794 295.36 669.082 286.284C682.369 277.208 694.696 272.128 696.615 274.937Z" fill="#1a2837"></path>
<path d="M670.294 289.564C669.714 286.751 674.591 283.869 676.491 282.965C678.328 282.091 680.745 281.293 682.759 281.147L686.043 279.15L688.972 279.865L685.82 281.76C687.148 282.756 686.834 284.682 685.985 285.753C685.436 286.445 684.21 286.966 683.025 286.938C681.735 286.908 680.948 286.399 680.948 286.399C680.948 286.399 681.497 285.061 681.028 284.448C680.49 283.742 678.833 283.778 677.469 284.487C676.104 285.195 674.882 286.018 675.205 287.584C675.528 289.15 677.86 288.297 679.074 289.628C680.909 291.638 676.698 294.974 672.818 297.116C669.028 299.208 664.984 299.97 662.772 299.519L660.565 301.034L658.511 299.281L660.809 297.78C660.652 296.99 660.944 296.168 661.334 295.676C661.934 294.919 663.122 294.521 663.847 294.371C664.572 294.222 665.927 294.335 665.927 294.335C665.625 294.68 665.261 295.652 665.931 296.118C666.854 296.761 669.71 295.973 671.088 295.326C672.897 294.477 674.259 293.251 673.91 292.295C673.4 290.899 670.746 291.755 670.294 289.564Z" fill="white" fill-opacity="0.5"></path>
<path d="M633.715 497.024H222.266C196.052 497.024 203.163 434.896 212.496 426.061L248.53 391.951C251.169 389.452 254.666 388.06 258.301 388.06H609.424C614.021 388.06 618.335 390.283 621.001 394.028L645.292 428.139C651.993 437.548 658.44 497.024 633.715 497.024Z" fill="#eed7a5"></path>
<path d="M633.715 497.024H222.266C196.052 497.024 203.163 434.896 212.496 426.061L248.53 391.951C251.169 389.452 254.666 388.06 258.301 388.06H609.424C614.021 388.06 618.335 390.283 621.001 394.028L645.292 428.139C651.993 437.548 658.44 497.024 633.715 497.024Z" fill="black" fill-opacity="0.2"></path>
<path d="M633.716 450.596H222.268C209.417 450.596 203.164 434.896 212.497 426.061L248.531 391.951C251.171 389.452 254.667 388.06 258.302 388.06H609.425C614.023 388.06 618.336 390.283 621.003 394.028L645.294 428.139C651.994 437.548 645.267 450.596 633.716 450.596Z" fill="#eed7a5"></path>
<path d="M424.764 89.4777L428.08 107.007C428.08 107.007 427.133 126.905 427.133 136.38C427.133 148.224 434.239 159.594 438.503 163.384C442.767 167.174 456.506 174.755 460.296 181.387C464.086 188.02 458.401 210.286 454.137 220.235C448.501 233.386 423.456 220.478 409.604 235.396C391.127 255.293 368.86 229.711 348.015 229.711C348.331 210.918 345.646 174.66 345.646 172.386C345.646 169.543 342.33 147.277 339.961 140.17C337.592 133.064 336.171 106.059 336.171 98.4793C336.171 90.8993 338.066 87.583 339.013 76.2127C339.961 64.8423 348.015 65.7898 351.805 56.7884C355.595 47.7869 363.175 48.261 371.703 44.9445C380.231 41.6281 389.706 50.6297 391.127 52.5247C391.984 53.6678 392.497 55.5005 392.665 56.7748C393.21 54.1256 394.909 48.7346 396.338 48.7346C398.233 48.7346 406.761 53.946 411.025 58.2098C414.436 61.6209 419.079 72.5805 420.974 77.6339L424.764 89.4777Z" fill="#1a2837"></path>
<path d="M442.523 194.931C443.069 205.827 445.723 223.241 451.293 227.089C460.251 233.276 465.202 256.33 468.234 261.257C472.024 267.416 481.499 279.733 483.394 285.892C484.91 290.819 490.342 293.946 492.869 294.894C493.817 294.736 497.512 293.851 504.713 291.577C513.715 288.735 529.384 277.858 544.15 268.306C555.047 261.257 558.363 256.462 568.312 247.46C572.237 243.909 589.145 231.744 592.474 229.931C597.8 227.031 607.574 228.984 611.898 225.667C616.222 222.351 617.109 218.561 619.952 215.718C622.794 212.876 633.087 206.243 633.087 206.243L637.955 201.506C637.955 201.506 642.692 196.294 644.113 194.873C645.535 193.452 646.008 192.504 645.061 191.557C644.113 190.609 641.745 190.609 639.85 192.03C637.955 193.452 634.638 197.242 634.638 197.242L629.901 201.979L618.53 209.56L629.427 201.506L634.164 197.242C634.164 197.242 639.85 190.609 642.218 189.188C644.587 187.767 644.439 186.197 643.64 185.398C642.84 184.598 640.323 184.45 638.428 185.872C636.533 187.293 630.848 192.978 630.848 192.978L625.507 197.716L614.74 203.874L625.163 197.242L629.427 192.504C629.427 192.504 631.917 189.877 634.164 187.767C635.279 186.72 637.324 185.552 637.481 184.924C637.955 183.029 634.164 182.555 631.796 183.503C629.427 184.45 628.479 186.345 626.111 188.24L621.243 193.452L611.294 198.663H603.37C603.37 198.663 604.318 196.768 606.213 195.347C608.108 193.926 609.185 192.504 610.477 191.083C611.768 189.662 612.479 187.293 611.294 186.345C610.11 185.398 607.002 186.345 605.739 187.293C604.476 188.24 601.475 190.609 601.475 190.609C601.475 190.609 598.632 192.504 595.316 194.399C592 196.294 588.524 197.299 586.315 202.453C584.106 207.607 583.946 209.56 582.525 211.928C581.104 214.297 575.519 219.137 569.733 222.351C561.206 227.089 537.991 236.195 527.095 242.249C516.199 248.303 508.661 254.94 501.397 261.257C499.66 257.151 495.522 247.139 492.869 239.938C489.553 230.936 477.579 203.932 470.603 191.614C463.626 179.297 454.839 168.4 446.785 169.348C442.047 175.033 441.977 184.034 442.523 194.931Z" fill="#E4ADB0"></path>
<path d="M586.315 202.453C584.107 207.607 583.947 209.56 582.525 211.929H587.263C590.263 210.349 595.317 209.56 598.633 207.191C600.294 206.005 602.581 200.874 603.371 198.663C603.371 198.663 604.318 196.768 606.213 195.347C608.108 193.926 609.185 192.504 610.477 191.083C611.769 189.662 612.479 187.293 611.295 186.346C610.111 185.398 607.003 186.346 605.74 187.293C604.476 188.241 601.476 190.609 601.476 190.609C601.476 190.609 598.633 192.504 595.317 194.4C592.001 196.295 588.524 197.3 586.315 202.453Z" fill="black" fill-opacity="0.01"></path>
<path d="M636.347 206.12C636.347 206.12 640.106 202.466 642.098 200.673C644.09 198.881 646.058 197.562 645.161 196.565C644.265 195.569 641.455 194.889 639.484 196.266C637.514 197.642 633.26 201.688 633.26 201.688L627.413 207.072C627.413 207.072 622.321 210.981 617.584 212.876C612.846 214.771 609.913 226.036 611.067 226.036C612.22 226.036 630.972 211.53 630.972 211.53L636.347 206.12Z" fill="#E0AAAD"></path>
<path d="M386.044 151.288C391.255 153.183 399.119 151.288 403.099 148.445C404.946 147.126 407.017 144.378 408.944 141.339C408.944 141.339 406.889 148.445 407.233 152.235C407.578 156.025 409.318 162.279 411.971 164.553C415.287 167.395 420.499 167.869 429.026 168.343C436.566 168.762 443.713 168.975 446.555 169.29C445.45 175.607 443.498 182.082 443.842 192.978C444.187 203.875 445.608 219.509 451.422 224.72C454.897 227.834 449.527 243.671 447.159 254.567C444.79 265.464 443.538 263.764 441.344 275.412C438.846 288.678 438.975 293.889 439.923 303.364C440.87 312.839 446.685 316.156 451.422 328.473C455.213 338.328 456.188 344.108 458.873 347.898C449.24 349.635 437.175 355.383 426.184 362.584C415.192 369.785 405.338 384.377 403.099 387.693C396.308 381.85 381.899 365.185 374.2 358.794C365.069 351.214 354.618 344.265 347.195 341.739C352.249 332.106 362.226 312.114 362.226 303.364C362.226 289.625 358.953 277.261 355.12 273.044C350.382 267.832 343.608 262.147 341.037 253.146C338.465 244.144 341.352 232.616 341.037 228.037C342.616 221.72 343.276 210.981 343.276 202.927C343.276 195.347 339.96 176.871 334.274 176.871C337.907 175.291 345.996 175.312 350.856 174.502C359.384 173.08 364.095 171.93 368.859 169.764C373.623 167.599 374.544 157.446 374.544 152.235C374.544 148.24 369.878 140.881 367.404 136.661C367.298 136.484 367.194 136.306 367.093 136.127C367.192 136.299 367.296 136.477 367.404 136.661C371.802 143.974 380.955 149.437 386.044 151.288Z" fill="#D1A1A4"></path>
<path d="M383.675 57.4824C363.266 57.4824 346.722 74.0269 346.722 94.4356C346.722 103.45 349.949 111.71 355.311 118.124C355.311 118.124 362.829 128.546 367.093 136.126C371.357 143.707 380.832 149.392 386.044 151.287C391.255 153.182 399.119 151.287 403.099 148.444C404.946 147.125 407.017 144.377 408.944 141.338C411.168 137.828 413.2 133.928 414.469 131.389C416.838 126.651 419.402 103.911 419.402 103.911C420.202 100.887 420.628 97.711 420.628 94.4356C420.628 74.0269 404.084 57.4824 383.675 57.4824Z" fill="#E4ADB0"></path>
<path d="M400.601 391.485C400.601 410.062 417.182 426.542 438.975 422.278C460.768 418.014 457.925 407.727 469.296 402.854C480.666 397.981 493.457 394.802 505.775 391.485C518.159 388.151 531.049 374.427 528.989 364.953C526.621 354.057 521.883 344.582 510.039 342.687C494.313 340.17 463.611 347.424 456.03 347.424C449.966 347.424 446.081 347.901 433.29 351.69C413.866 357.443 400.601 372.908 400.601 391.485Z" fill="#E4ADB0"></path>
<path d="M438.975 422.278C417.183 426.541 400.601 410.062 400.601 391.485L399.18 309.997L438.975 308.102L449.398 325.631L456.031 347.424C463.611 347.424 494.314 340.17 510.039 342.686C521.883 344.581 526.621 354.057 528.99 364.953C531.049 374.427 518.159 388.151 505.776 391.485C493.458 394.801 480.666 397.981 469.296 402.854C457.926 407.727 460.768 418.014 438.975 422.278Z" fill="#1a2837"></path>
<path d="M438.975 422.278C417.183 426.541 400.601 410.062 400.601 391.485L399.18 309.997L438.975 308.102L449.398 325.631L456.031 347.424C463.611 347.424 494.314 340.17 510.039 342.686C521.883 344.581 526.621 354.057 528.99 364.953C531.049 374.427 518.159 388.151 505.776 391.485C493.458 394.801 480.666 397.981 469.296 402.854C457.926 407.727 460.768 418.014 438.975 422.278Z" fill="black" fill-opacity="0.17"></path>
<path d="M405.813 391.484C404.11 374.276 383.132 353.134 359.384 343.634C347.54 338.896 344.698 338.423 339.501 359.74C339.501 359.74 338.076 365.422 335.709 367.317C333.341 369.212 301.597 365.422 294.02 377.74C286.443 390.058 286.914 394.795 289.755 405.218C292.597 415.641 304.938 420.378 322.917 421.326C340.896 422.273 336.644 420.857 352.278 419.909C367.912 418.962 380.703 422.709 393.021 419.909C405.339 417.11 407.219 405.698 405.813 391.484Z" fill="#E4ADB0"></path>
<path d="M335.709 367.317C338.076 365.422 339.501 359.74 339.501 359.74C340.32 356.379 341.081 353.56 341.828 351.214L360.332 309.997C363.806 311.576 370.186 311.702 381.177 312.839C392.168 313.976 399.496 314.418 401.549 314.26L405.813 391.483C407.219 405.698 405.339 417.109 393.021 419.909C380.703 422.708 367.912 418.961 352.278 419.909C336.644 420.856 340.896 422.273 322.917 421.325C304.938 420.378 292.597 415.64 289.755 405.218C286.914 394.795 286.443 390.057 294.02 377.74C301.597 365.422 333.341 369.212 335.709 367.317Z" fill="#1a2837"></path>
<path d="M335.709 367.317C338.076 365.422 339.501 359.74 339.501 359.74C340.32 356.379 341.081 353.56 341.828 351.214L360.332 309.997C363.806 311.576 370.186 311.702 381.177 312.839C392.168 313.976 399.496 314.418 401.549 314.26L405.813 391.483C407.219 405.698 405.339 417.109 393.021 419.909C380.703 422.708 367.912 418.961 352.278 419.909C336.644 420.856 340.896 422.273 322.917 421.325C304.938 420.378 292.597 415.64 289.755 405.218C286.914 394.795 286.443 390.057 294.02 377.74C301.597 365.422 333.341 369.212 335.709 367.317Z" fill="black" fill-opacity="0.25"></path>
<path d="M334.389 176.764C338.021 175.185 346.11 175.205 350.97 174.395C355.004 173.723 356.289 173.187 359.024 172.5C360.086 181.369 359.024 199.504 359.024 207.085C359.024 214.822 364.116 226.18 376.553 226.982C391.24 227.93 404.505 226.982 411.138 226.982C417.77 226.982 429.141 222.719 429.141 211.822V168.236C436.681 168.655 443.827 168.868 446.67 169.184C445.564 175.501 443.612 181.975 443.957 192.872C444.301 203.768 445.722 219.402 451.537 224.614C455.011 227.728 451.407 244.512 449.038 255.408C446.67 266.304 445.073 264.131 442.88 275.78C440.381 289.045 440.511 295.204 441.458 304.679C442.406 314.154 448.091 316.049 452.828 328.367C456.619 338.221 456.776 343.053 459.461 346.844C449.828 348.581 443.957 350.16 423.455 357.266C402.954 364.373 392.058 357.74 376.553 355.371C361.049 353.002 344.597 347.317 341.151 350.16C337.705 353.002 360.445 313.429 360.445 304.679C360.445 290.94 357.646 279.523 353.813 275.306C349.075 270.095 343.119 264.409 340.548 255.408C337.976 246.407 341.467 232.51 341.151 227.93C342.73 221.613 343.39 210.875 343.39 202.821C343.39 195.241 340.074 176.764 334.389 176.764Z" fill="#db6d00"></path>
<path d="M394.442 81.1709C399.369 75.0122 400.127 71.2222 402.022 67.4321C402.022 69.3271 403.917 77.381 405.338 79.7496C406.759 82.1182 411.497 88.7513 411.497 88.7513C411.233 86.9066 408.586 83.2488 407.233 79.7496C406.154 76.9581 405.812 74.5691 405.812 74.0645C405.812 72.9275 408.654 81.013 410.076 84.0135C412.918 90.6463 413.392 90.5279 415.287 93.1928C417.182 95.8576 419.551 98.2264 421.92 99.6477C424.288 101.069 426.183 101.543 429.026 101.069C431.869 100.595 433.764 99.6477 433.764 99.6477C431.237 99.6477 431.3 100.121 429.026 100.121C426.183 100.121 421.15 95.8574 419.255 93.0149C417.991 91.1197 415.603 84.9612 415.287 83.0662C415.287 83.0662 420.025 93.4889 424.762 96.8051C429.5 100.121 430.921 99.4108 431.869 99.174C432.816 98.9372 434.711 97.7525 435.659 96.8051C435.659 96.8051 431.869 99.1742 428.078 95.8576C424.288 92.5411 424.762 90.6463 423.341 86.3825C421.92 82.1187 420.972 84.0135 420.025 77.381C419.077 70.7485 413.866 61.7473 411.497 58.4308C409.128 55.1143 405.338 51.0086 400.6 49.4294C395.863 47.8502 390.178 48.4819 390.178 48.4819C390.178 48.4819 386.388 48.0081 384.966 46.1131C383.545 44.218 379.281 41.3751 370.754 44.6916C362.226 48.0081 354.646 47.534 350.856 56.5354C347.066 65.5369 339.012 64.5893 338.064 75.9597C337.117 87.3301 335.222 90.6464 335.222 98.2264C335.222 105.806 336.643 132.811 339.012 139.917C341.381 147.024 344.697 169.29 344.697 172.133C344.697 174.407 345.96 212.087 345.644 230.879C346.908 225.668 348.487 224.246 349.908 213.824C351.329 203.402 355.435 203.559 356.067 191.083C356.541 200.401 353.751 205.77 353.225 210.508C352.698 215.245 351.329 219.983 348.013 226.615C348.013 226.615 373.122 211.929 375.491 184.451C377.86 156.973 361.691 158.891 356.067 144.181C349.908 128.073 354.172 117.65 353.225 110.07C352.277 102.49 357.962 102.49 360.805 96.8051C363.391 91.6328 365.59 92.1623 371.701 84.0135L363.173 95.3839L354.646 106.28C357.646 104.543 364.083 99.6851 366.016 97.7525C371.227 92.541 373.596 90.6461 375.491 86.856L378.808 81.1709C378.808 81.1709 375.965 87.3298 373.122 91.5938C370.28 95.8578 366.174 97.9106 363.173 102.49C363.173 102.49 366.49 98.5225 371.701 95.8576C376.912 93.1928 378.808 90.6463 378.808 90.6463C378.808 90.6463 383.545 86.3823 386.861 81.6449C390.178 76.9075 391.599 75.0123 391.599 75.0123L394.442 71.2222C394.442 71.2222 393.02 75.4858 389.704 79.7496C386.388 84.0135 378.808 93.0149 378.808 93.0149C383.229 89.0669 389.514 87.3296 394.442 81.1709Z" fill="#1a2837"></path>
<path d="M343.75 203.402C343.75 193.926 340.434 176.871 334.749 176.871C334.749 176.871 323.98 180.187 314.377 192.031C304.773 203.875 297.322 218.088 291.163 228.037C285.004 237.986 268.077 263.095 268.077 263.095L227.807 242.724C227.807 242.724 202.699 232.301 194.645 228.511C186.591 224.721 179.958 220.931 175.221 218.562C170.483 216.193 161.955 209.087 155.323 208.613C148.69 208.139 143.479 208.297 139.689 207.665C135.899 207.034 134.477 205.77 131.161 205.77C127.845 205.77 124.055 210.034 127.716 210.982C131.377 211.929 134.822 212.877 134.822 212.877L141.929 214.298L138.268 217.141C138.268 217.141 129.007 218.088 128.19 218.088C127.372 218.088 123.453 217.614 120.609 217.141C117.766 216.667 118.24 216.636 115.398 216.193C115.398 216.193 112.854 215.689 110.013 216.162C107.171 216.636 105.747 219.952 108.588 219.952C111.428 219.952 116.05 220.457 117.767 220.931C119.484 221.404 126.768 222.826 127.716 222.826H137.318C137.318 222.826 127.716 223.773 126.897 223.773C126.079 223.773 119.465 221.695 117.767 221.404C116.068 221.114 111.783 220.863 108.941 220.457C106.098 220.051 103.729 222.352 104.203 223.773C104.677 225.195 108.467 224.721 108.467 224.721C108.467 224.721 114.92 225.195 116.817 225.668C118.714 226.142 124.183 228.037 125.475 228.037C126.768 228.037 137.792 228.511 137.792 228.511H125.82C124.399 228.511 118.714 226.616 116.819 226.142C114.924 225.668 110.362 225.668 108.941 226.142C107.52 226.616 104.203 229.932 107.52 230.406C110.836 230.88 112.114 230.81 115.573 230.88C121.213 230.992 125.723 233.722 126.897 233.722C128.792 233.722 139.559 235.143 147.613 235.143C155.667 235.143 160.534 230.406 164.324 230.88C168.114 231.353 174.083 234.196 179.01 237.986C185.169 242.724 211.7 265.464 218.806 269.728C225.912 273.992 243.441 285.836 251.021 288.678C258.404 291.447 267.603 300.996 278.973 291.047C290.343 281.098 295.555 273.518 306.451 263.569C317.348 253.62 319.243 246.987 323.98 240.829C328.718 234.67 337.907 231.827 341.381 228.037C342.96 221.72 343.75 214.298 343.75 203.402Z" fill="#E4ADB0"></path>
<path d="M139.688 207.665C143.478 208.296 148.69 208.138 155.322 208.612C160.558 208.986 166.974 213.493 171.775 216.54C171.775 216.54 163.721 219.982 157.088 218.561C150.456 217.14 141.928 214.297 141.928 214.297L134.822 212.876C134.822 212.876 131.377 211.928 127.715 210.981C124.054 210.033 127.844 205.77 131.161 205.77C134.477 205.77 135.898 207.033 139.688 207.665Z" fill="black" fill-opacity="0.02"></path>
<path d="M131.753 230.78C131.753 230.78 137.438 229.832 140.625 230.78C143.813 231.727 147.254 235.038 147.254 235.038C147.254 235.038 133.858 235.505 131.62 235.511C129.383 235.517 121.676 233.143 121.676 233.143C121.676 233.143 113.141 232.669 110.301 232.669C107.461 232.669 108.884 229.352 111.726 228.879C114.568 228.405 114.917 228.909 116.463 228.879C120.089 228.806 122.149 228.879 122.149 228.879L131.753 230.78Z" fill="#DEA9AC"></path>
<path d="M286.674 397.138C288.727 376.603 295.526 374.399 305.001 371.365C314.476 368.33 343.847 374.281 355.58 382.96C367.314 391.639 397.22 404.148 408.472 409.631C434.938 422.527 451.153 428.532 458.481 429.667C464.722 430.634 471.223 427.91 478.032 425.474C479.218 425.05 480.414 424.634 481.619 424.248C484.5 423.325 487.183 422.905 489.639 422.884C494.104 422.847 497.821 424.131 500.624 426.121C504.969 429.206 508.748 435.957 516.834 436.353C524.92 436.748 538.456 432.413 545.262 439.685C552.068 446.958 559.419 456.414 559.592 459.251C559.766 462.089 558.749 464.716 555.411 468.273C552.072 471.829 536.549 466.851 530.124 465.426C528.41 465.046 526.531 464.353 524.358 463.552L524.011 463.424C518 461.209 509.751 458.268 496.642 458.736C480.904 459.299 470.597 456.63 462.06 456.38C456.338 456.212 403.238 451.337 395.766 449.75C388.293 448.163 348.023 441.674 334.071 434.187C316.653 424.84 284.622 417.673 286.674 397.138Z" fill="#F8BCBF"></path>
<path d="M304.03 370.447C294.555 373.481 287.81 377.134 285.758 397.669C283.705 418.204 316.138 424.871 333.556 434.218C347.508 441.705 388.351 449.636 395.824 451.222C403.296 452.809 444.199 458.366 453.234 458.631C462.268 458.896 473.297 460.727 474.63 459.222C475.964 457.717 475.599 455.552 477.07 444.781C478.541 434.01 472.686 427.397 472.686 427.397C467.798 429.094 461.093 427.416 456.505 426.705C449.177 425.569 434.379 421.137 407.913 408.24C396.661 402.757 367.758 391.137 356.025 382.458C344.292 373.779 313.505 367.413 304.03 370.447Z" fill="#1a2837"></path>
<path d="M304.03 370.447C294.555 373.481 287.81 377.134 285.758 397.669C283.705 418.204 316.138 424.871 333.556 434.218C347.508 441.705 388.351 449.636 395.824 451.222C403.296 452.809 444.199 458.366 453.234 458.631C462.268 458.896 473.297 460.727 474.63 459.222C475.964 457.717 475.599 455.552 477.07 444.781C478.541 434.01 472.686 427.397 472.686 427.397C467.798 429.094 461.093 427.416 456.505 426.705C449.177 425.569 434.379 421.137 407.913 408.24C396.661 402.757 367.758 391.137 356.025 382.458C344.292 373.779 313.505 367.413 304.03 370.447Z" fill="black" fill-opacity="0.15"></path>
<path d="M555.411 468.271C552.073 471.827 536.55 466.849 530.124 465.424C528.32 465.024 526.333 464.277 524.011 463.422C524.011 463.422 538.824 464.629 540.989 458.961C543.153 453.293 539.561 448.287 533.207 445.534C526.853 442.781 516.312 442.486 508.551 439.998C501.844 437.847 487.706 430.309 478.032 425.473C479.219 425.048 480.414 424.632 481.619 424.247C484.501 423.324 487.183 422.903 489.639 422.883C489.72 422.882 489.8 422.882 489.88 422.882C493.94 422.873 501.949 423.033 503.35 423.755C504.78 424.491 512.645 423.266 516.399 422.561L520.406 425.755L519.433 432.036L510.878 433.283C510.878 433.283 514.608 434.786 519.253 434.581C523.898 434.377 538.294 433.458 542.175 434.703C546.056 435.948 550.786 441.397 553.439 445.025C556.093 448.652 562.266 456.447 561.961 459.209C561.657 461.972 560.423 464.155 558.578 465.957C556.732 467.759 555.411 468.271 555.411 468.271Z" fill="#db6d00"></path>
<path d="M516.834 436.352C508.748 435.957 504.969 429.206 500.624 426.121C497.872 424.167 494.238 422.893 489.88 422.883C489.798 422.883 489.717 422.883 489.639 422.884C489.719 422.883 489.8 422.883 489.88 422.883C493.939 422.874 501.948 423.035 503.349 423.756C504.779 424.492 512.644 423.267 516.398 422.562L520.406 425.756L519.432 432.037L510.878 433.284C510.878 433.284 514.608 434.787 519.252 434.582C523.897 434.378 538.294 433.46 542.174 434.704C546.055 435.949 550.785 441.399 553.439 445.026C556.093 448.653 562.265 456.448 561.961 459.211C561.656 461.973 560.423 464.156 558.577 465.958C556.732 467.76 555.411 468.272 555.411 468.272C558.749 464.716 560.009 462.795 560.156 459.788C560.303 456.782 552.387 446.97 545.581 439.698C538.775 432.425 524.92 436.748 516.834 436.352Z" fill="black" fill-opacity="0.2"></path>
<path d="M519.432 432.038L520.405 425.757L504.991 427.939L510.877 433.285L519.432 432.038Z" fill="black" fill-opacity="0.2"></path>
<path d="M524.37 352.055C512.052 339.738 502.01 343.361 493.102 347.792C484.194 352.222 465.226 374.571 462.865 388.973C460.504 403.375 447.785 433.192 443.541 444.967C433.558 472.665 426.119 488.274 421.658 494.197C417.858 499.241 411.298 501.821 404.719 504.821C403.572 505.344 402.425 505.88 401.292 506.443C398.583 507.791 396.367 509.359 394.592 511.057C391.364 514.143 389.595 517.655 388.973 521.036C388.009 526.277 390.007 533.751 384.485 539.672C378.964 545.593 366.238 551.922 366.429 561.88C366.62 571.839 367.942 583.743 369.796 585.898C371.65 588.053 374.211 589.228 379.083 589.45C383.956 589.672 391.614 575.281 395.227 569.78C396.191 568.313 397.055 566.506 398.054 564.416L398.214 564.083C400.978 558.305 404.842 550.445 414.566 541.642C426.241 531.073 431.769 521.974 437.715 515.842C441.701 511.733 476.369 471.218 480.62 464.871C484.87 458.524 509.216 425.796 513.999 410.702C519.969 391.858 536.688 364.373 524.37 352.055Z" fill="#F8BCBF"></path>
<path d="M492.627 346.37C501.535 341.94 516.315 338.316 526.264 353.95C536.213 369.584 520.358 391.521 514.388 410.365C509.605 425.459 485.853 459.62 481.603 465.967C477.352 472.314 451.903 504.815 445.61 511.303C439.318 517.791 432.689 526.793 430.683 526.644C428.678 526.494 427.43 524.688 418.866 517.992C410.302 511.296 409.89 502.472 409.89 502.472C414.577 500.282 418.214 494.404 421.007 490.696C425.469 484.773 432.987 471.279 442.97 443.581C447.214 431.806 459.833 403.325 462.194 388.923C464.555 374.521 483.719 350.801 492.627 346.37Z" fill="#1a2837"></path>
<path d="M379.084 589.45C383.957 589.672 391.614 575.281 395.228 569.78C396.242 568.235 397.146 566.314 398.214 564.083C398.214 564.083 388.436 575.275 382.933 572.72C377.43 570.166 376.515 564.073 379.151 557.67C381.786 551.266 389.138 543.706 392.967 536.511C396.276 530.294 401.156 515.033 404.719 504.821C403.573 505.344 402.426 505.88 401.293 506.443C398.584 507.791 396.368 509.359 394.593 511.057C394.534 511.112 394.477 511.168 394.419 511.224C391.503 514.048 385.873 519.746 385.372 521.241C384.86 522.765 378.367 527.37 375.184 529.482L374.538 534.566L379.615 538.39L386.617 533.32C386.617 533.32 384.991 536.998 381.518 540.089C378.046 543.181 367.085 552.559 365.17 556.157C363.256 559.755 363.665 566.959 364.291 571.41C364.917 575.861 365.927 585.752 368.071 587.52C370.215 589.288 372.621 589.994 375.201 589.999C377.78 590.004 379.084 589.45 379.084 589.45Z" fill="#db6d00"></path>
<path d="M384.482 539.673C390.003 533.752 388.006 526.278 388.97 521.037C389.581 517.717 391.298 514.271 394.415 511.225C394.474 511.168 394.532 511.112 394.589 511.058C394.53 511.113 394.473 511.169 394.415 511.225C391.499 514.049 385.869 519.747 385.368 521.242C384.856 522.766 378.363 527.371 375.181 529.483L374.534 534.567L379.611 538.391L386.614 533.321C386.614 533.321 384.987 536.999 381.514 540.09C378.042 543.182 367.081 552.56 365.167 556.158C363.252 559.756 363.661 566.96 364.287 571.411C364.913 575.862 365.923 585.753 368.067 587.521C370.211 589.289 372.617 589.994 375.197 590C377.776 590.005 379.08 589.451 379.08 589.451C374.208 589.229 371.965 588.73 369.764 586.677C367.563 584.625 366.397 572.072 366.206 562.113C366.015 552.155 378.961 545.594 384.482 539.673Z" fill="black" fill-opacity="0.2"></path>
<path d="M379.613 538.391L374.536 534.566L387.108 525.385L386.615 533.321L379.613 538.391Z" fill="black" fill-opacity="0.2"></path>
</svg>
