<svg width="400" height="300" viewBox="0 0 800 600" fill="none" xmlns="http://www.w3.org/2000/svg" data-reactroot="">
<path d="M741.2 387.881C741.2 537.094 368.804 565.95 186.528 565.95C4.25162 565.95 70.8857 455.224 70.8857 306.011C70.8857 229.489 234.601 199.614 297.053 150.457C356.375 103.763 409.527 -10.912 554.944 13.3242C653.189 29.6983 575.412 156.453 595.88 205.72C616.347 254.986 741.2 289.706 741.2 387.881Z" fill="#eed7a5" fill-opacity="0.2"></path>
<path d="M83.678 439.052L472.051 365.88L656.771 448.774V462.589L239.232 587.442L83.678 455.937V439.052Z" fill="#1a2837"></path>
<path d="M83.678 439.052L472.051 365.88L656.771 448.774V462.589L239.232 587.442L83.678 455.937V439.052Z" fill="#1a2837"></path>
<path d="M83.6777 439.052L241.79 571.068L656.771 448.774V462.59L239.232 587.442L83.6777 455.938V439.052Z" fill="black" fill-opacity="0.2"></path>
<path d="M434.069 487.406L371.642 443.4L430.487 427.026L497.006 467.962L434.069 487.406Z" fill="#eed7a5"></path>
<path d="M445.838 408.607L472.446 395.814L520.033 408.607V409.478C520.033 410.206 519.646 410.879 519.017 411.246L495.83 424.772C495.6 424.906 495.327 424.945 495.069 424.881L445.838 412.7C445.838 412.7 444.814 411.547 444.814 410.653C444.814 409.76 445.838 408.607 445.838 408.607Z" fill="#eed7a5"></path>
<path d="M496.229 422.493L519.28 409.046C519.614 408.852 520.033 409.092 520.033 409.479C520.033 410.207 519.646 410.88 519.017 411.247L495.83 424.772C495.6 424.906 495.327 424.946 495.069 424.882L445.838 412.701C445.838 412.701 444.814 411.548 444.814 410.654C444.814 409.761 445.838 408.607 445.838 408.607L494.63 422.692C495.168 422.847 495.745 422.775 496.229 422.493Z" fill="black" fill-opacity="0.2"></path>
<ellipse cx="314.451" cy="262.517" rx="4.09352" ry="3.58183" fill="#FFE458"></ellipse>
<path d="M345.547 412.189C344.496 410.258 344.523 407.072 344.523 407.072L390.575 398.373C390.575 398.373 391.474 400.002 392.622 401.443C393.77 402.884 397.227 404.002 397.227 404.002L420.765 412.7C421.788 413.212 421.019 416.297 420.033 416.523L371.629 427.586C370.326 427.884 368.958 427.66 367.817 426.962L349.538 415.771C349.538 415.771 346.644 414.205 345.547 412.189Z" fill="#eed7a5"></path>
<path d="M345.547 412.189C344.496 410.258 344.523 407.072 344.523 407.072L390.064 398.885C390.064 398.885 390.962 401.026 392.11 402.467C393.443 404.139 396.204 405.439 396.204 405.439L420.678 412.675C420.736 412.692 420.794 412.712 420.843 412.747C421.747 413.375 420.993 416.303 420.033 416.523L371.629 427.586C370.326 427.884 368.958 427.66 367.817 426.962L349.538 415.771C349.538 415.771 346.644 414.205 345.547 412.189Z" fill="black" fill-opacity="0.26"></path>
<path d="M345.547 409.63C344.319 406.56 344.012 405.025 344.012 405.025L390.064 396.838C390.064 396.838 390.962 398.979 392.11 400.42C393.443 402.092 396.204 403.392 396.204 403.392L420.559 412.622C420.695 412.674 420.826 412.749 420.9 412.875C421.216 413.419 420.917 414.274 420.033 414.476L371.63 425.54C370.326 425.837 368.958 425.613 367.818 424.915L349.538 413.724C349.538 413.724 346.4 411.762 345.547 409.63Z" fill="#eed7a5"></path>
<path d="M395.18 379.44C394.924 379.982 395.181 380.975 395.181 380.975C395.181 380.975 396.407 380.603 396.716 379.952C396.972 379.41 396.715 378.417 396.715 378.417C396.715 378.417 395.489 378.789 395.18 379.44Z" fill="#1a2837"></path>
<path d="M284.144 406.638V243.575C284.144 239.719 287.181 236.547 291.034 236.381L478.058 228.311C482.221 228.132 485.666 231.511 485.568 235.676L482.307 373.569C482.226 376.987 479.753 379.877 476.39 380.485L292.626 413.724C288.208 414.523 284.144 411.128 284.144 406.638Z" fill="#eed7a5"></path>
<path d="M284.144 406.638V243.575C284.144 239.719 287.181 236.547 291.034 236.381L478.058 228.311C482.221 228.132 485.666 231.511 485.568 235.676L482.307 373.569C482.226 376.987 479.753 379.877 476.39 380.485L292.626 413.724C288.208 414.523 284.144 411.128 284.144 406.638Z" fill="black" fill-opacity="0.3"></path>
<path d="M288.237 406.683V243.54C288.237 239.704 291.259 236.549 295.092 236.383L482.192 228.311C486.332 228.132 489.76 231.494 489.662 235.637L486.399 373.601C486.319 377 483.859 379.875 480.513 380.48L296.676 413.733C292.28 414.528 288.237 411.15 288.237 406.683Z" fill="#eed7a5"></path>
<path d="M480.513 380.481L296.676 413.733C292.28 414.528 288.237 411.15 288.237 406.683V390.186L486.733 359.484L486.399 373.601C486.319 377 483.859 379.875 480.513 380.481Z" fill="white" fill-opacity="0.2"></path>
<path d="M301.541 377.689V246.307C301.541 245.76 301.972 245.309 302.518 245.285L481.581 237.191C482.175 237.165 482.666 237.647 482.65 238.241L479.632 350.905C479.619 351.4 479.253 351.815 478.763 351.889L302.719 378.701C302.099 378.795 301.541 378.316 301.541 377.689Z" fill="#1a2837" stroke="black" stroke-width="1.02867"></path>
<path fill-rule="evenodd" clip-rule="evenodd" d="M475.34 248.191C475.461 251.014 473.27 253.401 470.447 253.522L370.663 258.415C367.839 258.536 365.452 256.345 365.331 253.522C365.21 250.699 367.401 248.312 370.225 248.191L470.009 243.298C472.832 243.177 475.219 245.367 475.34 248.191Z" fill="#eed7a5"></path>
<circle cx="371.248" cy="253.307" r="2.55845" fill="black" fill-opacity="0.2"></circle>
<circle cx="381.482" cy="252.796" r="2.55845" fill="#1a2837"></circle>
<circle cx="391.715" cy="252.283" r="2.55845" fill="#db6d00"></circle>
<path d="M368.796 341.06C367.283 341.136 366.014 339.929 366.014 338.414V276.681C366.014 275.218 367.2 274.032 368.664 274.032L472.431 267.892C473.894 267.892 475.08 269.078 475.08 270.541L474.057 326.318C474.057 327.729 472.95 328.893 471.54 328.964L368.796 341.06Z" fill="#eed7a5"></path>
<path fill-rule="evenodd" clip-rule="evenodd" d="M412.178 282.305C412.27 283.715 411.202 284.933 409.792 285.026L378.579 287.072C377.169 287.165 375.951 286.097 375.859 284.687C375.766 283.277 376.834 282.059 378.244 281.966L409.458 279.92C410.867 279.827 412.085 280.895 412.178 282.305Z" fill="#db6d00"></path>
<path fill-rule="evenodd" clip-rule="evenodd" d="M421.262 293.963C421.319 294.809 420.679 295.541 419.833 295.598L376.362 298.51C375.516 298.567 374.784 297.927 374.728 297.081C374.671 296.235 375.311 295.503 376.157 295.447L419.628 292.534C420.474 292.478 421.206 293.117 421.262 293.963ZM421.337 303.173C421.394 304.019 420.754 304.751 419.908 304.808L376.437 307.72C375.591 307.777 374.859 307.137 374.803 306.291C374.746 305.445 375.386 304.714 376.232 304.657L419.703 301.744C420.549 301.688 421.281 302.328 421.337 303.173ZM421.415 311.854C421.482 312.699 420.851 313.438 420.005 313.505L376.538 317.952C375.693 318.019 374.954 317.388 374.887 316.543C374.821 315.697 375.452 314.958 376.297 314.892L419.764 310.444C420.61 310.378 421.349 311.009 421.415 311.854ZM400.524 322.774C400.589 323.619 399.956 324.356 399.111 324.421L376.61 327.163C375.764 327.227 375.027 326.594 374.962 325.749C374.897 324.904 375.53 324.166 376.376 324.101L398.877 321.36C399.722 321.295 400.46 321.928 400.524 322.774Z" fill="#1a2837"></path>
<path d="M458.175 314.037C458.826 317.292 461.213 321.886 461.213 321.886L455.618 321.975C455.618 321.975 454.922 319.141 453.659 317.559C452.773 316.45 451.844 316.055 450.825 314.691C450.034 313.17 450.151 312.597 450.088 311.713C450.015 310.69 450.139 310.102 450.123 309.106C449.823 309.494 449.656 309.562 449.37 309.961C448.944 310.555 449.074 310.457 448.619 310.969C447.791 311.903 447.088 311.07 447.088 311.07C447.088 311.07 447.388 310.682 447.763 310.14C447.953 309.865 448.355 309.258 448.661 308.745C448.864 308.403 449.763 307.309 449.861 307.116C449.71 307.272 448.1 308.707 448.047 308.755C447.309 309.422 447.523 309.53 446.917 310C445.857 310.821 445.229 309.873 445.229 309.873C445.229 309.873 445.967 308.744 446.731 307.933C447.552 307.061 448.453 306.293 449.34 305.821C449.34 305.821 450.443 305.139 451.057 305.181C451.671 305.223 453.493 307.139 453.493 307.139C453.233 306.836 452.847 306.503 452.54 306.239L452.531 306.23C451.807 305.606 451.518 305.25 451.057 305.181C450.596 305.111 449.34 305.821 449.34 305.821C449.091 305.943 448.867 306.032 448.544 306.217C447.721 306.69 447.22 307.369 446.417 307.478C445.614 307.587 445.182 306.961 445.182 306.961C445.182 306.961 447.457 305.391 447.988 304.999C448.518 304.608 450.494 303.515 451.338 303.566C452.182 303.618 452.643 304.267 453.457 304.912C454.35 305.62 454.984 306.268 454.984 306.268L454.982 306.115L457.82 306.223C457.82 306.223 457.996 307.611 458.024 309.363C458.047 310.872 457.898 312.652 458.175 314.037Z" fill="#F8BCBF"></path>
<path d="M458.175 314.037C458.826 317.292 461.213 321.886 461.213 321.886L455.618 321.975C455.618 321.975 454.922 319.141 453.659 317.559C452.773 316.45 451.844 316.055 450.825 314.691C450.034 313.17 450.151 312.597 450.088 311.713C450.015 310.69 450.139 310.102 450.123 309.106C449.823 309.494 449.656 309.562 449.37 309.961C448.944 310.555 449.074 310.457 448.619 310.969C447.791 311.903 447.088 311.07 447.088 311.07C447.088 311.07 447.388 310.682 447.763 310.14C447.953 309.865 448.355 309.258 448.661 308.745C448.864 308.403 449.763 307.309 449.861 307.116C449.71 307.272 448.1 308.707 448.047 308.755C447.309 309.422 447.523 309.53 446.917 310C445.857 310.821 445.229 309.873 445.229 309.873C445.229 309.873 445.967 308.744 446.731 307.933C447.552 307.061 448.453 306.293 449.34 305.821C449.34 305.821 450.443 305.139 451.057 305.181C451.671 305.223 453.493 307.139 453.493 307.139C453.233 306.836 452.847 306.503 452.54 306.239L452.531 306.23C451.807 305.606 451.518 305.25 451.057 305.181C450.596 305.111 449.34 305.821 449.34 305.821C449.091 305.943 448.867 306.032 448.544 306.217C447.721 306.69 447.22 307.369 446.417 307.478C445.614 307.587 445.182 306.961 445.182 306.961C445.182 306.961 447.457 305.391 447.988 304.999C448.518 304.608 450.494 303.515 451.338 303.566C452.182 303.618 452.643 304.267 453.457 304.912C454.35 305.62 454.984 306.268 454.984 306.268L454.982 306.115L457.82 306.223C457.82 306.223 457.996 307.611 458.024 309.363C458.047 310.872 457.898 312.652 458.175 314.037Z" fill="black" fill-opacity="0.2"></path>
<path d="M453.633 287.022L454.036 312.307C454.056 313.615 453.012 314.693 451.704 314.714L440.104 314.898C438.797 314.919 437.718 313.875 437.697 312.567L437.295 287.282C437.274 285.975 438.319 284.896 439.626 284.875L451.245 284.69C452.534 284.67 453.612 285.714 453.633 287.022Z" fill="#1a2837"></path>
<path d="M451.271 285.579C452.067 285.566 452.741 286.219 452.754 287.015L453.157 312.3C453.169 313.096 452.516 313.77 451.72 313.782L440.121 313.967C439.325 313.98 438.651 313.327 438.638 312.531L438.235 287.246C438.223 286.45 438.876 285.776 439.672 285.764L451.271 285.579ZM451.257 284.669L439.657 284.854C438.349 284.875 437.305 285.953 437.326 287.261L437.728 312.545C437.749 313.853 438.827 314.898 440.135 314.877L451.754 314.692C453.062 314.671 454.106 313.593 454.085 312.285L453.683 287C453.643 285.693 452.565 284.648 451.257 284.669Z" fill="#1a2837"></path>
<path d="M451.271 285.579C452.067 285.566 452.741 286.219 452.754 287.015L453.157 312.3C453.169 313.096 452.516 313.77 451.72 313.782L440.121 313.967C439.325 313.98 438.651 313.327 438.638 312.531L438.235 287.246C438.223 286.45 438.876 285.776 439.672 285.764L451.271 285.579ZM451.257 284.669L439.657 284.854C438.349 284.875 437.305 285.953 437.326 287.261L437.728 312.545C437.749 313.853 438.827 314.898 440.135 314.877L451.754 314.692C453.062 314.671 454.106 313.593 454.085 312.285L453.683 287C453.643 285.693 452.565 284.648 451.257 284.669Z" fill="black" fill-opacity="0.2"></path>
<path opacity="0.7" d="M445.876 313.101C446.4 313.093 446.817 312.662 446.809 312.138C446.801 311.615 446.37 311.197 445.846 311.206C445.323 311.214 444.905 311.645 444.914 312.168C444.922 312.692 445.353 313.109 445.876 313.101Z" fill="#eed7a5"></path>
<path d="M441.001 287.96L438.973 287.992L438.978 288.333L441.006 288.301L441.001 287.96Z" fill="#db6d00"></path>
<path d="M440.989 287.203L438.961 287.235L438.966 287.577L440.994 287.544L440.989 287.203Z" fill="#db6d00"></path>
<path d="M441.012 288.718L438.984 288.75L438.99 289.091L441.018 289.059L441.012 288.718Z" fill="#db6d00"></path>
<path d="M452.39 291.083C452.384 290.747 452.107 290.478 451.771 290.484L439.342 290.682C439.006 290.687 438.737 290.964 438.743 291.3L438.81 295.503C438.815 295.84 439.092 296.108 439.428 296.103L451.857 295.905C452.194 295.899 452.462 295.622 452.457 295.286L452.39 291.083Z" fill="#1a2837"></path>
<path d="M452.478 297.931C452.473 297.594 452.196 297.326 451.859 297.331L439.43 297.529C439.094 297.535 438.826 297.812 438.831 298.148L438.898 302.351C438.903 302.687 439.18 302.956 439.517 302.95L451.946 302.752C452.282 302.747 452.55 302.47 452.545 302.134L452.478 297.931Z" fill="#1a2837"></path>
<path d="M449.176 304.262L442.296 304.371C441.924 304.377 441.628 304.683 441.634 305.055C441.64 305.426 441.946 305.723 442.317 305.717L449.198 305.607C449.569 305.601 449.866 305.295 449.86 304.924C449.854 304.552 449.548 304.256 449.176 304.262Z" fill="#eed7a5"></path>
<path opacity="0.7" d="M442.713 308.541L442.201 308.55C441.993 308.553 441.838 308.385 441.835 308.195L441.827 307.683C441.824 307.475 441.992 307.321 442.182 307.318L442.693 307.309C442.902 307.306 443.056 307.474 443.059 307.664L443.067 308.176C443.089 308.365 442.922 308.538 442.713 308.541Z" fill="#eed7a5"></path>
<path opacity="0.7" d="M444.324 308.515L443.813 308.523C443.604 308.526 443.45 308.358 443.447 308.169L443.439 307.657C443.435 307.449 443.603 307.294 443.793 307.291L444.305 307.283C444.513 307.28 444.668 307.448 444.671 307.637L444.679 308.149C444.682 308.339 444.533 308.512 444.324 308.515Z" fill="#eed7a5"></path>
<path opacity="0.7" d="M445.935 308.489L445.423 308.497C445.215 308.5 445.061 308.332 445.058 308.142L445.049 307.631C445.046 307.422 445.214 307.268 445.404 307.265L445.916 307.257C446.124 307.253 446.278 307.421 446.281 307.611L446.29 308.123C446.293 308.312 446.125 308.486 445.935 308.489Z" fill="#eed7a5"></path>
<path opacity="0.7" d="M447.517 308.48L447.006 308.488C446.797 308.491 446.643 308.323 446.64 308.134L446.632 307.622C446.628 307.413 446.797 307.259 446.986 307.256L447.498 307.248C447.706 307.245 447.861 307.413 447.864 307.602L447.872 308.114C447.894 308.303 447.726 308.477 447.517 308.48Z" fill="#eed7a5"></path>
<path opacity="0.7" d="M449.139 308.439L448.628 308.447C448.419 308.45 448.265 308.282 448.262 308.093L448.254 307.581C448.25 307.372 448.418 307.218 448.608 307.215L449.12 307.207C449.328 307.204 449.483 307.372 449.486 307.561L449.494 308.073C449.516 308.262 449.348 308.436 449.139 308.439Z" fill="#eed7a5"></path>
<path opacity="0.7" d="M454.001 310.145L454.035 312.307C454.056 313.615 453.012 314.693 451.704 314.714L440.104 314.899C438.796 314.92 437.718 313.875 437.697 312.567L437.663 310.405L454.001 310.145Z" fill="black" fill-opacity="0.2"></path>
<path fill-rule="evenodd" clip-rule="evenodd" d="M440.022 291.991C440.02 291.865 440.12 291.762 440.246 291.76L450.848 291.591C450.973 291.589 451.076 291.689 451.078 291.815C451.08 291.94 450.98 292.044 450.855 292.046L440.253 292.214C440.128 292.216 440.024 292.116 440.022 291.991Z" fill="#eed7a5"></path>
<path fill-rule="evenodd" clip-rule="evenodd" d="M440.176 301.683C440.174 301.558 440.275 301.454 440.4 301.452L451.002 301.284C451.127 301.282 451.231 301.382 451.233 301.507C451.235 301.633 451.135 301.736 451.009 301.738L440.407 301.907C440.282 301.909 440.178 301.809 440.176 301.683Z" fill="#eed7a5"></path>
<path fill-rule="evenodd" clip-rule="evenodd" d="M440.154 300.321C440.152 300.195 440.252 300.092 440.378 300.09L450.98 299.921C451.105 299.919 451.209 300.019 451.211 300.145C451.213 300.27 451.112 300.374 450.987 300.376L440.385 300.545C440.26 300.546 440.156 300.446 440.154 300.321Z" fill="#eed7a5"></path>
<path fill-rule="evenodd" clip-rule="evenodd" d="M440.133 298.957C440.131 298.831 440.231 298.728 440.357 298.726L450.959 298.557C451.084 298.555 451.188 298.655 451.19 298.781C451.192 298.906 451.091 299.009 450.966 299.011L440.364 299.18C440.239 299.182 440.135 299.082 440.133 298.957Z" fill="#eed7a5"></path>
<path fill-rule="evenodd" clip-rule="evenodd" d="M440.043 293.353C440.041 293.228 440.141 293.124 440.266 293.122L450.868 292.954C450.994 292.952 451.097 293.052 451.099 293.177C451.101 293.303 451.001 293.406 450.876 293.408L440.274 293.577C440.148 293.579 440.045 293.479 440.043 293.353Z" fill="#eed7a5"></path>
<path fill-rule="evenodd" clip-rule="evenodd" d="M440.065 294.716C440.063 294.591 440.163 294.488 440.289 294.486L450.891 294.317C451.016 294.315 451.12 294.415 451.122 294.54C451.124 294.666 451.024 294.769 450.898 294.771L440.296 294.94C440.171 294.942 440.067 294.842 440.065 294.716Z" fill="#eed7a5"></path>
<path d="M458.175 314.038C458.826 317.292 461.214 321.886 461.214 321.886L457.305 321.949C457.305 321.949 455.648 318.91 454.082 316.94C453.264 315.912 452.83 315.35 452.423 313.9C452.098 312.74 452.212 311.833 452.063 310.532C451.977 309.775 451.747 309.924 451.047 309.321C450.891 309.187 450.709 309.035 450.529 308.87C450.155 308.529 449.783 308.135 449.642 307.734C449.604 307.625 449.565 307.512 449.527 307.397C449.504 307.326 449.482 307.254 449.461 307.182C449.328 306.727 449.241 306.257 449.342 305.907C449.357 305.855 449.376 305.806 449.399 305.76C449.471 305.617 449.587 305.504 449.758 305.432C449.921 305.364 450.058 305.372 450.18 305.427C450.219 305.444 450.256 305.467 450.292 305.493C450.556 305.687 450.75 306.091 450.999 306.332C451.581 306.896 451.951 307.223 452.498 307.72C452.566 307.782 452.637 307.847 452.711 307.915C453.196 308.358 454.186 309.042 454.186 309.042L454.707 308.037L454.985 306.269L454.983 306.116L454.484 303.67L453.792 298.775C453.792 298.775 453.283 295.639 453.87 294.02C454.458 292.401 454.935 293.466 454.935 293.466C454.935 293.466 454.879 295.745 455.233 297.755C455.564 299.636 456.458 302.489 456.458 302.489L457.821 306.224C457.821 306.224 458.01 308.078 458.04 310.36C458.056 311.545 457.971 313.015 458.175 314.038Z" fill="#F8BCBF"></path>
<path d="M454.225 293.316C454.638 292.804 454.935 293.466 454.935 293.466C454.935 293.466 454.925 293.866 454.94 294.479C454.94 294.479 454.64 294.44 454.488 294.335C454.151 294.1 454.225 293.316 454.225 293.316Z" fill="black" fill-opacity="0.19"></path>
<path d="M449.399 305.759C449.375 305.805 449.356 305.854 449.342 305.906L449.917 306.943C449.917 306.943 450.43 306.993 450.672 306.817C450.857 306.683 450.999 306.331 450.999 306.331C450.75 306.09 450.556 305.686 450.292 305.492C450.256 305.466 450.219 305.443 450.18 305.426C450.058 305.371 449.921 305.363 449.758 305.431C449.587 305.503 449.471 305.617 449.399 305.759Z" fill="#F8BCBF"></path>
<path d="M449.399 305.759C449.375 305.805 449.356 305.854 449.342 305.906L449.917 306.943C449.917 306.943 450.43 306.993 450.672 306.817C450.857 306.683 450.999 306.331 450.999 306.331C450.75 306.09 450.556 305.686 450.292 305.492C450.256 305.466 450.219 305.443 450.18 305.426C450.058 305.371 449.921 305.363 449.758 305.431C449.587 305.503 449.471 305.617 449.399 305.759Z" fill="black" fill-opacity="0.2"></path>
<path d="M183.146 239.283C180.244 239.397 177.829 237.075 177.829 234.17V169.901C177.829 167.075 180.12 164.784 182.946 164.784H240.255C243.081 164.784 245.372 167.075 245.372 169.901V232.012C245.372 234.76 243.201 237.017 240.455 237.125L183.146 239.283Z" fill="#db6d00"></path>
<path d="M183.146 239.283C180.244 239.397 177.829 237.075 177.829 234.17V169.901C177.829 167.075 180.12 164.784 182.946 164.784H240.255C243.081 164.784 245.372 167.075 245.372 169.901V232.012C245.372 234.76 243.201 237.017 240.455 237.125L183.146 239.283Z" fill="black" fill-opacity="0.2"></path>
<path d="M185.192 238.26C182.29 238.373 179.876 236.051 179.876 233.147V169.901C179.876 167.075 182.167 164.784 184.993 164.784H240.255C243.081 164.784 245.372 167.075 245.372 169.901V230.988C245.372 233.736 243.201 235.994 240.455 236.101L185.192 238.26Z" fill="#db6d00"></path>
<path d="M229.212 93.94C226.506 93.7821 224.393 91.542 224.393 88.8318V58.7793C224.393 55.7919 226.942 53.4398 229.919 53.6789L291.834 58.4858C294.493 58.6992 296.541 60.9191 296.541 63.5862V92.3278C296.541 95.271 294.064 97.6075 291.126 97.436L229.212 93.94Z" fill="#eed7a5"></path>
<path d="M229.212 93.94C226.506 93.7821 224.393 91.542 224.393 88.8318V58.7793C224.393 55.7919 226.942 53.4398 229.919 53.6789L291.834 58.4858C294.493 58.6992 296.541 60.9191 296.541 63.5862V92.3278C296.541 95.271 294.064 97.6075 291.126 97.436L229.212 93.94Z" fill="black" fill-opacity="0.2"></path>
<path d="M231.258 91.8923C228.553 91.7343 226.44 89.4942 226.44 86.7841V58.7784C226.44 55.7909 228.988 53.4388 231.966 53.6779L291.834 58.4848C294.493 58.6982 296.541 60.9181 296.541 63.5853V90.28C296.541 93.2233 294.064 95.5598 291.126 95.3882L231.258 91.8923Z" fill="#eed7a5"></path>
<path fill-rule="evenodd" clip-rule="evenodd" d="M244.411 61.3598C245.01 61.9593 245.01 62.9312 244.411 63.5307L236.142 71.7997L244.553 83.0152C245.062 83.6934 244.925 84.6556 244.246 85.1643C243.568 85.673 242.606 85.5355 242.097 84.8573L232.088 71.5116L242.24 61.3598C242.839 60.7603 243.811 60.7603 244.411 61.3598Z" fill="#db6d00"></path>
<path fill-rule="evenodd" clip-rule="evenodd" d="M277.035 63.9174C276.436 64.5169 276.436 65.4888 277.035 66.0883L285.304 74.3573L276.893 85.5728C276.384 86.251 276.521 87.2132 277.2 87.7219C277.878 88.2306 278.84 88.0931 279.349 87.4149L289.358 74.0692L279.206 63.9174C278.607 63.3179 277.635 63.3179 277.035 63.9174Z" fill="#db6d00"></path>
<path fill-rule="evenodd" clip-rule="evenodd" d="M268.105 59.5596C268.851 59.9625 269.129 60.8938 268.726 61.6398L254.91 87.2243C254.507 87.9703 253.576 88.2484 252.83 87.8456C252.084 87.4428 251.806 86.5115 252.209 85.7655L266.024 60.181C266.427 59.435 267.359 59.1568 268.105 59.5596Z" fill="#db6d00"></path>
<path d="M515.033 203.161C510.428 203.161 507.358 200.021 507.358 196.509L506.846 161.203C506.846 157.812 509.595 155.062 512.986 155.062H553.922C557.313 155.062 560.062 157.812 560.062 161.203V195.274C560.062 198.546 557.496 201.243 554.228 201.406L515.033 203.161Z" fill="#eed7a5"></path>
<path d="M515.033 203.161C510.428 203.161 507.358 200.021 507.358 196.509L506.846 161.203C506.846 157.812 509.595 155.062 512.986 155.062H553.922C557.313 155.062 560.062 157.812 560.062 161.203V195.274C560.062 198.546 557.496 201.243 554.228 201.406L515.033 203.161Z" fill="black" fill-opacity="0.2"></path>
<path d="M515.339 201.303C511.832 201.478 508.893 198.682 508.893 195.17V161.202C508.893 157.811 511.642 155.062 515.033 155.062H553.921C557.313 155.062 560.062 157.811 560.062 161.202V193.226C560.062 196.498 557.496 199.195 554.228 199.359L515.339 201.303Z" fill="#eed7a5"></path>
<path d="M554.228 199.358L515.339 201.303C511.832 201.478 508.893 198.682 508.893 195.17V188.321L560.062 186.786V193.226C560.062 196.498 557.496 199.195 554.228 199.358Z" fill="white" fill-opacity="0.5"></path>
<ellipse cx="534.477" cy="171.948" rx="10.2338" ry="7.16366" fill="white" fill-opacity="0.5"></ellipse>
<path d="M221.718 380.976L243.209 470.522V505.317L218.647 508.899L178.736 475.127V377.906L208.414 373.301L221.718 380.976Z" fill="#db6d00"></path>
<path d="M218.647 475.127L243.208 470.521V505.316L218.647 508.898V475.127Z" fill="black" fill-opacity="0.2"></path>
<path d="M243.209 470.522L221.718 380.976L208.414 373.301L178.736 377.906L196.133 385.581L218.647 475.127L243.209 470.522Z" fill="black" fill-opacity="0.5"></path>
<path d="M484.215 481.267C489.167 484.049 493.425 487.407 493.425 487.407L484.215 504.804C484.215 504.804 474.279 493.802 465.794 490.477C461.959 488.974 457.94 489.2 454.025 487.919C445.957 485.278 441.722 485.035 435.093 479.731C432.534 477.685 431.599 476.711 428.952 475.126C426.306 473.541 425.254 473.079 423.207 472.056C423.207 472.056 421.672 471.033 420.137 470.009C419.632 469.673 418.33 468.474 418.602 467.451C418.873 466.428 419.616 466.196 420.766 466.428C421.821 466.64 424.348 467.962 425.371 468.218C426.394 468.474 429.464 470.009 431.511 471.033C434.596 472.575 439.698 474.615 439.698 474.615C437.651 473.079 432.417 469.754 431.511 469.498C430.605 469.241 424.859 466.428 424.859 466.428C424.859 466.428 422.023 465.916 419.859 464.892C417.695 463.869 417.272 461.302 417.695 460.03C417.964 459.225 419.231 460.03 420.766 460.542C422.3 461.053 424.261 461.289 426.394 461.822C428.441 462.334 431.602 463.915 433.557 464.892L433.558 464.892L433.717 464.972C435.762 465.995 438.753 467.49 441.745 468.985C441.745 468.985 436.547 465.767 433.558 464.381C431.906 463.615 429.464 462.334 426.906 461.311C425.955 460.93 422.812 460.542 421.277 459.776C419.83 459.053 418.207 456.705 419.231 455.17C420.254 453.635 427.417 457.217 429.464 457.729C431.511 458.24 436.116 460.03 436.116 460.03L443.791 464.381L436.628 459.264C436.628 459.264 433.046 458.199 430.488 457.216C429.848 456.97 426.394 456.548 425.371 455.681C423.836 454.658 423.207 452.612 424.347 451.843C425.488 451.074 431.485 453.424 432.534 453.634C435.093 454.147 436.238 454.364 438.163 455.17C440.604 456.194 442.889 457.986 444.815 459.264C445.586 459.776 453.119 463.357 453.119 463.357C453.119 461.822 448.909 459.776 447.885 459.776C446.862 459.776 445.568 458.858 444.815 457.729C443.259 455.395 441.862 452.866 444.42 451.843C446.545 450.993 450.359 455.778 453.119 456.96C456.701 458.495 458.389 458.253 460.677 460.542C464.771 464.636 467.433 466.553 469.376 468.218C472.958 471.288 472.752 474.703 476.54 477.173C480.145 479.524 480.462 479.158 484.215 481.267Z" fill="#F7BBBE"></path>
<path d="M424.347 451.842C424.468 451.761 424.642 451.714 424.859 451.696L426.394 452.1C426.394 452.1 427.663 452.719 427.417 453.635C427.172 454.55 425.882 454.146 425.882 454.146L423.847 453.633C423.653 452.909 423.786 452.221 424.347 451.842Z" fill="#FE8E93"></path>
<path d="M419.231 455.169C419.393 454.925 419.71 454.81 420.137 454.792L422.3 455.68C422.3 455.68 423.324 456.189 422.812 457.215C422.3 458.24 420.765 457.728 420.765 457.728L419.003 456.959C418.839 456.332 418.875 455.702 419.231 455.169Z" fill="#FE8E93"></path>
<path d="M417.695 460.028C417.778 459.78 417.956 459.685 418.207 459.687C418.207 459.687 420.254 460.287 420.765 460.798C421.277 461.31 421.661 461.566 421.277 462.333C420.893 463.101 419.23 462.333 419.23 462.333L417.617 461.821C417.498 461.142 417.539 460.497 417.695 460.028Z" fill="#FE8E93"></path>
<path d="M419.859 466.35C419.22 466.399 418.793 466.727 418.602 467.449C418.55 467.644 418.555 467.846 418.602 468.047L420.766 468.983C420.766 468.983 421.789 469.497 422.3 468.474C422.812 467.45 421.277 466.939 421.277 466.939L419.859 466.35Z" fill="#FE8E93"></path>
<path d="M446.862 452.611C446.622 452.371 445.838 451.844 445.838 451.844C445.838 451.844 444.718 451.313 444.047 451.842C443.376 452.371 443.791 453.122 443.791 453.122C443.791 453.122 444.303 453.635 444.815 454.146C445.327 454.657 446.35 454.657 446.862 454.146C447.373 453.634 447.102 452.851 446.862 452.611Z" fill="#FE8E93"></path>
<path d="M423.207 472.056C423.207 472.056 421.671 471.032 420.137 470.009C419.755 469.754 418.919 469.008 418.65 468.217C418.65 468.217 421.819 469.929 423.847 471.032C426.043 472.227 427.246 472.568 429.464 474.103C431.681 475.638 436.218 478.709 436.627 478.709C437.037 478.709 448.737 483.825 454.537 486.384C460.336 488.942 462.232 487.217 466.817 488.942C475.258 492.119 485.238 502.871 485.238 502.871L484.215 504.804C484.215 504.804 474.279 493.802 465.794 490.476C461.958 488.973 457.94 489.199 454.025 487.918C445.956 485.277 441.722 485.034 435.092 479.731C432.534 477.684 431.599 476.711 428.952 475.126C426.306 473.541 425.253 473.079 423.207 472.056Z" fill="black" fill-opacity="0.05"></path>
<path d="M431.511 469.497C432.417 469.753 437.651 473.078 439.698 474.614C439.698 474.614 435.04 470.978 431.83 468.984C429.38 467.462 428.05 466.472 425.37 465.405C423.392 464.617 422.109 464.673 420.137 463.869C419.254 463.51 417.92 462.846 417.92 462.846C418.271 463.668 418.891 464.434 419.859 464.892C422.023 465.915 424.859 466.427 424.859 466.427C424.859 466.427 430.604 469.241 431.511 469.497Z" fill="black" fill-opacity="0.05"></path>
<path d="M433.557 464.38C436.547 465.767 441.744 468.984 441.744 468.984C441.744 468.984 437.221 465.614 434.069 463.869L433.933 463.794C431.317 462.347 429.783 461.497 426.905 460.541C424.951 459.892 423.605 460.233 421.788 459.263C420.619 458.639 419.081 457.216 419.081 457.216C419.459 458.304 420.4 459.337 421.277 459.775C422.812 460.541 425.955 460.93 426.905 461.31C429.464 462.333 431.905 463.614 433.557 464.38Z" fill="black" fill-opacity="0.05"></path>
<path d="M430.487 457.216C433.046 458.198 436.627 459.263 436.627 459.263L443.791 464.38C443.791 464.38 440.161 460.316 437.139 458.753C434.725 457.504 433.074 457.541 430.487 456.706C428.683 456.123 427.513 456.137 425.882 455.17C425.025 454.662 423.847 453.634 423.847 453.634C424.046 454.379 424.591 455.161 425.37 455.68C426.394 456.547 429.847 456.97 430.487 457.216Z" fill="black" fill-opacity="0.05"></path>
<path d="M447.885 459.775C446.861 459.775 445.498 458.753 444.815 457.728C443.551 455.832 442.391 453.98 443.373 452.612C443.373 452.612 443.889 455.004 444.815 456.194C445.6 457.204 446.316 457.52 447.373 458.24C449.22 459.498 451.409 458.844 452.49 460.799C452.89 461.524 453.053 462.738 453.102 463.185C453.113 463.243 453.119 463.3 453.119 463.357C453.119 463.357 453.114 463.294 453.102 463.185C452.813 461.674 448.871 459.775 447.885 459.775Z" fill="black" fill-opacity="0.05"></path>
<path d="M494.449 430.61C502.62 430.013 515.428 429.329 515.428 429.329L517.08 437.516L519.126 454.402C519.126 454.402 478.191 448.262 475.633 448.262C473.074 448.262 472.04 448.348 470.004 448.262C466.964 448.133 463.352 446.215 463.352 446.215L457.212 437.516C457.212 437.516 454.624 438.034 454.654 440.586C454.67 441.929 454.142 443.656 452.607 444.68C451.072 445.703 450.56 445 450.049 444.488C449.666 444.105 449.559 443.675 449.575 443.234C449.213 444.477 448.596 445.426 447.49 445.703C446.521 445.946 445.955 445.191 445.443 443.656C444.932 442.121 444.932 439.051 444.932 436.493C444.932 433.934 444.42 434.702 445.443 432.399C446.466 430.097 450.049 426.771 450.049 426.771C450.049 426.771 446.466 429.841 445.443 430.864C444.421 431.887 444.42 433.421 444.42 435.466V435.469C444.42 437.516 444.932 441.098 444.932 442.121C444.932 443.145 444.42 444.168 442.885 444.68C441.35 445.191 440.326 443.656 439.303 441.61C438.28 439.563 438.279 439.051 438.279 434.958C438.279 430.864 438.205 429.881 439.814 427.282C441.31 424.868 445.443 422.677 445.443 422.677C445.443 422.677 439.814 425.236 438.279 427.282C436.744 429.329 438.791 436.493 436.744 439.051C434.698 441.61 433.674 441.993 432.139 441.61C430.604 441.226 432.139 431.888 432.139 429.329C432.139 426.771 432.022 424.724 433.558 422.677C435.093 420.63 444.931 415.002 451.072 413.978C457.212 412.955 465.95 429.812 478.075 430.864C484.297 431.404 488.219 431.064 494.449 430.61Z" fill="#F4AEB2"></path>
<path d="M494.449 430.609C502.62 430.013 514.916 429.329 514.916 429.329L517.08 437.516L519.126 454.402C519.126 454.402 478.191 448.261 475.633 448.261C473.074 448.261 472.04 448.348 470.004 448.261C466.964 448.132 463.352 446.215 463.352 446.215L457.212 437.516C457.212 437.516 454.624 438.033 454.654 440.586C454.67 441.929 454.142 443.656 452.607 444.679C451.072 445.703 450.56 444.999 450.049 444.488C449.666 444.104 449.559 443.675 449.575 443.234C449.213 444.477 448.596 445.425 447.49 445.703C446.521 445.946 445.955 445.191 445.443 443.656C444.932 442.121 444.932 439.051 444.932 436.492C444.932 433.934 444.42 434.701 445.443 432.399C446.466 430.096 450.049 426.77 450.049 426.77C450.049 426.77 446.466 429.84 445.443 430.864C444.421 431.887 444.42 433.42 444.42 435.465V435.469C444.42 437.516 444.932 441.098 444.932 442.121C444.932 443.144 444.42 444.168 442.885 444.679C441.35 445.191 440.326 443.656 439.303 441.609C438.28 439.563 438.279 439.051 438.279 434.957C438.279 430.864 438.205 429.881 439.814 427.282C441.31 424.867 445.443 422.677 445.443 422.677C445.443 422.677 439.814 425.235 438.279 427.282C436.744 429.329 438.791 436.492 436.744 439.051C434.698 441.609 433.674 441.993 432.139 441.609C430.604 441.226 432.139 431.887 432.139 429.329C432.139 426.77 432.022 424.723 433.558 422.677C435.093 420.63 444.931 415.259 451.072 414.236C457.212 413.212 465.95 429.812 478.075 430.864C484.297 431.404 488.219 431.064 494.449 430.609Z" fill="#F4AEB2"></path>
<path d="M439.815 427.283C441.31 424.868 445.443 422.678 445.443 422.678L450.049 426.771L454.142 432.911L457.212 437.517C457.212 437.517 454.624 438.034 454.654 440.587C454.67 441.93 454.142 443.657 452.607 444.68C451.072 445.704 450.56 445 450.049 444.488C449.666 444.105 449.559 443.676 449.575 443.234C449.213 444.478 448.597 445.426 447.49 445.704C446.521 445.947 445.955 445.192 445.443 443.657C444.932 442.122 444.932 439.052 444.932 436.493C444.932 433.935 444.42 434.702 445.443 432.4C446.467 430.097 450.049 426.771 450.049 426.771C450.049 426.771 446.466 429.841 445.443 430.865C444.421 431.887 444.421 433.421 444.42 435.466V435.47C444.42 437.517 444.932 441.099 444.932 442.122C444.932 443.145 444.42 444.169 442.885 444.68C441.35 445.192 440.326 443.657 439.303 441.61C438.28 439.563 438.28 439.052 438.28 434.958C438.28 430.865 438.206 429.882 439.815 427.283Z" fill="black" fill-opacity="0.2"></path>
<path d="M432.651 444.169L457.724 397.094C457.724 397.094 459.259 395.559 460.794 396.07C462.329 396.582 461.817 399.14 461.817 399.14L436.744 446.728L432.651 448.774V444.169Z" fill="#db6d00"></path>
<path d="M432.651 448.773V444.168C432.651 444.168 433.49 445.219 434.186 445.703C435.07 446.317 436.744 446.726 436.744 446.726L432.651 448.773Z" fill="black" fill-opacity="0.2"></path>
<path d="M445.443 431.376C447.746 430.965 449.537 422.166 449.537 422.166C449.537 422.166 453.119 425.748 456.189 429.33C463.238 437.553 476.656 448.262 476.656 448.262H470.004C466.845 448.262 466.096 447.782 463.352 446.215C461.374 445.085 460.336 443.515 458.236 442.633C455.65 441.547 453.812 442.208 451.072 441.61C447.918 440.921 448.001 440.587 444.931 439.563C443.036 438.931 441.807 437.879 439.815 438.028C437.39 438.209 436.744 438.028 433.163 438.54C431.461 438.783 429.023 439.563 428.558 437.516C427.976 434.957 430.092 433.218 432.651 432.4C434.935 431.669 443.083 431.797 445.443 431.376Z" fill="#F4AEB2"></path>
<path d="M428.558 437.516C428.336 436.543 428.505 435.688 428.94 434.958H432.139C432.86 434.958 433.674 435.662 433.674 436.493C433.674 437.325 433.336 437.57 432.651 438.028C431.628 438.713 429.581 438.745 429.581 438.745C429.087 438.566 428.713 438.198 428.558 437.516Z" fill="#FE8E93"></path>
<path d="M531.407 256.378C531.407 256.378 535.71 232.672 546.246 223.118C560.9 209.829 576.436 209.75 595.879 213.396C612.253 216.466 631.698 230.281 633.744 256.378C636.047 285.74 612.765 294.243 612.765 309.593C612.765 320.496 611.602 321.999 619.929 329.038C627.362 335.32 641.42 337.736 641.42 337.736C641.42 337.736 631.397 352.73 622.488 359.739C597.999 379.006 543.175 368.438 543.175 368.438C543.175 368.438 559.549 356.157 561.084 342.853C562.607 329.658 559.728 326.541 555.06 321.488L554.945 321.362C549.669 315.65 539.082 315.734 537.035 312.664C534.989 309.594 532.94 296.29 529.36 280.427C527.05 270.193 531.407 256.378 531.407 256.378Z" fill="#F7BBBE"></path>
<path d="M480.75 518.875C476.804 524.524 472.051 534.226 472.051 534.226L608.161 567.486L615.836 512.735C615.836 512.735 567.291 502.802 536.012 497.384C525.233 495.517 519.055 490.383 508.381 492.779C493.899 496.03 489.25 506.708 480.75 518.875Z" fill="#1a2837"></path>
<path d="M480.75 518.875C476.804 524.524 472.051 534.226 472.051 534.226L608.161 567.486L615.836 512.735C615.836 512.735 567.291 502.802 536.012 497.384C525.233 495.517 519.055 490.383 508.381 492.779C493.899 496.03 489.25 506.708 480.75 518.875Z" fill="black" fill-opacity="0.4"></path>
<path d="M585.646 325.456C596.388 321.716 613.277 316.245 613.277 316.245L620.441 328.526C620.441 328.526 619.828 328.935 618.906 329.513C617.412 330.45 615.105 331.827 613.277 332.619C608.206 334.816 599.689 335.816 594.345 337.224C583.283 340.139 581.957 340.091 571.83 345.411C569.442 346.666 566.702 348.372 564.155 350.056L557.458 354.692C556.216 355.589 555.456 356.157 555.456 356.157L555.424 356.1L553.409 352.575C553.409 352.575 561.474 337.641 568.248 332.619C574.9 327.688 577.826 328.178 585.646 325.456Z" fill="black" fill-opacity="0.2"></path>
<path d="M489.448 538.319C515.033 546.505 640.909 554.181 640.909 554.181V589.999H457.212H419.347C419.347 589.999 420.443 571.185 422.417 559.298C423.418 553.267 422.698 552.179 424.975 546.506C424.975 538.319 436.744 529.62 450.048 529.62C463.352 529.62 468.956 531.762 489.448 538.319Z" fill="#1a2837"></path>
<path d="M422.417 559.299C423.419 553.268 423.21 549.622 425.487 543.948C425.487 543.948 426.517 550.235 427.534 554.182C429.175 560.547 429.672 564.475 433.163 570.044C436.391 575.194 439.241 577.409 443.908 581.301C448.676 585.277 457.212 590 457.212 590H419.347C419.347 590 420.444 571.186 422.417 559.299Z" fill="black" fill-opacity="0.2"></path>
<path d="M522.591 455.68L518.498 427.025C518.498 427.025 478.074 427.537 476.656 427.793C475.238 428.049 475.197 433.366 474.609 437.003C473.874 441.558 472.563 448.005 473.586 448.772C474.609 449.54 522.591 455.68 522.591 455.68Z" fill="#eed7a5"></path>
<path d="M522.591 455.68L518.498 427.025C518.498 427.025 478.074 427.537 476.656 427.793C475.238 428.049 475.197 433.366 474.609 437.003C473.874 441.558 472.563 447.493 473.586 448.772C474.609 450.051 522.591 455.68 522.591 455.68Z" fill="black" fill-opacity="0.25"></path>
<path d="M585.646 325.456C596.388 321.716 613.277 316.245 613.277 316.245L620.441 328.526C620.441 328.526 619.828 328.935 618.906 329.513L640.909 337.224C640.909 337.224 662.4 335.13 662.4 366.902C662.4 423.054 647.049 554.693 647.049 554.693H560.573C560.573 554.693 531.919 549.064 526.29 543.436C520.662 537.807 522.226 508.248 520.662 485.615C519.53 469.248 520.463 459.957 518.615 443.656C517.682 435.429 514.266 430.858 515.545 422.677C516.939 413.757 522.501 410.403 526.29 402.209C531.758 390.385 529.524 380.838 538.059 370.996C543.008 365.289 549.316 361.009 551.363 358.715C553.41 356.422 564.155 350.055 564.155 350.055C559.48 353.145 555.456 356.157 555.456 356.157L553.41 352.575C553.41 352.575 561.474 337.641 568.249 332.619C574.901 327.688 577.826 328.178 585.646 325.456Z" fill="#eed7a5"></path>
<path d="M578.482 405.28C570.185 390.6 561.597 374.579 550.339 372.532C539.082 370.485 535.5 378.672 533.454 386.859C531.407 395.046 531.984 403.776 531.407 417.049C530.384 440.586 529.872 450.82 528.337 474.87C527.627 485.984 528.337 502.501 523.732 503.013C519.126 503.525 513.107 495.558 506.334 490.733C497.707 484.586 482.679 474.102 481.773 473.846C480.867 473.591 464.492 494.059 464.376 494.826C464.259 495.593 474.42 502.54 480.75 507.618C492.364 516.937 497.245 524.358 509.916 532.179C524.409 541.126 538.059 551.112 550.339 548.554C562.62 545.995 573.366 497.385 573.366 497.385C573.366 497.385 592.298 446.727 590.251 435.982C588.205 425.236 584.801 416.458 578.482 405.28Z" fill="#eed7a5"></path>
<path d="M578.482 405.28C570.185 390.6 561.597 374.579 550.339 372.532C539.082 370.485 535.5 378.672 533.454 386.859C531.407 395.046 531.984 403.776 531.407 417.049C530.384 440.586 529.872 450.82 528.337 474.87C527.627 485.984 528.337 502.501 523.732 503.013C519.126 503.525 513.107 495.558 506.334 490.733C497.707 484.586 482.679 474.102 481.773 473.846C480.867 473.591 464.492 494.059 464.376 494.826C464.259 495.593 474.42 502.54 480.75 507.618C492.364 516.937 497.245 524.358 509.916 532.179C524.409 541.126 538.059 551.112 550.339 548.554C562.62 545.995 573.366 497.385 573.366 497.385C573.366 497.385 592.298 446.727 590.251 435.982C588.205 425.236 584.801 416.458 578.482 405.28Z" fill="black" fill-opacity="0.2"></path>
<path d="M560.062 589.488H581.553H691.054L695.148 503.524C695.148 503.524 695.659 468.729 686.961 457.984C678.262 447.238 670.075 433.934 636.303 433.935C602.532 433.935 586.669 448.262 576.947 462.077C567.225 475.893 563.643 503.524 563.643 503.524L560.062 589.488Z" fill="#db6d00"></path>
<path d="M560.062 589.488H579.506C579.506 589.488 582.576 525.527 582.576 509.665C582.576 496.361 587.693 477.94 593.833 466.683C602.278 451.2 623.785 440.966 641.42 441.098C655.748 441.206 676.498 446.727 685.937 456.449C676.498 446.727 670.075 433.934 636.303 433.935C602.532 433.935 586.669 448.262 576.947 462.077C567.225 475.893 563.643 503.524 563.643 503.524L560.062 589.488Z" fill="black" fill-opacity="0.3"></path>
<path d="M439.814 438.027C437.39 438.208 436.744 438.027 433.162 438.539C433.162 438.539 437.376 436.957 440.326 437.004C442.74 437.042 443.676 437.229 445.955 438.027C448.288 438.844 449.169 438.522 451.583 439.051C454.953 439.789 456.592 440.267 459.77 441.609C462.946 442.949 464.11 444.875 467.446 445.741C469.767 446.344 473.586 445.741 473.586 445.741V448.261H470.004C466.845 448.261 466.095 447.781 463.352 446.214C461.374 445.083 460.336 443.514 458.235 442.631C455.65 441.545 453.812 442.207 451.072 441.609C447.918 440.92 448.001 440.586 444.931 439.562C443.036 438.93 441.807 437.878 439.814 438.027Z" fill="black" fill-opacity="0.06"></path>
<path d="M618.789 220.816C604.251 207.34 597.298 205.977 571.319 209.813C545.34 213.648 528.864 240.336 531.407 252.795C536.524 277.868 544.712 271.968 544.712 309.081C544.712 332.618 576.459 364.041 561.597 375.6C533.966 397.091 670.587 482.544 667.517 397.603C666.155 359.925 652.561 368.183 637.722 275.055C634.43 254.395 634.133 235.038 618.789 220.816Z" fill="#2E2D2D"></path>
<path d="M352.406 188.322C346.82 188.322 343.097 184.513 343.097 180.255L342.477 137.436C342.477 133.323 345.811 129.989 349.923 129.989H410.825C414.938 129.989 418.272 133.323 418.272 137.436V178.756C418.272 182.724 415.16 185.995 411.197 186.193L352.406 188.322Z" fill="#eed7a5"></path>
<path d="M352.406 188.322C346.82 188.322 343.097 184.513 343.097 180.255L342.477 137.436C342.477 133.323 345.811 129.989 349.923 129.989H410.825C414.938 129.989 418.272 133.323 418.272 137.436V178.756C418.272 182.724 415.16 185.995 411.197 186.193L352.406 188.322Z" fill="black" fill-opacity="0.2"></path>
<path d="M352.383 186.069C348.129 186.282 344.564 182.891 344.564 178.632V137.436C344.564 133.323 347.898 129.989 352.011 129.989H410.43C414.543 129.989 417.877 133.323 417.877 137.436V176.274C417.877 180.242 414.766 183.513 410.802 183.711L352.383 186.069Z" fill="#eed7a5"></path>
<path d="M350.269 147.292C351.208 147.292 351.348 146.002 351.348 145.091C351.348 144.273 351.292 143.487 351.236 142.669C351.18 141.852 351.124 141.034 351.124 140.217C351.124 137.198 351.965 136.129 353.059 136.129H353.339V137.764H353.115C352.372 137.795 352.049 138.676 352.049 140.374C352.049 141.097 352.105 141.789 352.147 142.512C352.203 143.235 352.259 143.959 352.259 144.776C352.259 146.694 351.881 147.7 351.306 148.046V148.109C351.895 148.455 352.259 149.43 352.259 151.348C352.259 152.166 352.203 152.857 352.147 153.612C352.105 154.335 352.049 155.058 352.049 155.719C352.049 157.322 352.33 158.266 353.101 158.297H353.339V159.932H353.073C351.937 159.932 351.124 158.769 351.124 156.033C351.124 155.184 351.18 154.398 351.236 153.549C351.292 152.7 351.348 151.883 351.348 151.034C351.348 149.996 351.208 148.832 350.269 148.832V147.292V147.292Z" fill="#db6d00"></path>
<path d="M407.578 159.573C406.639 159.573 406.498 158.284 406.498 157.372C406.498 156.554 406.554 155.768 406.611 154.951C406.667 154.133 406.723 153.315 406.723 152.498C406.723 149.479 405.882 148.41 404.788 148.41H404.508V150.045H404.732C405.475 150.077 405.797 150.957 405.797 152.655C405.797 153.378 405.741 154.07 405.699 154.793C405.643 155.517 405.587 156.24 405.587 157.057C405.587 158.975 405.966 159.982 406.54 160.328V160.39C405.952 160.736 405.587 161.711 405.587 163.629C405.587 164.447 405.643 165.139 405.699 165.893C405.741 166.616 405.797 167.34 405.797 168C405.797 169.604 405.517 170.547 404.746 170.578H404.508V172.214H404.774C405.91 172.214 406.723 171.05 406.723 168.315C406.723 167.466 406.667 166.679 406.611 165.83C406.554 164.981 406.498 164.164 406.498 163.315C406.498 162.277 406.639 161.114 407.578 161.114V159.573V159.573Z" fill="#db6d00"></path>
<path d="M360.502 152.504C360.502 151.939 360.961 151.48 361.526 151.48H367.666C368.231 151.48 368.689 151.939 368.689 152.504V157.621C368.689 158.186 368.231 158.644 367.666 158.644H361.526C360.961 158.644 360.502 158.186 360.502 157.621V152.504Z" fill="#db6d00"></path>
<path d="M360.502 142.269C360.502 141.704 360.961 141.246 361.526 141.246H367.666C368.231 141.246 368.689 141.704 368.689 142.269V147.386C368.689 147.952 368.231 148.41 367.666 148.41H361.526C360.961 148.41 360.502 147.952 360.502 147.386V142.269Z" fill="#db6d00"></path>
<path d="M360.502 162.737C360.502 162.172 360.961 161.714 361.526 161.714H367.666C368.231 161.714 368.689 162.172 368.689 162.737V167.854C368.689 168.419 368.231 168.878 367.666 168.878H361.526C360.961 168.878 360.502 168.419 360.502 167.854V162.737Z" fill="#db6d00"></path>
<path fill-rule="evenodd" clip-rule="evenodd" d="M394.403 142.422C394.406 142.705 394.18 142.937 393.897 142.94L372.384 143.213C372.101 143.217 371.869 142.99 371.866 142.708C371.862 142.425 372.088 142.193 372.371 142.19L393.884 141.917C394.167 141.913 394.399 142.14 394.403 142.422ZM391.227 145.379C391.233 145.662 391.009 145.896 390.726 145.901L372.281 146.281C371.998 146.287 371.764 146.063 371.759 145.78C371.753 145.498 371.977 145.264 372.26 145.258L390.705 144.878C390.987 144.872 391.221 145.097 391.227 145.379Z" fill="#db6d00"></path>
<path fill-rule="evenodd" clip-rule="evenodd" d="M394.402 152.656C394.405 152.938 394.179 153.17 393.896 153.174L372.383 153.446C372.1 153.45 371.868 153.224 371.865 152.941C371.861 152.659 372.087 152.427 372.37 152.423L393.883 152.15C394.166 152.147 394.398 152.373 394.402 152.656ZM391.226 155.613C391.232 155.895 391.008 156.129 390.725 156.135L372.28 156.515C371.997 156.52 371.763 156.296 371.758 156.014C371.752 155.731 371.976 155.497 372.259 155.492L390.704 155.112C390.986 155.106 391.22 155.33 391.226 155.613Z" fill="#db6d00"></path>
<path fill-rule="evenodd" clip-rule="evenodd" d="M394.402 162.888C394.405 163.171 394.179 163.403 393.896 163.406L372.383 163.679C372.1 163.682 371.868 163.456 371.865 163.174C371.861 162.891 372.087 162.659 372.37 162.656L393.883 162.383C394.166 162.379 394.398 162.605 394.402 162.888ZM391.226 165.845C391.232 166.128 391.008 166.361 390.725 166.367L372.28 166.747C371.997 166.753 371.763 166.529 371.758 166.246C371.752 165.964 371.976 165.73 372.259 165.724L390.704 165.344C390.986 165.338 391.22 165.563 391.226 165.845Z" fill="#db6d00"></path>
<path fill-rule="evenodd" clip-rule="evenodd" d="M204.949 192.943C204.948 192.675 205.165 192.459 205.433 192.458L223.427 192.415C223.694 192.415 223.911 192.632 223.911 192.9C223.912 193.167 223.695 193.384 223.427 193.384L205.433 193.427C205.166 193.427 204.949 193.21 204.949 192.943Z" fill="#eed7a5"></path>
<path fill-rule="evenodd" clip-rule="evenodd" d="M204.949 189.829C204.949 189.561 205.167 189.345 205.434 189.345L229.848 189.368C230.115 189.369 230.332 189.586 230.331 189.854C230.33 190.121 230.113 190.338 229.846 190.337L205.432 190.314C205.164 190.313 204.948 190.096 204.949 189.829Z" fill="#eed7a5"></path>
<path d="M233.862 177.386L190.06 177.587C189.073 177.763 188.111 177.004 187.911 175.891C187.712 174.777 188.35 173.731 189.337 173.554L233.14 173.354C234.127 173.177 235.088 173.936 235.288 175.05C235.487 176.163 234.849 177.209 233.862 177.386Z" fill="#eed7a5"></path>
<path d="M197.481 191.026C197.719 193.085 196.243 194.946 194.184 195.183C192.126 195.421 190.265 193.945 190.027 191.887C189.79 189.828 191.266 187.967 193.324 187.729C195.383 187.492 197.244 188.968 197.481 191.026Z" fill="#eed7a5"></path>
<path fill-rule="evenodd" clip-rule="evenodd" d="M204.949 205.526C204.948 205.258 205.165 205.041 205.433 205.041L223.427 204.998C223.694 204.998 223.911 205.215 223.911 205.482C223.912 205.75 223.695 205.967 223.427 205.967L205.433 206.01C205.166 206.01 204.949 205.793 204.949 205.526Z" fill="#eed7a5"></path>
<path fill-rule="evenodd" clip-rule="evenodd" d="M204.949 202.411C204.949 202.144 205.167 201.928 205.434 201.928L229.848 201.951C230.115 201.952 230.332 202.169 230.331 202.437C230.33 202.704 230.113 202.921 229.846 202.92L205.432 202.897C205.164 202.896 204.948 202.679 204.949 202.411Z" fill="#eed7a5"></path>
<path d="M197.481 203.609C197.719 205.668 196.243 207.529 194.184 207.766C192.126 208.004 190.265 206.528 190.027 204.469C189.79 202.411 191.266 200.55 193.324 200.312C195.383 200.075 197.244 201.551 197.481 203.609Z" fill="#eed7a5"></path>
<path fill-rule="evenodd" clip-rule="evenodd" d="M204.949 217.806C204.948 217.539 205.165 217.322 205.433 217.322L223.427 217.279C223.694 217.279 223.911 217.495 223.911 217.763C223.912 218.03 223.695 218.247 223.427 218.248L205.433 218.29C205.166 218.291 204.949 218.074 204.949 217.806Z" fill="#eed7a5"></path>
<path fill-rule="evenodd" clip-rule="evenodd" d="M204.949 214.692C204.949 214.424 205.167 214.208 205.434 214.209L229.848 214.232C230.115 214.233 230.332 214.45 230.331 214.717C230.33 214.985 230.113 215.201 229.846 215.201L205.432 215.177C205.164 215.177 204.948 214.959 204.949 214.692Z" fill="#eed7a5"></path>
<path d="M197.481 215.89C197.719 217.948 196.243 219.809 194.184 220.047C192.126 220.284 190.265 218.808 190.027 216.75C189.79 214.692 191.266 212.83 193.324 212.593C195.383 212.355 197.244 213.831 197.481 215.89Z" fill="#eed7a5"></path>
<path d="M331.587 439.417L314.026 423.669C312.877 422.788 313.859 420.712 314.639 420.491L332.567 415.546C333.528 415.274 334.561 415.486 335.337 416.115L353.612 430.317C354.76 431.198 354.249 433.38 353.461 433.615L334.764 440.03C333.75 440.333 332.381 440.117 331.587 439.417Z" fill="#eed7a5"></path>
<path d="M331.587 439.418L314.026 423.67C312.877 422.789 313.859 420.713 314.639 420.492L332.567 415.547C333.528 415.275 334.561 415.487 335.337 416.116L353.612 430.318C354.76 431.199 354.249 433.381 353.461 433.616L334.764 440.031C333.75 440.334 332.381 440.118 331.587 439.418Z" fill="black" fill-opacity="0.5"></path>
<path d="M331.765 437.583L314.591 422.441C313.983 421.905 314.209 420.909 314.989 420.689L332.488 415.272C333.449 415 334.483 415.212 335.259 415.841L353.32 430.485C353.959 431.003 353.757 432.025 352.968 432.26L334.672 438.223C333.658 438.525 332.559 438.284 331.765 437.583Z" fill="#eed7a5"></path>
<path d="M352.968 432.26L334.672 438.222C333.657 438.525 332.558 438.283 331.764 437.583L330.495 436.464L352.089 429.486L353.32 430.484C353.959 431.002 353.756 432.025 352.968 432.26Z" fill="black" fill-opacity="0.2"></path>
<path fill-rule="evenodd" clip-rule="evenodd" d="M332.349 414.779C333.47 414.461 334.675 414.709 335.58 415.443L353.642 430.086C354.599 430.862 354.298 432.391 353.121 432.748L334.818 438.712C333.634 439.065 332.352 438.783 331.426 437.966L314.252 422.824C313.342 422.022 313.678 420.532 314.842 420.197L332.349 414.779ZM332.633 415.762L315.128 421.18C314.738 421.29 314.625 421.788 314.929 422.056L332.103 437.199C332.763 437.781 333.676 437.982 334.52 437.733L352.822 431.769C353.216 431.651 353.317 431.14 352.998 430.881L334.936 416.238C334.291 415.715 333.432 415.538 332.633 415.762Z" fill="#eed7a5"></path>
<path fill-rule="evenodd" clip-rule="evenodd" d="M332.349 414.779C333.47 414.461 334.675 414.709 335.58 415.443L353.642 430.086C354.599 430.862 354.298 432.391 353.121 432.748L334.818 438.712C333.634 439.065 332.352 438.783 331.426 437.966L314.252 422.824C313.342 422.022 313.678 420.532 314.842 420.197L332.349 414.779ZM332.633 415.762L315.128 421.18C314.738 421.29 314.625 421.788 314.929 422.056L332.103 437.199C332.763 437.781 333.676 437.982 334.52 437.733L352.822 431.769C353.216 431.651 353.317 431.14 352.998 430.881L334.936 416.238C334.291 415.715 333.432 415.538 332.633 415.762Z" fill="black" fill-opacity="0.2"></path>
<ellipse cx="341.804" cy="434.714" rx="1.53507" ry="0.767536" transform="rotate(-7.51518 341.804 434.714)" fill="black" fill-opacity="0.5"></ellipse>
<path fill-rule="evenodd" clip-rule="evenodd" d="M386 434.5C386.276 434.5 386.5 434.724 386.5 435V438.599L390.608 439.512C390.878 439.572 391.048 439.839 390.988 440.108C390.928 440.378 390.661 440.548 390.392 440.488L385.5 439.401V435C385.5 434.724 385.724 434.5 386 434.5Z" fill="#db6d00"></path>
<path fill-rule="evenodd" clip-rule="evenodd" d="M424.476 438.345C424.561 438.608 424.418 438.89 424.155 438.976L402.655 445.976C402.392 446.061 402.11 445.918 402.025 445.655C401.939 445.392 402.083 445.11 402.345 445.025L423.845 438.025C424.108 437.939 424.39 438.083 424.476 438.345Z" fill="#db6d00"></path>
<path fill-rule="evenodd" clip-rule="evenodd" d="M421.476 435.345C421.561 435.608 421.418 435.89 421.155 435.976L399.655 442.976C399.392 443.061 399.11 442.918 399.025 442.655C398.939 442.392 399.083 442.11 399.345 442.025L420.845 435.025C421.108 434.939 421.39 435.083 421.476 435.345Z" fill="#db6d00"></path>
<path fill-rule="evenodd" clip-rule="evenodd" d="M418.476 432.345C418.561 432.608 418.418 432.89 418.155 432.976L396.655 439.976C396.392 440.061 396.11 439.918 396.025 439.655C395.939 439.392 396.083 439.11 396.345 439.025L417.845 432.025C418.108 431.939 418.39 432.083 418.476 432.345Z" fill="#db6d00"></path>
<path fill-rule="evenodd" clip-rule="evenodd" d="M414.476 429.345C414.561 429.608 414.418 429.89 414.155 429.976L392.655 436.976C392.392 437.061 392.11 436.918 392.025 436.655C391.939 436.392 392.083 436.11 392.345 436.025L413.845 429.025C414.108 428.939 414.39 429.083 414.476 429.345Z" fill="#db6d00"></path>
<path d="M300 248.699C300 246.49 301.778 244.489 303.972 244.229L351.633 241.47C353.826 241.21 355.605 242.79 355.605 245V353C355.605 355.209 353.826 357.21 351.633 357.47L303.972 365.229C301.778 365.489 300 363.908 300 361.699V248.699Z" fill="#eed7a5"></path>
<path fill-rule="evenodd" clip-rule="evenodd" d="M307.945 314.259C307.945 313.43 308.611 312.68 309.434 312.582L317.379 311.642C318.201 311.545 318.868 312.137 318.868 312.966C318.868 313.794 318.201 314.545 317.379 314.642L309.434 315.582C308.611 315.68 307.945 315.087 307.945 314.259Z" fill="#db6d00"></path>
<path fill-rule="evenodd" clip-rule="evenodd" d="M307.945 332.259C307.945 331.43 308.611 330.68 309.434 330.582L317.379 329.642C318.201 329.545 318.868 330.137 318.868 330.966C318.868 331.794 318.201 332.545 317.379 332.642L309.434 333.582C308.611 333.68 307.945 333.087 307.945 332.259Z" fill="#db6d00"></path>
<path fill-rule="evenodd" clip-rule="evenodd" d="M307.945 349.259C307.945 348.43 308.611 347.68 309.434 347.582L317.379 346.642C318.201 346.545 318.868 347.137 318.868 347.966C318.868 348.794 318.201 349.545 317.379 349.642L309.434 350.582C308.611 350.68 307.945 350.087 307.945 349.259Z" fill="#db6d00"></path>
<path fill-rule="evenodd" clip-rule="evenodd" d="M321.847 313.113C321.847 310.352 324.07 307.85 326.813 307.526L345.185 305.351C347.927 305.027 350.15 307.002 350.15 309.763C350.15 312.525 347.927 315.027 345.185 315.351L326.813 317.526C324.07 317.85 321.847 315.875 321.847 313.113Z" fill="#db6d00"></path>
<path fill-rule="evenodd" clip-rule="evenodd" d="M321.847 313.113C321.847 310.352 324.07 307.85 326.813 307.526L345.185 305.351C347.927 305.027 350.15 307.002 350.15 309.763C350.15 312.525 347.927 315.027 345.185 315.351L326.813 317.526C324.07 317.85 321.847 315.875 321.847 313.113Z" fill="#db6d00"></path>
<path fill-rule="evenodd" clip-rule="evenodd" d="M321.847 347.113C321.847 344.352 324.07 341.85 326.813 341.526L345.185 339.351C347.927 339.027 350.15 341.002 350.15 343.763C350.15 346.525 347.927 349.027 345.185 349.351L326.813 351.526C324.07 351.85 321.847 349.875 321.847 347.113Z" fill="#db6d00"></path>
<path fill-rule="evenodd" clip-rule="evenodd" d="M321.847 330.113C321.847 327.352 324.07 324.85 326.813 324.526L345.185 322.351C347.927 322.027 350.15 324.002 350.15 326.763C350.15 329.525 347.927 332.027 345.185 332.351L326.813 334.526C324.07 334.85 321.847 332.875 321.847 330.113Z" fill="#db6d00"></path>
<circle r="2.5" transform="matrix(0.993068 -0.117537 0 1 328.302 312.85)" fill="black" fill-opacity="0.2"></circle>
<circle r="2.5" transform="matrix(0.993068 -0.117537 0 1 328.302 329.85)" fill="black" fill-opacity="0.2"></circle>
<circle r="2.5" transform="matrix(0.993068 -0.117537 0 1 328.302 345.85)" fill="black" fill-opacity="0.2"></circle>
<path d="M307.944 259.88C307.944 258.73 308.906 257.702 310.047 257.635L322.957 256.872C324.006 256.81 324.826 257.588 324.826 258.647V269.761C324.826 270.866 323.937 271.866 322.84 271.996L309.93 273.524C308.833 273.654 307.944 272.864 307.944 271.759V259.88Z" fill="#db6d00"></path>
<path d="M332.771 257.942C332.771 256.791 333.733 255.764 334.874 255.696L347.783 254.933C348.833 254.871 349.653 255.649 349.653 256.708V266.823C349.653 267.927 348.764 268.928 347.667 269.058L334.757 270.586C333.66 270.716 332.771 269.925 332.771 268.821V257.942Z" fill="#db6d00"></path>
<path d="M307.944 285.88C307.944 284.73 308.906 283.702 310.047 283.635L322.957 282.872C324.006 282.81 324.826 283.588 324.826 284.647V295.761C324.826 296.866 323.937 297.866 322.84 297.996L309.93 299.524C308.833 299.654 307.944 298.864 307.944 297.759V285.88Z" fill="#db6d00"></path>
<path d="M332.771 283.942C332.771 282.791 333.733 281.764 334.874 281.696L347.783 280.933C348.833 280.871 349.653 281.649 349.653 282.708V292.823C349.653 293.927 348.764 294.928 347.667 295.058L334.757 296.586C333.66 296.716 332.771 295.925 332.771 294.821V283.942Z" fill="#db6d00"></path>
</svg>